%TF.GenerationSoftware,KiCad,Pcbnew,(5.1.9)-1*%
%TF.CreationDate,2021-04-25T15:51:04-04:00*%
%TF.ProjectId,motor_driver_prj,6d6f746f-725f-4647-9269-7665725f7072,rev?*%
%TF.SameCoordinates,Original*%
%TF.FileFunction,Paste,Top*%
%TF.FilePolarity,Positive*%
%FSLAX46Y46*%
G04 Gerber Fmt 4.6, Leading zero omitted, Abs format (unit mm)*
G04 Created by KiCad (PCBNEW (5.1.9)-1) date 2021-04-25 15:51:04*
%MOMM*%
%LPD*%
G01*
G04 APERTURE LIST*
%ADD10R,5.562600X6.299200*%
%ADD11R,0.939800X2.489200*%
%ADD12R,1.625600X1.727200*%
%ADD13R,1.070000X2.600000*%
%ADD14R,10.800000X8.000000*%
%ADD15R,0.450000X2.000000*%
%ADD16R,5.160000X2.600000*%
%ADD17R,2.000000X0.300000*%
%ADD18R,3.120000X2.240000*%
%ADD19R,4.000000X5.400000*%
%ADD20R,0.900000X0.800000*%
%ADD21R,2.200000X1.200000*%
%ADD22R,3.050000X2.750000*%
%ADD23R,2.000000X0.450000*%
%ADD24R,2.600000X5.160000*%
G04 APERTURE END LIST*
D10*
%TO.C,CR1*%
X158750000Y-117221000D03*
D11*
X161036000Y-125374400D03*
X156464000Y-125374400D03*
%TD*%
%TO.C,C6*%
G36*
G01*
X152560000Y-120211000D02*
X153510000Y-120211000D01*
G75*
G02*
X153760000Y-120461000I0J-250000D01*
G01*
X153760000Y-121136000D01*
G75*
G02*
X153510000Y-121386000I-250000J0D01*
G01*
X152560000Y-121386000D01*
G75*
G02*
X152310000Y-121136000I0J250000D01*
G01*
X152310000Y-120461000D01*
G75*
G02*
X152560000Y-120211000I250000J0D01*
G01*
G37*
G36*
G01*
X152560000Y-118136000D02*
X153510000Y-118136000D01*
G75*
G02*
X153760000Y-118386000I0J-250000D01*
G01*
X153760000Y-119061000D01*
G75*
G02*
X153510000Y-119311000I-250000J0D01*
G01*
X152560000Y-119311000D01*
G75*
G02*
X152310000Y-119061000I0J250000D01*
G01*
X152310000Y-118386000D01*
G75*
G02*
X152560000Y-118136000I250000J0D01*
G01*
G37*
%TD*%
%TO.C,C2*%
G36*
G01*
X158425000Y-127524500D02*
X158425000Y-127999500D01*
G75*
G02*
X158187500Y-128237000I-237500J0D01*
G01*
X157587500Y-128237000D01*
G75*
G02*
X157350000Y-127999500I0J237500D01*
G01*
X157350000Y-127524500D01*
G75*
G02*
X157587500Y-127287000I237500J0D01*
G01*
X158187500Y-127287000D01*
G75*
G02*
X158425000Y-127524500I0J-237500D01*
G01*
G37*
G36*
G01*
X160150000Y-127524500D02*
X160150000Y-127999500D01*
G75*
G02*
X159912500Y-128237000I-237500J0D01*
G01*
X159312500Y-128237000D01*
G75*
G02*
X159075000Y-127999500I0J237500D01*
G01*
X159075000Y-127524500D01*
G75*
G02*
X159312500Y-127287000I237500J0D01*
G01*
X159912500Y-127287000D01*
G75*
G02*
X160150000Y-127524500I0J-237500D01*
G01*
G37*
%TD*%
D12*
%TO.C,D2*%
X121920000Y-126136400D03*
X121920000Y-130403600D03*
%TD*%
D13*
%TO.C,U3*%
X134845000Y-125930000D03*
X133145000Y-125930000D03*
X131445000Y-125930000D03*
X129745000Y-125930000D03*
X128045000Y-125930000D03*
D14*
X131445000Y-114760000D03*
%TD*%
D15*
%TO.C,U10*%
X142640000Y-74470000D03*
X141990000Y-74470000D03*
X141340000Y-74470000D03*
X140690000Y-74470000D03*
X140040000Y-74470000D03*
X139390000Y-74470000D03*
X138740000Y-74470000D03*
X138090000Y-74470000D03*
X137440000Y-74470000D03*
X136790000Y-74470000D03*
X136140000Y-74470000D03*
X135490000Y-74470000D03*
X135490000Y-80470000D03*
X136140000Y-80470000D03*
X136790000Y-80470000D03*
X137440000Y-80470000D03*
X138090000Y-80470000D03*
X138740000Y-80470000D03*
X139390000Y-80470000D03*
X140040000Y-80470000D03*
X140690000Y-80470000D03*
X141340000Y-80470000D03*
X141990000Y-80470000D03*
X142640000Y-80470000D03*
D16*
X139065000Y-77470000D03*
%TD*%
D15*
%TO.C,U9*%
X166135000Y-74470000D03*
X165485000Y-74470000D03*
X164835000Y-74470000D03*
X164185000Y-74470000D03*
X163535000Y-74470000D03*
X162885000Y-74470000D03*
X162235000Y-74470000D03*
X161585000Y-74470000D03*
X160935000Y-74470000D03*
X160285000Y-74470000D03*
X159635000Y-74470000D03*
X158985000Y-74470000D03*
X158985000Y-80470000D03*
X159635000Y-80470000D03*
X160285000Y-80470000D03*
X160935000Y-80470000D03*
X161585000Y-80470000D03*
X162235000Y-80470000D03*
X162885000Y-80470000D03*
X163535000Y-80470000D03*
X164185000Y-80470000D03*
X164835000Y-80470000D03*
X165485000Y-80470000D03*
X166135000Y-80470000D03*
D16*
X162560000Y-77470000D03*
%TD*%
D15*
%TO.C,U8*%
X189630000Y-74470000D03*
X188980000Y-74470000D03*
X188330000Y-74470000D03*
X187680000Y-74470000D03*
X187030000Y-74470000D03*
X186380000Y-74470000D03*
X185730000Y-74470000D03*
X185080000Y-74470000D03*
X184430000Y-74470000D03*
X183780000Y-74470000D03*
X183130000Y-74470000D03*
X182480000Y-74470000D03*
X182480000Y-80470000D03*
X183130000Y-80470000D03*
X183780000Y-80470000D03*
X184430000Y-80470000D03*
X185080000Y-80470000D03*
X185730000Y-80470000D03*
X186380000Y-80470000D03*
X187030000Y-80470000D03*
X187680000Y-80470000D03*
X188330000Y-80470000D03*
X188980000Y-80470000D03*
X189630000Y-80470000D03*
D16*
X186055000Y-77470000D03*
%TD*%
D15*
%TO.C,U4*%
X155355000Y-99416000D03*
X154705000Y-99416000D03*
X154055000Y-99416000D03*
X153405000Y-99416000D03*
X152755000Y-99416000D03*
X152105000Y-99416000D03*
X151455000Y-99416000D03*
X150805000Y-99416000D03*
X150155000Y-99416000D03*
X149505000Y-99416000D03*
X148855000Y-99416000D03*
X148205000Y-99416000D03*
X147555000Y-99416000D03*
X146905000Y-99416000D03*
X146905000Y-105816000D03*
X147555000Y-105816000D03*
X148205000Y-105816000D03*
X148855000Y-105816000D03*
X149505000Y-105816000D03*
X150155000Y-105816000D03*
X150805000Y-105816000D03*
X151455000Y-105816000D03*
X152105000Y-105816000D03*
X152755000Y-105816000D03*
X153405000Y-105816000D03*
X154055000Y-105816000D03*
X154705000Y-105816000D03*
X155355000Y-105816000D03*
%TD*%
%TO.C,R24*%
G36*
G01*
X159622500Y-89745000D02*
X159147500Y-89745000D01*
G75*
G02*
X158910000Y-89507500I0J237500D01*
G01*
X158910000Y-89007500D01*
G75*
G02*
X159147500Y-88770000I237500J0D01*
G01*
X159622500Y-88770000D01*
G75*
G02*
X159860000Y-89007500I0J-237500D01*
G01*
X159860000Y-89507500D01*
G75*
G02*
X159622500Y-89745000I-237500J0D01*
G01*
G37*
G36*
G01*
X159622500Y-91570000D02*
X159147500Y-91570000D01*
G75*
G02*
X158910000Y-91332500I0J237500D01*
G01*
X158910000Y-90832500D01*
G75*
G02*
X159147500Y-90595000I237500J0D01*
G01*
X159622500Y-90595000D01*
G75*
G02*
X159860000Y-90832500I0J-237500D01*
G01*
X159860000Y-91332500D01*
G75*
G02*
X159622500Y-91570000I-237500J0D01*
G01*
G37*
%TD*%
%TO.C,R23*%
G36*
G01*
X163432500Y-89745000D02*
X162957500Y-89745000D01*
G75*
G02*
X162720000Y-89507500I0J237500D01*
G01*
X162720000Y-89007500D01*
G75*
G02*
X162957500Y-88770000I237500J0D01*
G01*
X163432500Y-88770000D01*
G75*
G02*
X163670000Y-89007500I0J-237500D01*
G01*
X163670000Y-89507500D01*
G75*
G02*
X163432500Y-89745000I-237500J0D01*
G01*
G37*
G36*
G01*
X163432500Y-91570000D02*
X162957500Y-91570000D01*
G75*
G02*
X162720000Y-91332500I0J237500D01*
G01*
X162720000Y-90832500D01*
G75*
G02*
X162957500Y-90595000I237500J0D01*
G01*
X163432500Y-90595000D01*
G75*
G02*
X163670000Y-90832500I0J-237500D01*
G01*
X163670000Y-91332500D01*
G75*
G02*
X163432500Y-91570000I-237500J0D01*
G01*
G37*
%TD*%
%TO.C,R22*%
G36*
G01*
X164862500Y-90595000D02*
X165337500Y-90595000D01*
G75*
G02*
X165575000Y-90832500I0J-237500D01*
G01*
X165575000Y-91332500D01*
G75*
G02*
X165337500Y-91570000I-237500J0D01*
G01*
X164862500Y-91570000D01*
G75*
G02*
X164625000Y-91332500I0J237500D01*
G01*
X164625000Y-90832500D01*
G75*
G02*
X164862500Y-90595000I237500J0D01*
G01*
G37*
G36*
G01*
X164862500Y-88770000D02*
X165337500Y-88770000D01*
G75*
G02*
X165575000Y-89007500I0J-237500D01*
G01*
X165575000Y-89507500D01*
G75*
G02*
X165337500Y-89745000I-237500J0D01*
G01*
X164862500Y-89745000D01*
G75*
G02*
X164625000Y-89507500I0J237500D01*
G01*
X164625000Y-89007500D01*
G75*
G02*
X164862500Y-88770000I237500J0D01*
G01*
G37*
%TD*%
%TO.C,R21*%
G36*
G01*
X187468500Y-90595000D02*
X187943500Y-90595000D01*
G75*
G02*
X188181000Y-90832500I0J-237500D01*
G01*
X188181000Y-91332500D01*
G75*
G02*
X187943500Y-91570000I-237500J0D01*
G01*
X187468500Y-91570000D01*
G75*
G02*
X187231000Y-91332500I0J237500D01*
G01*
X187231000Y-90832500D01*
G75*
G02*
X187468500Y-90595000I237500J0D01*
G01*
G37*
G36*
G01*
X187468500Y-88770000D02*
X187943500Y-88770000D01*
G75*
G02*
X188181000Y-89007500I0J-237500D01*
G01*
X188181000Y-89507500D01*
G75*
G02*
X187943500Y-89745000I-237500J0D01*
G01*
X187468500Y-89745000D01*
G75*
G02*
X187231000Y-89507500I0J237500D01*
G01*
X187231000Y-89007500D01*
G75*
G02*
X187468500Y-88770000I237500J0D01*
G01*
G37*
%TD*%
%TO.C,R20*%
G36*
G01*
X189848500Y-89745000D02*
X189373500Y-89745000D01*
G75*
G02*
X189136000Y-89507500I0J237500D01*
G01*
X189136000Y-89007500D01*
G75*
G02*
X189373500Y-88770000I237500J0D01*
G01*
X189848500Y-88770000D01*
G75*
G02*
X190086000Y-89007500I0J-237500D01*
G01*
X190086000Y-89507500D01*
G75*
G02*
X189848500Y-89745000I-237500J0D01*
G01*
G37*
G36*
G01*
X189848500Y-91570000D02*
X189373500Y-91570000D01*
G75*
G02*
X189136000Y-91332500I0J237500D01*
G01*
X189136000Y-90832500D01*
G75*
G02*
X189373500Y-90595000I237500J0D01*
G01*
X189848500Y-90595000D01*
G75*
G02*
X190086000Y-90832500I0J-237500D01*
G01*
X190086000Y-91332500D01*
G75*
G02*
X189848500Y-91570000I-237500J0D01*
G01*
G37*
%TD*%
%TO.C,R19*%
G36*
G01*
X193658500Y-89745000D02*
X193183500Y-89745000D01*
G75*
G02*
X192946000Y-89507500I0J237500D01*
G01*
X192946000Y-89007500D01*
G75*
G02*
X193183500Y-88770000I237500J0D01*
G01*
X193658500Y-88770000D01*
G75*
G02*
X193896000Y-89007500I0J-237500D01*
G01*
X193896000Y-89507500D01*
G75*
G02*
X193658500Y-89745000I-237500J0D01*
G01*
G37*
G36*
G01*
X193658500Y-91570000D02*
X193183500Y-91570000D01*
G75*
G02*
X192946000Y-91332500I0J237500D01*
G01*
X192946000Y-90832500D01*
G75*
G02*
X193183500Y-90595000I237500J0D01*
G01*
X193658500Y-90595000D01*
G75*
G02*
X193896000Y-90832500I0J-237500D01*
G01*
X193896000Y-91332500D01*
G75*
G02*
X193658500Y-91570000I-237500J0D01*
G01*
G37*
%TD*%
%TO.C,R18*%
G36*
G01*
X195088500Y-90595000D02*
X195563500Y-90595000D01*
G75*
G02*
X195801000Y-90832500I0J-237500D01*
G01*
X195801000Y-91332500D01*
G75*
G02*
X195563500Y-91570000I-237500J0D01*
G01*
X195088500Y-91570000D01*
G75*
G02*
X194851000Y-91332500I0J237500D01*
G01*
X194851000Y-90832500D01*
G75*
G02*
X195088500Y-90595000I237500J0D01*
G01*
G37*
G36*
G01*
X195088500Y-88770000D02*
X195563500Y-88770000D01*
G75*
G02*
X195801000Y-89007500I0J-237500D01*
G01*
X195801000Y-89507500D01*
G75*
G02*
X195563500Y-89745000I-237500J0D01*
G01*
X195088500Y-89745000D01*
G75*
G02*
X194851000Y-89507500I0J237500D01*
G01*
X194851000Y-89007500D01*
G75*
G02*
X195088500Y-88770000I237500J0D01*
G01*
G37*
%TD*%
%TO.C,R17*%
G36*
G01*
X170323500Y-110661000D02*
X170798500Y-110661000D01*
G75*
G02*
X171036000Y-110898500I0J-237500D01*
G01*
X171036000Y-111398500D01*
G75*
G02*
X170798500Y-111636000I-237500J0D01*
G01*
X170323500Y-111636000D01*
G75*
G02*
X170086000Y-111398500I0J237500D01*
G01*
X170086000Y-110898500D01*
G75*
G02*
X170323500Y-110661000I237500J0D01*
G01*
G37*
G36*
G01*
X170323500Y-108836000D02*
X170798500Y-108836000D01*
G75*
G02*
X171036000Y-109073500I0J-237500D01*
G01*
X171036000Y-109573500D01*
G75*
G02*
X170798500Y-109811000I-237500J0D01*
G01*
X170323500Y-109811000D01*
G75*
G02*
X170086000Y-109573500I0J237500D01*
G01*
X170086000Y-109073500D01*
G75*
G02*
X170323500Y-108836000I237500J0D01*
G01*
G37*
%TD*%
%TO.C,R16*%
G36*
G01*
X171847500Y-110661000D02*
X172322500Y-110661000D01*
G75*
G02*
X172560000Y-110898500I0J-237500D01*
G01*
X172560000Y-111398500D01*
G75*
G02*
X172322500Y-111636000I-237500J0D01*
G01*
X171847500Y-111636000D01*
G75*
G02*
X171610000Y-111398500I0J237500D01*
G01*
X171610000Y-110898500D01*
G75*
G02*
X171847500Y-110661000I237500J0D01*
G01*
G37*
G36*
G01*
X171847500Y-108836000D02*
X172322500Y-108836000D01*
G75*
G02*
X172560000Y-109073500I0J-237500D01*
G01*
X172560000Y-109573500D01*
G75*
G02*
X172322500Y-109811000I-237500J0D01*
G01*
X171847500Y-109811000D01*
G75*
G02*
X171610000Y-109573500I0J237500D01*
G01*
X171610000Y-109073500D01*
G75*
G02*
X171847500Y-108836000I237500J0D01*
G01*
G37*
%TD*%
%TO.C,R15*%
G36*
G01*
X172322500Y-116669000D02*
X171847500Y-116669000D01*
G75*
G02*
X171610000Y-116431500I0J237500D01*
G01*
X171610000Y-115931500D01*
G75*
G02*
X171847500Y-115694000I237500J0D01*
G01*
X172322500Y-115694000D01*
G75*
G02*
X172560000Y-115931500I0J-237500D01*
G01*
X172560000Y-116431500D01*
G75*
G02*
X172322500Y-116669000I-237500J0D01*
G01*
G37*
G36*
G01*
X172322500Y-118494000D02*
X171847500Y-118494000D01*
G75*
G02*
X171610000Y-118256500I0J237500D01*
G01*
X171610000Y-117756500D01*
G75*
G02*
X171847500Y-117519000I237500J0D01*
G01*
X172322500Y-117519000D01*
G75*
G02*
X172560000Y-117756500I0J-237500D01*
G01*
X172560000Y-118256500D01*
G75*
G02*
X172322500Y-118494000I-237500J0D01*
G01*
G37*
%TD*%
%TO.C,R14*%
G36*
G01*
X170798500Y-116669000D02*
X170323500Y-116669000D01*
G75*
G02*
X170086000Y-116431500I0J237500D01*
G01*
X170086000Y-115931500D01*
G75*
G02*
X170323500Y-115694000I237500J0D01*
G01*
X170798500Y-115694000D01*
G75*
G02*
X171036000Y-115931500I0J-237500D01*
G01*
X171036000Y-116431500D01*
G75*
G02*
X170798500Y-116669000I-237500J0D01*
G01*
G37*
G36*
G01*
X170798500Y-118494000D02*
X170323500Y-118494000D01*
G75*
G02*
X170086000Y-118256500I0J237500D01*
G01*
X170086000Y-117756500D01*
G75*
G02*
X170323500Y-117519000I237500J0D01*
G01*
X170798500Y-117519000D01*
G75*
G02*
X171036000Y-117756500I0J-237500D01*
G01*
X171036000Y-118256500D01*
G75*
G02*
X170798500Y-118494000I-237500J0D01*
G01*
G37*
%TD*%
%TO.C,R13*%
G36*
G01*
X171113000Y-95233500D02*
X171113000Y-94758500D01*
G75*
G02*
X171350500Y-94521000I237500J0D01*
G01*
X171850500Y-94521000D01*
G75*
G02*
X172088000Y-94758500I0J-237500D01*
G01*
X172088000Y-95233500D01*
G75*
G02*
X171850500Y-95471000I-237500J0D01*
G01*
X171350500Y-95471000D01*
G75*
G02*
X171113000Y-95233500I0J237500D01*
G01*
G37*
G36*
G01*
X169288000Y-95233500D02*
X169288000Y-94758500D01*
G75*
G02*
X169525500Y-94521000I237500J0D01*
G01*
X170025500Y-94521000D01*
G75*
G02*
X170263000Y-94758500I0J-237500D01*
G01*
X170263000Y-95233500D01*
G75*
G02*
X170025500Y-95471000I-237500J0D01*
G01*
X169525500Y-95471000D01*
G75*
G02*
X169288000Y-95233500I0J237500D01*
G01*
G37*
%TD*%
%TO.C,R12*%
G36*
G01*
X124123000Y-95741500D02*
X124123000Y-95266500D01*
G75*
G02*
X124360500Y-95029000I237500J0D01*
G01*
X124860500Y-95029000D01*
G75*
G02*
X125098000Y-95266500I0J-237500D01*
G01*
X125098000Y-95741500D01*
G75*
G02*
X124860500Y-95979000I-237500J0D01*
G01*
X124360500Y-95979000D01*
G75*
G02*
X124123000Y-95741500I0J237500D01*
G01*
G37*
G36*
G01*
X122298000Y-95741500D02*
X122298000Y-95266500D01*
G75*
G02*
X122535500Y-95029000I237500J0D01*
G01*
X123035500Y-95029000D01*
G75*
G02*
X123273000Y-95266500I0J-237500D01*
G01*
X123273000Y-95741500D01*
G75*
G02*
X123035500Y-95979000I-237500J0D01*
G01*
X122535500Y-95979000D01*
G75*
G02*
X122298000Y-95741500I0J237500D01*
G01*
G37*
%TD*%
%TO.C,R11*%
G36*
G01*
X171113000Y-93709500D02*
X171113000Y-93234500D01*
G75*
G02*
X171350500Y-92997000I237500J0D01*
G01*
X171850500Y-92997000D01*
G75*
G02*
X172088000Y-93234500I0J-237500D01*
G01*
X172088000Y-93709500D01*
G75*
G02*
X171850500Y-93947000I-237500J0D01*
G01*
X171350500Y-93947000D01*
G75*
G02*
X171113000Y-93709500I0J237500D01*
G01*
G37*
G36*
G01*
X169288000Y-93709500D02*
X169288000Y-93234500D01*
G75*
G02*
X169525500Y-92997000I237500J0D01*
G01*
X170025500Y-92997000D01*
G75*
G02*
X170263000Y-93234500I0J-237500D01*
G01*
X170263000Y-93709500D01*
G75*
G02*
X170025500Y-93947000I-237500J0D01*
G01*
X169525500Y-93947000D01*
G75*
G02*
X169288000Y-93709500I0J237500D01*
G01*
G37*
%TD*%
%TO.C,R10*%
G36*
G01*
X124123000Y-94217500D02*
X124123000Y-93742500D01*
G75*
G02*
X124360500Y-93505000I237500J0D01*
G01*
X124860500Y-93505000D01*
G75*
G02*
X125098000Y-93742500I0J-237500D01*
G01*
X125098000Y-94217500D01*
G75*
G02*
X124860500Y-94455000I-237500J0D01*
G01*
X124360500Y-94455000D01*
G75*
G02*
X124123000Y-94217500I0J237500D01*
G01*
G37*
G36*
G01*
X122298000Y-94217500D02*
X122298000Y-93742500D01*
G75*
G02*
X122535500Y-93505000I237500J0D01*
G01*
X123035500Y-93505000D01*
G75*
G02*
X123273000Y-93742500I0J-237500D01*
G01*
X123273000Y-94217500D01*
G75*
G02*
X123035500Y-94455000I-237500J0D01*
G01*
X122535500Y-94455000D01*
G75*
G02*
X122298000Y-94217500I0J237500D01*
G01*
G37*
%TD*%
%TO.C,R9*%
G36*
G01*
X176994000Y-93234500D02*
X176994000Y-93709500D01*
G75*
G02*
X176756500Y-93947000I-237500J0D01*
G01*
X176256500Y-93947000D01*
G75*
G02*
X176019000Y-93709500I0J237500D01*
G01*
X176019000Y-93234500D01*
G75*
G02*
X176256500Y-92997000I237500J0D01*
G01*
X176756500Y-92997000D01*
G75*
G02*
X176994000Y-93234500I0J-237500D01*
G01*
G37*
G36*
G01*
X178819000Y-93234500D02*
X178819000Y-93709500D01*
G75*
G02*
X178581500Y-93947000I-237500J0D01*
G01*
X178081500Y-93947000D01*
G75*
G02*
X177844000Y-93709500I0J237500D01*
G01*
X177844000Y-93234500D01*
G75*
G02*
X178081500Y-92997000I237500J0D01*
G01*
X178581500Y-92997000D01*
G75*
G02*
X178819000Y-93234500I0J-237500D01*
G01*
G37*
%TD*%
%TO.C,R8*%
G36*
G01*
X129877000Y-93742500D02*
X129877000Y-94217500D01*
G75*
G02*
X129639500Y-94455000I-237500J0D01*
G01*
X129139500Y-94455000D01*
G75*
G02*
X128902000Y-94217500I0J237500D01*
G01*
X128902000Y-93742500D01*
G75*
G02*
X129139500Y-93505000I237500J0D01*
G01*
X129639500Y-93505000D01*
G75*
G02*
X129877000Y-93742500I0J-237500D01*
G01*
G37*
G36*
G01*
X131702000Y-93742500D02*
X131702000Y-94217500D01*
G75*
G02*
X131464500Y-94455000I-237500J0D01*
G01*
X130964500Y-94455000D01*
G75*
G02*
X130727000Y-94217500I0J237500D01*
G01*
X130727000Y-93742500D01*
G75*
G02*
X130964500Y-93505000I237500J0D01*
G01*
X131464500Y-93505000D01*
G75*
G02*
X131702000Y-93742500I0J-237500D01*
G01*
G37*
%TD*%
%TO.C,R7*%
G36*
G01*
X176994000Y-94758500D02*
X176994000Y-95233500D01*
G75*
G02*
X176756500Y-95471000I-237500J0D01*
G01*
X176256500Y-95471000D01*
G75*
G02*
X176019000Y-95233500I0J237500D01*
G01*
X176019000Y-94758500D01*
G75*
G02*
X176256500Y-94521000I237500J0D01*
G01*
X176756500Y-94521000D01*
G75*
G02*
X176994000Y-94758500I0J-237500D01*
G01*
G37*
G36*
G01*
X178819000Y-94758500D02*
X178819000Y-95233500D01*
G75*
G02*
X178581500Y-95471000I-237500J0D01*
G01*
X178081500Y-95471000D01*
G75*
G02*
X177844000Y-95233500I0J237500D01*
G01*
X177844000Y-94758500D01*
G75*
G02*
X178081500Y-94521000I237500J0D01*
G01*
X178581500Y-94521000D01*
G75*
G02*
X178819000Y-94758500I0J-237500D01*
G01*
G37*
%TD*%
%TO.C,R6*%
G36*
G01*
X129877000Y-95266500D02*
X129877000Y-95741500D01*
G75*
G02*
X129639500Y-95979000I-237500J0D01*
G01*
X129139500Y-95979000D01*
G75*
G02*
X128902000Y-95741500I0J237500D01*
G01*
X128902000Y-95266500D01*
G75*
G02*
X129139500Y-95029000I237500J0D01*
G01*
X129639500Y-95029000D01*
G75*
G02*
X129877000Y-95266500I0J-237500D01*
G01*
G37*
G36*
G01*
X131702000Y-95266500D02*
X131702000Y-95741500D01*
G75*
G02*
X131464500Y-95979000I-237500J0D01*
G01*
X130964500Y-95979000D01*
G75*
G02*
X130727000Y-95741500I0J237500D01*
G01*
X130727000Y-95266500D01*
G75*
G02*
X130964500Y-95029000I237500J0D01*
G01*
X131464500Y-95029000D01*
G75*
G02*
X131702000Y-95266500I0J-237500D01*
G01*
G37*
%TD*%
%TO.C,R5*%
G36*
G01*
X155873000Y-139937500D02*
X155873000Y-139462500D01*
G75*
G02*
X156110500Y-139225000I237500J0D01*
G01*
X156610500Y-139225000D01*
G75*
G02*
X156848000Y-139462500I0J-237500D01*
G01*
X156848000Y-139937500D01*
G75*
G02*
X156610500Y-140175000I-237500J0D01*
G01*
X156110500Y-140175000D01*
G75*
G02*
X155873000Y-139937500I0J237500D01*
G01*
G37*
G36*
G01*
X154048000Y-139937500D02*
X154048000Y-139462500D01*
G75*
G02*
X154285500Y-139225000I237500J0D01*
G01*
X154785500Y-139225000D01*
G75*
G02*
X155023000Y-139462500I0J-237500D01*
G01*
X155023000Y-139937500D01*
G75*
G02*
X154785500Y-140175000I-237500J0D01*
G01*
X154285500Y-140175000D01*
G75*
G02*
X154048000Y-139937500I0J237500D01*
G01*
G37*
%TD*%
%TO.C,R4*%
G36*
G01*
X161814500Y-140125000D02*
X162289500Y-140125000D01*
G75*
G02*
X162527000Y-140362500I0J-237500D01*
G01*
X162527000Y-140862500D01*
G75*
G02*
X162289500Y-141100000I-237500J0D01*
G01*
X161814500Y-141100000D01*
G75*
G02*
X161577000Y-140862500I0J237500D01*
G01*
X161577000Y-140362500D01*
G75*
G02*
X161814500Y-140125000I237500J0D01*
G01*
G37*
G36*
G01*
X161814500Y-138300000D02*
X162289500Y-138300000D01*
G75*
G02*
X162527000Y-138537500I0J-237500D01*
G01*
X162527000Y-139037500D01*
G75*
G02*
X162289500Y-139275000I-237500J0D01*
G01*
X161814500Y-139275000D01*
G75*
G02*
X161577000Y-139037500I0J237500D01*
G01*
X161577000Y-138537500D01*
G75*
G02*
X161814500Y-138300000I237500J0D01*
G01*
G37*
%TD*%
%TO.C,R3*%
G36*
G01*
X152383500Y-109176000D02*
X151908500Y-109176000D01*
G75*
G02*
X151671000Y-108938500I0J237500D01*
G01*
X151671000Y-108438500D01*
G75*
G02*
X151908500Y-108201000I237500J0D01*
G01*
X152383500Y-108201000D01*
G75*
G02*
X152621000Y-108438500I0J-237500D01*
G01*
X152621000Y-108938500D01*
G75*
G02*
X152383500Y-109176000I-237500J0D01*
G01*
G37*
G36*
G01*
X152383500Y-111001000D02*
X151908500Y-111001000D01*
G75*
G02*
X151671000Y-110763500I0J237500D01*
G01*
X151671000Y-110263500D01*
G75*
G02*
X151908500Y-110026000I237500J0D01*
G01*
X152383500Y-110026000D01*
G75*
G02*
X152621000Y-110263500I0J-237500D01*
G01*
X152621000Y-110763500D01*
G75*
G02*
X152383500Y-111001000I-237500J0D01*
G01*
G37*
%TD*%
%TO.C,R2*%
G36*
G01*
X155431500Y-109176000D02*
X154956500Y-109176000D01*
G75*
G02*
X154719000Y-108938500I0J237500D01*
G01*
X154719000Y-108438500D01*
G75*
G02*
X154956500Y-108201000I237500J0D01*
G01*
X155431500Y-108201000D01*
G75*
G02*
X155669000Y-108438500I0J-237500D01*
G01*
X155669000Y-108938500D01*
G75*
G02*
X155431500Y-109176000I-237500J0D01*
G01*
G37*
G36*
G01*
X155431500Y-111001000D02*
X154956500Y-111001000D01*
G75*
G02*
X154719000Y-110763500I0J237500D01*
G01*
X154719000Y-110263500D01*
G75*
G02*
X154956500Y-110026000I237500J0D01*
G01*
X155431500Y-110026000D01*
G75*
G02*
X155669000Y-110263500I0J-237500D01*
G01*
X155669000Y-110763500D01*
G75*
G02*
X155431500Y-111001000I-237500J0D01*
G01*
G37*
%TD*%
%TO.C,R1*%
G36*
G01*
X153907500Y-109176000D02*
X153432500Y-109176000D01*
G75*
G02*
X153195000Y-108938500I0J237500D01*
G01*
X153195000Y-108438500D01*
G75*
G02*
X153432500Y-108201000I237500J0D01*
G01*
X153907500Y-108201000D01*
G75*
G02*
X154145000Y-108438500I0J-237500D01*
G01*
X154145000Y-108938500D01*
G75*
G02*
X153907500Y-109176000I-237500J0D01*
G01*
G37*
G36*
G01*
X153907500Y-111001000D02*
X153432500Y-111001000D01*
G75*
G02*
X153195000Y-110763500I0J237500D01*
G01*
X153195000Y-110263500D01*
G75*
G02*
X153432500Y-110026000I237500J0D01*
G01*
X153907500Y-110026000D01*
G75*
G02*
X154145000Y-110263500I0J-237500D01*
G01*
X154145000Y-110763500D01*
G75*
G02*
X153907500Y-111001000I-237500J0D01*
G01*
G37*
%TD*%
%TO.C,C48*%
G36*
G01*
X176220000Y-131428500D02*
X176220000Y-130953500D01*
G75*
G02*
X176457500Y-130716000I237500J0D01*
G01*
X177057500Y-130716000D01*
G75*
G02*
X177295000Y-130953500I0J-237500D01*
G01*
X177295000Y-131428500D01*
G75*
G02*
X177057500Y-131666000I-237500J0D01*
G01*
X176457500Y-131666000D01*
G75*
G02*
X176220000Y-131428500I0J237500D01*
G01*
G37*
G36*
G01*
X174495000Y-131428500D02*
X174495000Y-130953500D01*
G75*
G02*
X174732500Y-130716000I237500J0D01*
G01*
X175332500Y-130716000D01*
G75*
G02*
X175570000Y-130953500I0J-237500D01*
G01*
X175570000Y-131428500D01*
G75*
G02*
X175332500Y-131666000I-237500J0D01*
G01*
X174732500Y-131666000D01*
G75*
G02*
X174495000Y-131428500I0J237500D01*
G01*
G37*
%TD*%
%TO.C,C45*%
G36*
G01*
X197722500Y-106355000D02*
X197247500Y-106355000D01*
G75*
G02*
X197010000Y-106117500I0J237500D01*
G01*
X197010000Y-105517500D01*
G75*
G02*
X197247500Y-105280000I237500J0D01*
G01*
X197722500Y-105280000D01*
G75*
G02*
X197960000Y-105517500I0J-237500D01*
G01*
X197960000Y-106117500D01*
G75*
G02*
X197722500Y-106355000I-237500J0D01*
G01*
G37*
G36*
G01*
X197722500Y-108080000D02*
X197247500Y-108080000D01*
G75*
G02*
X197010000Y-107842500I0J237500D01*
G01*
X197010000Y-107242500D01*
G75*
G02*
X197247500Y-107005000I237500J0D01*
G01*
X197722500Y-107005000D01*
G75*
G02*
X197960000Y-107242500I0J-237500D01*
G01*
X197960000Y-107842500D01*
G75*
G02*
X197722500Y-108080000I-237500J0D01*
G01*
G37*
%TD*%
%TO.C,C44*%
G36*
G01*
X195255000Y-117872500D02*
X195255000Y-118347500D01*
G75*
G02*
X195017500Y-118585000I-237500J0D01*
G01*
X194417500Y-118585000D01*
G75*
G02*
X194180000Y-118347500I0J237500D01*
G01*
X194180000Y-117872500D01*
G75*
G02*
X194417500Y-117635000I237500J0D01*
G01*
X195017500Y-117635000D01*
G75*
G02*
X195255000Y-117872500I0J-237500D01*
G01*
G37*
G36*
G01*
X196980000Y-117872500D02*
X196980000Y-118347500D01*
G75*
G02*
X196742500Y-118585000I-237500J0D01*
G01*
X196142500Y-118585000D01*
G75*
G02*
X195905000Y-118347500I0J237500D01*
G01*
X195905000Y-117872500D01*
G75*
G02*
X196142500Y-117635000I237500J0D01*
G01*
X196742500Y-117635000D01*
G75*
G02*
X196980000Y-117872500I0J-237500D01*
G01*
G37*
%TD*%
%TO.C,C42*%
G36*
G01*
X186530000Y-95435000D02*
X185580000Y-95435000D01*
G75*
G02*
X185330000Y-95185000I0J250000D01*
G01*
X185330000Y-94510000D01*
G75*
G02*
X185580000Y-94260000I250000J0D01*
G01*
X186530000Y-94260000D01*
G75*
G02*
X186780000Y-94510000I0J-250000D01*
G01*
X186780000Y-95185000D01*
G75*
G02*
X186530000Y-95435000I-250000J0D01*
G01*
G37*
G36*
G01*
X186530000Y-97510000D02*
X185580000Y-97510000D01*
G75*
G02*
X185330000Y-97260000I0J250000D01*
G01*
X185330000Y-96585000D01*
G75*
G02*
X185580000Y-96335000I250000J0D01*
G01*
X186530000Y-96335000D01*
G75*
G02*
X186780000Y-96585000I0J-250000D01*
G01*
X186780000Y-97260000D01*
G75*
G02*
X186530000Y-97510000I-250000J0D01*
G01*
G37*
%TD*%
%TO.C,C40*%
G36*
G01*
X176220000Y-101202500D02*
X176220000Y-100727500D01*
G75*
G02*
X176457500Y-100490000I237500J0D01*
G01*
X177057500Y-100490000D01*
G75*
G02*
X177295000Y-100727500I0J-237500D01*
G01*
X177295000Y-101202500D01*
G75*
G02*
X177057500Y-101440000I-237500J0D01*
G01*
X176457500Y-101440000D01*
G75*
G02*
X176220000Y-101202500I0J237500D01*
G01*
G37*
G36*
G01*
X174495000Y-101202500D02*
X174495000Y-100727500D01*
G75*
G02*
X174732500Y-100490000I237500J0D01*
G01*
X175332500Y-100490000D01*
G75*
G02*
X175570000Y-100727500I0J-237500D01*
G01*
X175570000Y-101202500D01*
G75*
G02*
X175332500Y-101440000I-237500J0D01*
G01*
X174732500Y-101440000D01*
G75*
G02*
X174495000Y-101202500I0J237500D01*
G01*
G37*
%TD*%
%TO.C,C37*%
G36*
G01*
X119309000Y-69104500D02*
X119309000Y-69579500D01*
G75*
G02*
X119071500Y-69817000I-237500J0D01*
G01*
X118471500Y-69817000D01*
G75*
G02*
X118234000Y-69579500I0J237500D01*
G01*
X118234000Y-69104500D01*
G75*
G02*
X118471500Y-68867000I237500J0D01*
G01*
X119071500Y-68867000D01*
G75*
G02*
X119309000Y-69104500I0J-237500D01*
G01*
G37*
G36*
G01*
X121034000Y-69104500D02*
X121034000Y-69579500D01*
G75*
G02*
X120796500Y-69817000I-237500J0D01*
G01*
X120196500Y-69817000D01*
G75*
G02*
X119959000Y-69579500I0J237500D01*
G01*
X119959000Y-69104500D01*
G75*
G02*
X120196500Y-68867000I237500J0D01*
G01*
X120796500Y-68867000D01*
G75*
G02*
X121034000Y-69104500I0J-237500D01*
G01*
G37*
%TD*%
%TO.C,C36*%
G36*
G01*
X131207500Y-71445000D02*
X131682500Y-71445000D01*
G75*
G02*
X131920000Y-71682500I0J-237500D01*
G01*
X131920000Y-72282500D01*
G75*
G02*
X131682500Y-72520000I-237500J0D01*
G01*
X131207500Y-72520000D01*
G75*
G02*
X130970000Y-72282500I0J237500D01*
G01*
X130970000Y-71682500D01*
G75*
G02*
X131207500Y-71445000I237500J0D01*
G01*
G37*
G36*
G01*
X131207500Y-69720000D02*
X131682500Y-69720000D01*
G75*
G02*
X131920000Y-69957500I0J-237500D01*
G01*
X131920000Y-70557500D01*
G75*
G02*
X131682500Y-70795000I-237500J0D01*
G01*
X131207500Y-70795000D01*
G75*
G02*
X130970000Y-70557500I0J237500D01*
G01*
X130970000Y-69957500D01*
G75*
G02*
X131207500Y-69720000I237500J0D01*
G01*
G37*
%TD*%
%TO.C,C34*%
G36*
G01*
X108770000Y-80170000D02*
X108770000Y-81120000D01*
G75*
G02*
X108520000Y-81370000I-250000J0D01*
G01*
X107845000Y-81370000D01*
G75*
G02*
X107595000Y-81120000I0J250000D01*
G01*
X107595000Y-80170000D01*
G75*
G02*
X107845000Y-79920000I250000J0D01*
G01*
X108520000Y-79920000D01*
G75*
G02*
X108770000Y-80170000I0J-250000D01*
G01*
G37*
G36*
G01*
X110845000Y-80170000D02*
X110845000Y-81120000D01*
G75*
G02*
X110595000Y-81370000I-250000J0D01*
G01*
X109920000Y-81370000D01*
G75*
G02*
X109670000Y-81120000I0J250000D01*
G01*
X109670000Y-80170000D01*
G75*
G02*
X109920000Y-79920000I250000J0D01*
G01*
X110595000Y-79920000D01*
G75*
G02*
X110845000Y-80170000I0J-250000D01*
G01*
G37*
%TD*%
%TO.C,C32*%
G36*
G01*
X114537500Y-89845000D02*
X114062500Y-89845000D01*
G75*
G02*
X113825000Y-89607500I0J237500D01*
G01*
X113825000Y-89007500D01*
G75*
G02*
X114062500Y-88770000I237500J0D01*
G01*
X114537500Y-88770000D01*
G75*
G02*
X114775000Y-89007500I0J-237500D01*
G01*
X114775000Y-89607500D01*
G75*
G02*
X114537500Y-89845000I-237500J0D01*
G01*
G37*
G36*
G01*
X114537500Y-91570000D02*
X114062500Y-91570000D01*
G75*
G02*
X113825000Y-91332500I0J237500D01*
G01*
X113825000Y-90732500D01*
G75*
G02*
X114062500Y-90495000I237500J0D01*
G01*
X114537500Y-90495000D01*
G75*
G02*
X114775000Y-90732500I0J-237500D01*
G01*
X114775000Y-91332500D01*
G75*
G02*
X114537500Y-91570000I-237500J0D01*
G01*
G37*
%TD*%
%TO.C,C29*%
G36*
G01*
X142931000Y-69104500D02*
X142931000Y-69579500D01*
G75*
G02*
X142693500Y-69817000I-237500J0D01*
G01*
X142093500Y-69817000D01*
G75*
G02*
X141856000Y-69579500I0J237500D01*
G01*
X141856000Y-69104500D01*
G75*
G02*
X142093500Y-68867000I237500J0D01*
G01*
X142693500Y-68867000D01*
G75*
G02*
X142931000Y-69104500I0J-237500D01*
G01*
G37*
G36*
G01*
X144656000Y-69104500D02*
X144656000Y-69579500D01*
G75*
G02*
X144418500Y-69817000I-237500J0D01*
G01*
X143818500Y-69817000D01*
G75*
G02*
X143581000Y-69579500I0J237500D01*
G01*
X143581000Y-69104500D01*
G75*
G02*
X143818500Y-68867000I237500J0D01*
G01*
X144418500Y-68867000D01*
G75*
G02*
X144656000Y-69104500I0J-237500D01*
G01*
G37*
%TD*%
%TO.C,C28*%
G36*
G01*
X154702500Y-71445000D02*
X155177500Y-71445000D01*
G75*
G02*
X155415000Y-71682500I0J-237500D01*
G01*
X155415000Y-72282500D01*
G75*
G02*
X155177500Y-72520000I-237500J0D01*
G01*
X154702500Y-72520000D01*
G75*
G02*
X154465000Y-72282500I0J237500D01*
G01*
X154465000Y-71682500D01*
G75*
G02*
X154702500Y-71445000I237500J0D01*
G01*
G37*
G36*
G01*
X154702500Y-69720000D02*
X155177500Y-69720000D01*
G75*
G02*
X155415000Y-69957500I0J-237500D01*
G01*
X155415000Y-70557500D01*
G75*
G02*
X155177500Y-70795000I-237500J0D01*
G01*
X154702500Y-70795000D01*
G75*
G02*
X154465000Y-70557500I0J237500D01*
G01*
X154465000Y-69957500D01*
G75*
G02*
X154702500Y-69720000I237500J0D01*
G01*
G37*
%TD*%
%TO.C,C26*%
G36*
G01*
X132265000Y-80170000D02*
X132265000Y-81120000D01*
G75*
G02*
X132015000Y-81370000I-250000J0D01*
G01*
X131340000Y-81370000D01*
G75*
G02*
X131090000Y-81120000I0J250000D01*
G01*
X131090000Y-80170000D01*
G75*
G02*
X131340000Y-79920000I250000J0D01*
G01*
X132015000Y-79920000D01*
G75*
G02*
X132265000Y-80170000I0J-250000D01*
G01*
G37*
G36*
G01*
X134340000Y-80170000D02*
X134340000Y-81120000D01*
G75*
G02*
X134090000Y-81370000I-250000J0D01*
G01*
X133415000Y-81370000D01*
G75*
G02*
X133165000Y-81120000I0J250000D01*
G01*
X133165000Y-80170000D01*
G75*
G02*
X133415000Y-79920000I250000J0D01*
G01*
X134090000Y-79920000D01*
G75*
G02*
X134340000Y-80170000I0J-250000D01*
G01*
G37*
%TD*%
%TO.C,C24*%
G36*
G01*
X144763500Y-89845000D02*
X144288500Y-89845000D01*
G75*
G02*
X144051000Y-89607500I0J237500D01*
G01*
X144051000Y-89007500D01*
G75*
G02*
X144288500Y-88770000I237500J0D01*
G01*
X144763500Y-88770000D01*
G75*
G02*
X145001000Y-89007500I0J-237500D01*
G01*
X145001000Y-89607500D01*
G75*
G02*
X144763500Y-89845000I-237500J0D01*
G01*
G37*
G36*
G01*
X144763500Y-91570000D02*
X144288500Y-91570000D01*
G75*
G02*
X144051000Y-91332500I0J237500D01*
G01*
X144051000Y-90732500D01*
G75*
G02*
X144288500Y-90495000I237500J0D01*
G01*
X144763500Y-90495000D01*
G75*
G02*
X145001000Y-90732500I0J-237500D01*
G01*
X145001000Y-91332500D01*
G75*
G02*
X144763500Y-91570000I-237500J0D01*
G01*
G37*
%TD*%
%TO.C,C21*%
G36*
G01*
X166553000Y-69104500D02*
X166553000Y-69579500D01*
G75*
G02*
X166315500Y-69817000I-237500J0D01*
G01*
X165715500Y-69817000D01*
G75*
G02*
X165478000Y-69579500I0J237500D01*
G01*
X165478000Y-69104500D01*
G75*
G02*
X165715500Y-68867000I237500J0D01*
G01*
X166315500Y-68867000D01*
G75*
G02*
X166553000Y-69104500I0J-237500D01*
G01*
G37*
G36*
G01*
X168278000Y-69104500D02*
X168278000Y-69579500D01*
G75*
G02*
X168040500Y-69817000I-237500J0D01*
G01*
X167440500Y-69817000D01*
G75*
G02*
X167203000Y-69579500I0J237500D01*
G01*
X167203000Y-69104500D01*
G75*
G02*
X167440500Y-68867000I237500J0D01*
G01*
X168040500Y-68867000D01*
G75*
G02*
X168278000Y-69104500I0J-237500D01*
G01*
G37*
%TD*%
%TO.C,C20*%
G36*
G01*
X178197500Y-71445000D02*
X178672500Y-71445000D01*
G75*
G02*
X178910000Y-71682500I0J-237500D01*
G01*
X178910000Y-72282500D01*
G75*
G02*
X178672500Y-72520000I-237500J0D01*
G01*
X178197500Y-72520000D01*
G75*
G02*
X177960000Y-72282500I0J237500D01*
G01*
X177960000Y-71682500D01*
G75*
G02*
X178197500Y-71445000I237500J0D01*
G01*
G37*
G36*
G01*
X178197500Y-69720000D02*
X178672500Y-69720000D01*
G75*
G02*
X178910000Y-69957500I0J-237500D01*
G01*
X178910000Y-70557500D01*
G75*
G02*
X178672500Y-70795000I-237500J0D01*
G01*
X178197500Y-70795000D01*
G75*
G02*
X177960000Y-70557500I0J237500D01*
G01*
X177960000Y-69957500D01*
G75*
G02*
X178197500Y-69720000I237500J0D01*
G01*
G37*
%TD*%
%TO.C,C18*%
G36*
G01*
X155760000Y-80170000D02*
X155760000Y-81120000D01*
G75*
G02*
X155510000Y-81370000I-250000J0D01*
G01*
X154835000Y-81370000D01*
G75*
G02*
X154585000Y-81120000I0J250000D01*
G01*
X154585000Y-80170000D01*
G75*
G02*
X154835000Y-79920000I250000J0D01*
G01*
X155510000Y-79920000D01*
G75*
G02*
X155760000Y-80170000I0J-250000D01*
G01*
G37*
G36*
G01*
X157835000Y-80170000D02*
X157835000Y-81120000D01*
G75*
G02*
X157585000Y-81370000I-250000J0D01*
G01*
X156910000Y-81370000D01*
G75*
G02*
X156660000Y-81120000I0J250000D01*
G01*
X156660000Y-80170000D01*
G75*
G02*
X156910000Y-79920000I250000J0D01*
G01*
X157585000Y-79920000D01*
G75*
G02*
X157835000Y-80170000I0J-250000D01*
G01*
G37*
%TD*%
%TO.C,C16*%
G36*
G01*
X161527500Y-89845000D02*
X161052500Y-89845000D01*
G75*
G02*
X160815000Y-89607500I0J237500D01*
G01*
X160815000Y-89007500D01*
G75*
G02*
X161052500Y-88770000I237500J0D01*
G01*
X161527500Y-88770000D01*
G75*
G02*
X161765000Y-89007500I0J-237500D01*
G01*
X161765000Y-89607500D01*
G75*
G02*
X161527500Y-89845000I-237500J0D01*
G01*
G37*
G36*
G01*
X161527500Y-91570000D02*
X161052500Y-91570000D01*
G75*
G02*
X160815000Y-91332500I0J237500D01*
G01*
X160815000Y-90732500D01*
G75*
G02*
X161052500Y-90495000I237500J0D01*
G01*
X161527500Y-90495000D01*
G75*
G02*
X161765000Y-90732500I0J-237500D01*
G01*
X161765000Y-91332500D01*
G75*
G02*
X161527500Y-91570000I-237500J0D01*
G01*
G37*
%TD*%
%TO.C,C13*%
G36*
G01*
X190175000Y-69104500D02*
X190175000Y-69579500D01*
G75*
G02*
X189937500Y-69817000I-237500J0D01*
G01*
X189337500Y-69817000D01*
G75*
G02*
X189100000Y-69579500I0J237500D01*
G01*
X189100000Y-69104500D01*
G75*
G02*
X189337500Y-68867000I237500J0D01*
G01*
X189937500Y-68867000D01*
G75*
G02*
X190175000Y-69104500I0J-237500D01*
G01*
G37*
G36*
G01*
X191900000Y-69104500D02*
X191900000Y-69579500D01*
G75*
G02*
X191662500Y-69817000I-237500J0D01*
G01*
X191062500Y-69817000D01*
G75*
G02*
X190825000Y-69579500I0J237500D01*
G01*
X190825000Y-69104500D01*
G75*
G02*
X191062500Y-68867000I237500J0D01*
G01*
X191662500Y-68867000D01*
G75*
G02*
X191900000Y-69104500I0J-237500D01*
G01*
G37*
%TD*%
%TO.C,C12*%
G36*
G01*
X201692500Y-71445000D02*
X202167500Y-71445000D01*
G75*
G02*
X202405000Y-71682500I0J-237500D01*
G01*
X202405000Y-72282500D01*
G75*
G02*
X202167500Y-72520000I-237500J0D01*
G01*
X201692500Y-72520000D01*
G75*
G02*
X201455000Y-72282500I0J237500D01*
G01*
X201455000Y-71682500D01*
G75*
G02*
X201692500Y-71445000I237500J0D01*
G01*
G37*
G36*
G01*
X201692500Y-69720000D02*
X202167500Y-69720000D01*
G75*
G02*
X202405000Y-69957500I0J-237500D01*
G01*
X202405000Y-70557500D01*
G75*
G02*
X202167500Y-70795000I-237500J0D01*
G01*
X201692500Y-70795000D01*
G75*
G02*
X201455000Y-70557500I0J237500D01*
G01*
X201455000Y-69957500D01*
G75*
G02*
X201692500Y-69720000I237500J0D01*
G01*
G37*
%TD*%
%TO.C,C10*%
G36*
G01*
X179255000Y-80170000D02*
X179255000Y-81120000D01*
G75*
G02*
X179005000Y-81370000I-250000J0D01*
G01*
X178330000Y-81370000D01*
G75*
G02*
X178080000Y-81120000I0J250000D01*
G01*
X178080000Y-80170000D01*
G75*
G02*
X178330000Y-79920000I250000J0D01*
G01*
X179005000Y-79920000D01*
G75*
G02*
X179255000Y-80170000I0J-250000D01*
G01*
G37*
G36*
G01*
X181330000Y-80170000D02*
X181330000Y-81120000D01*
G75*
G02*
X181080000Y-81370000I-250000J0D01*
G01*
X180405000Y-81370000D01*
G75*
G02*
X180155000Y-81120000I0J250000D01*
G01*
X180155000Y-80170000D01*
G75*
G02*
X180405000Y-79920000I250000J0D01*
G01*
X181080000Y-79920000D01*
G75*
G02*
X181330000Y-80170000I0J-250000D01*
G01*
G37*
%TD*%
%TO.C,C8*%
G36*
G01*
X191753500Y-89845000D02*
X191278500Y-89845000D01*
G75*
G02*
X191041000Y-89607500I0J237500D01*
G01*
X191041000Y-89007500D01*
G75*
G02*
X191278500Y-88770000I237500J0D01*
G01*
X191753500Y-88770000D01*
G75*
G02*
X191991000Y-89007500I0J-237500D01*
G01*
X191991000Y-89607500D01*
G75*
G02*
X191753500Y-89845000I-237500J0D01*
G01*
G37*
G36*
G01*
X191753500Y-91570000D02*
X191278500Y-91570000D01*
G75*
G02*
X191041000Y-91332500I0J237500D01*
G01*
X191041000Y-90732500D01*
G75*
G02*
X191278500Y-90495000I237500J0D01*
G01*
X191753500Y-90495000D01*
G75*
G02*
X191991000Y-90732500I0J-237500D01*
G01*
X191991000Y-91332500D01*
G75*
G02*
X191753500Y-91570000I-237500J0D01*
G01*
G37*
%TD*%
%TO.C,C7*%
G36*
G01*
X147100000Y-124190000D02*
X147100000Y-122190000D01*
G75*
G02*
X147350000Y-121940000I250000J0D01*
G01*
X150850000Y-121940000D01*
G75*
G02*
X151100000Y-122190000I0J-250000D01*
G01*
X151100000Y-124190000D01*
G75*
G02*
X150850000Y-124440000I-250000J0D01*
G01*
X147350000Y-124440000D01*
G75*
G02*
X147100000Y-124190000I0J250000D01*
G01*
G37*
G36*
G01*
X141000000Y-124190000D02*
X141000000Y-122190000D01*
G75*
G02*
X141250000Y-121940000I250000J0D01*
G01*
X144750000Y-121940000D01*
G75*
G02*
X145000000Y-122190000I0J-250000D01*
G01*
X145000000Y-124190000D01*
G75*
G02*
X144750000Y-124440000I-250000J0D01*
G01*
X141250000Y-124440000D01*
G75*
G02*
X141000000Y-124190000I0J250000D01*
G01*
G37*
%TD*%
%TO.C,C5*%
G36*
G01*
X144470000Y-141207500D02*
X144470000Y-140732500D01*
G75*
G02*
X144707500Y-140495000I237500J0D01*
G01*
X145307500Y-140495000D01*
G75*
G02*
X145545000Y-140732500I0J-237500D01*
G01*
X145545000Y-141207500D01*
G75*
G02*
X145307500Y-141445000I-237500J0D01*
G01*
X144707500Y-141445000D01*
G75*
G02*
X144470000Y-141207500I0J237500D01*
G01*
G37*
G36*
G01*
X142745000Y-141207500D02*
X142745000Y-140732500D01*
G75*
G02*
X142982500Y-140495000I237500J0D01*
G01*
X143582500Y-140495000D01*
G75*
G02*
X143820000Y-140732500I0J-237500D01*
G01*
X143820000Y-141207500D01*
G75*
G02*
X143582500Y-141445000I-237500J0D01*
G01*
X142982500Y-141445000D01*
G75*
G02*
X142745000Y-141207500I0J237500D01*
G01*
G37*
%TD*%
%TO.C,C1*%
G36*
G01*
X144595000Y-129380000D02*
X144595000Y-128430000D01*
G75*
G02*
X144845000Y-128180000I250000J0D01*
G01*
X145520000Y-128180000D01*
G75*
G02*
X145770000Y-128430000I0J-250000D01*
G01*
X145770000Y-129380000D01*
G75*
G02*
X145520000Y-129630000I-250000J0D01*
G01*
X144845000Y-129630000D01*
G75*
G02*
X144595000Y-129380000I0J250000D01*
G01*
G37*
G36*
G01*
X142520000Y-129380000D02*
X142520000Y-128430000D01*
G75*
G02*
X142770000Y-128180000I250000J0D01*
G01*
X143445000Y-128180000D01*
G75*
G02*
X143695000Y-128430000I0J-250000D01*
G01*
X143695000Y-129380000D01*
G75*
G02*
X143445000Y-129630000I-250000J0D01*
G01*
X142770000Y-129630000D01*
G75*
G02*
X142520000Y-129380000I0J250000D01*
G01*
G37*
%TD*%
%TO.C,C3*%
G36*
G01*
X115935000Y-129125000D02*
X113935000Y-129125000D01*
G75*
G02*
X113685000Y-128875000I0J250000D01*
G01*
X113685000Y-125375000D01*
G75*
G02*
X113935000Y-125125000I250000J0D01*
G01*
X115935000Y-125125000D01*
G75*
G02*
X116185000Y-125375000I0J-250000D01*
G01*
X116185000Y-128875000D01*
G75*
G02*
X115935000Y-129125000I-250000J0D01*
G01*
G37*
G36*
G01*
X115935000Y-135225000D02*
X113935000Y-135225000D01*
G75*
G02*
X113685000Y-134975000I0J250000D01*
G01*
X113685000Y-131475000D01*
G75*
G02*
X113935000Y-131225000I250000J0D01*
G01*
X115935000Y-131225000D01*
G75*
G02*
X116185000Y-131475000I0J-250000D01*
G01*
X116185000Y-134975000D01*
G75*
G02*
X115935000Y-135225000I-250000J0D01*
G01*
G37*
%TD*%
%TO.C,C4*%
G36*
G01*
X144595000Y-139540000D02*
X144595000Y-138590000D01*
G75*
G02*
X144845000Y-138340000I250000J0D01*
G01*
X145520000Y-138340000D01*
G75*
G02*
X145770000Y-138590000I0J-250000D01*
G01*
X145770000Y-139540000D01*
G75*
G02*
X145520000Y-139790000I-250000J0D01*
G01*
X144845000Y-139790000D01*
G75*
G02*
X144595000Y-139540000I0J250000D01*
G01*
G37*
G36*
G01*
X142520000Y-139540000D02*
X142520000Y-138590000D01*
G75*
G02*
X142770000Y-138340000I250000J0D01*
G01*
X143445000Y-138340000D01*
G75*
G02*
X143695000Y-138590000I0J-250000D01*
G01*
X143695000Y-139540000D01*
G75*
G02*
X143445000Y-139790000I-250000J0D01*
G01*
X142770000Y-139790000D01*
G75*
G02*
X142520000Y-139540000I0J250000D01*
G01*
G37*
%TD*%
%TO.C,C9*%
G36*
G01*
X179255000Y-82075000D02*
X179255000Y-83025000D01*
G75*
G02*
X179005000Y-83275000I-250000J0D01*
G01*
X178330000Y-83275000D01*
G75*
G02*
X178080000Y-83025000I0J250000D01*
G01*
X178080000Y-82075000D01*
G75*
G02*
X178330000Y-81825000I250000J0D01*
G01*
X179005000Y-81825000D01*
G75*
G02*
X179255000Y-82075000I0J-250000D01*
G01*
G37*
G36*
G01*
X181330000Y-82075000D02*
X181330000Y-83025000D01*
G75*
G02*
X181080000Y-83275000I-250000J0D01*
G01*
X180405000Y-83275000D01*
G75*
G02*
X180155000Y-83025000I0J250000D01*
G01*
X180155000Y-82075000D01*
G75*
G02*
X180405000Y-81825000I250000J0D01*
G01*
X181080000Y-81825000D01*
G75*
G02*
X181330000Y-82075000I0J-250000D01*
G01*
G37*
%TD*%
%TO.C,C11*%
G36*
G01*
X192007500Y-72065000D02*
X191532500Y-72065000D01*
G75*
G02*
X191295000Y-71827500I0J237500D01*
G01*
X191295000Y-71227500D01*
G75*
G02*
X191532500Y-70990000I237500J0D01*
G01*
X192007500Y-70990000D01*
G75*
G02*
X192245000Y-71227500I0J-237500D01*
G01*
X192245000Y-71827500D01*
G75*
G02*
X192007500Y-72065000I-237500J0D01*
G01*
G37*
G36*
G01*
X192007500Y-73790000D02*
X191532500Y-73790000D01*
G75*
G02*
X191295000Y-73552500I0J237500D01*
G01*
X191295000Y-72952500D01*
G75*
G02*
X191532500Y-72715000I237500J0D01*
G01*
X192007500Y-72715000D01*
G75*
G02*
X192245000Y-72952500I0J-237500D01*
G01*
X192245000Y-73552500D01*
G75*
G02*
X192007500Y-73790000I-237500J0D01*
G01*
G37*
%TD*%
%TO.C,C14*%
G36*
G01*
X195850000Y-72170000D02*
X197850000Y-72170000D01*
G75*
G02*
X198100000Y-72420000I0J-250000D01*
G01*
X198100000Y-75920000D01*
G75*
G02*
X197850000Y-76170000I-250000J0D01*
G01*
X195850000Y-76170000D01*
G75*
G02*
X195600000Y-75920000I0J250000D01*
G01*
X195600000Y-72420000D01*
G75*
G02*
X195850000Y-72170000I250000J0D01*
G01*
G37*
G36*
G01*
X195850000Y-66070000D02*
X197850000Y-66070000D01*
G75*
G02*
X198100000Y-66320000I0J-250000D01*
G01*
X198100000Y-69820000D01*
G75*
G02*
X197850000Y-70070000I-250000J0D01*
G01*
X195850000Y-70070000D01*
G75*
G02*
X195600000Y-69820000I0J250000D01*
G01*
X195600000Y-66320000D01*
G75*
G02*
X195850000Y-66070000I250000J0D01*
G01*
G37*
%TD*%
%TO.C,C15*%
G36*
G01*
X180777000Y-71898500D02*
X180777000Y-72373500D01*
G75*
G02*
X180539500Y-72611000I-237500J0D01*
G01*
X179939500Y-72611000D01*
G75*
G02*
X179702000Y-72373500I0J237500D01*
G01*
X179702000Y-71898500D01*
G75*
G02*
X179939500Y-71661000I237500J0D01*
G01*
X180539500Y-71661000D01*
G75*
G02*
X180777000Y-71898500I0J-237500D01*
G01*
G37*
G36*
G01*
X182502000Y-71898500D02*
X182502000Y-72373500D01*
G75*
G02*
X182264500Y-72611000I-237500J0D01*
G01*
X181664500Y-72611000D01*
G75*
G02*
X181427000Y-72373500I0J237500D01*
G01*
X181427000Y-71898500D01*
G75*
G02*
X181664500Y-71661000I237500J0D01*
G01*
X182264500Y-71661000D01*
G75*
G02*
X182502000Y-71898500I0J-237500D01*
G01*
G37*
%TD*%
%TO.C,C17*%
G36*
G01*
X155760000Y-82075000D02*
X155760000Y-83025000D01*
G75*
G02*
X155510000Y-83275000I-250000J0D01*
G01*
X154835000Y-83275000D01*
G75*
G02*
X154585000Y-83025000I0J250000D01*
G01*
X154585000Y-82075000D01*
G75*
G02*
X154835000Y-81825000I250000J0D01*
G01*
X155510000Y-81825000D01*
G75*
G02*
X155760000Y-82075000I0J-250000D01*
G01*
G37*
G36*
G01*
X157835000Y-82075000D02*
X157835000Y-83025000D01*
G75*
G02*
X157585000Y-83275000I-250000J0D01*
G01*
X156910000Y-83275000D01*
G75*
G02*
X156660000Y-83025000I0J250000D01*
G01*
X156660000Y-82075000D01*
G75*
G02*
X156910000Y-81825000I250000J0D01*
G01*
X157585000Y-81825000D01*
G75*
G02*
X157835000Y-82075000I0J-250000D01*
G01*
G37*
%TD*%
%TO.C,C19*%
G36*
G01*
X168385500Y-72065000D02*
X167910500Y-72065000D01*
G75*
G02*
X167673000Y-71827500I0J237500D01*
G01*
X167673000Y-71227500D01*
G75*
G02*
X167910500Y-70990000I237500J0D01*
G01*
X168385500Y-70990000D01*
G75*
G02*
X168623000Y-71227500I0J-237500D01*
G01*
X168623000Y-71827500D01*
G75*
G02*
X168385500Y-72065000I-237500J0D01*
G01*
G37*
G36*
G01*
X168385500Y-73790000D02*
X167910500Y-73790000D01*
G75*
G02*
X167673000Y-73552500I0J237500D01*
G01*
X167673000Y-72952500D01*
G75*
G02*
X167910500Y-72715000I237500J0D01*
G01*
X168385500Y-72715000D01*
G75*
G02*
X168623000Y-72952500I0J-237500D01*
G01*
X168623000Y-73552500D01*
G75*
G02*
X168385500Y-73790000I-237500J0D01*
G01*
G37*
%TD*%
%TO.C,C22*%
G36*
G01*
X172355000Y-72170000D02*
X174355000Y-72170000D01*
G75*
G02*
X174605000Y-72420000I0J-250000D01*
G01*
X174605000Y-75920000D01*
G75*
G02*
X174355000Y-76170000I-250000J0D01*
G01*
X172355000Y-76170000D01*
G75*
G02*
X172105000Y-75920000I0J250000D01*
G01*
X172105000Y-72420000D01*
G75*
G02*
X172355000Y-72170000I250000J0D01*
G01*
G37*
G36*
G01*
X172355000Y-66070000D02*
X174355000Y-66070000D01*
G75*
G02*
X174605000Y-66320000I0J-250000D01*
G01*
X174605000Y-69820000D01*
G75*
G02*
X174355000Y-70070000I-250000J0D01*
G01*
X172355000Y-70070000D01*
G75*
G02*
X172105000Y-69820000I0J250000D01*
G01*
X172105000Y-66320000D01*
G75*
G02*
X172355000Y-66070000I250000J0D01*
G01*
G37*
%TD*%
%TO.C,C23*%
G36*
G01*
X157409000Y-71898500D02*
X157409000Y-72373500D01*
G75*
G02*
X157171500Y-72611000I-237500J0D01*
G01*
X156571500Y-72611000D01*
G75*
G02*
X156334000Y-72373500I0J237500D01*
G01*
X156334000Y-71898500D01*
G75*
G02*
X156571500Y-71661000I237500J0D01*
G01*
X157171500Y-71661000D01*
G75*
G02*
X157409000Y-71898500I0J-237500D01*
G01*
G37*
G36*
G01*
X159134000Y-71898500D02*
X159134000Y-72373500D01*
G75*
G02*
X158896500Y-72611000I-237500J0D01*
G01*
X158296500Y-72611000D01*
G75*
G02*
X158059000Y-72373500I0J237500D01*
G01*
X158059000Y-71898500D01*
G75*
G02*
X158296500Y-71661000I237500J0D01*
G01*
X158896500Y-71661000D01*
G75*
G02*
X159134000Y-71898500I0J-237500D01*
G01*
G37*
%TD*%
%TO.C,C25*%
G36*
G01*
X132265000Y-82075000D02*
X132265000Y-83025000D01*
G75*
G02*
X132015000Y-83275000I-250000J0D01*
G01*
X131340000Y-83275000D01*
G75*
G02*
X131090000Y-83025000I0J250000D01*
G01*
X131090000Y-82075000D01*
G75*
G02*
X131340000Y-81825000I250000J0D01*
G01*
X132015000Y-81825000D01*
G75*
G02*
X132265000Y-82075000I0J-250000D01*
G01*
G37*
G36*
G01*
X134340000Y-82075000D02*
X134340000Y-83025000D01*
G75*
G02*
X134090000Y-83275000I-250000J0D01*
G01*
X133415000Y-83275000D01*
G75*
G02*
X133165000Y-83025000I0J250000D01*
G01*
X133165000Y-82075000D01*
G75*
G02*
X133415000Y-81825000I250000J0D01*
G01*
X134090000Y-81825000D01*
G75*
G02*
X134340000Y-82075000I0J-250000D01*
G01*
G37*
%TD*%
%TO.C,C27*%
G36*
G01*
X145017500Y-72065000D02*
X144542500Y-72065000D01*
G75*
G02*
X144305000Y-71827500I0J237500D01*
G01*
X144305000Y-71227500D01*
G75*
G02*
X144542500Y-70990000I237500J0D01*
G01*
X145017500Y-70990000D01*
G75*
G02*
X145255000Y-71227500I0J-237500D01*
G01*
X145255000Y-71827500D01*
G75*
G02*
X145017500Y-72065000I-237500J0D01*
G01*
G37*
G36*
G01*
X145017500Y-73790000D02*
X144542500Y-73790000D01*
G75*
G02*
X144305000Y-73552500I0J237500D01*
G01*
X144305000Y-72952500D01*
G75*
G02*
X144542500Y-72715000I237500J0D01*
G01*
X145017500Y-72715000D01*
G75*
G02*
X145255000Y-72952500I0J-237500D01*
G01*
X145255000Y-73552500D01*
G75*
G02*
X145017500Y-73790000I-237500J0D01*
G01*
G37*
%TD*%
%TO.C,C30*%
G36*
G01*
X148860000Y-72170000D02*
X150860000Y-72170000D01*
G75*
G02*
X151110000Y-72420000I0J-250000D01*
G01*
X151110000Y-75920000D01*
G75*
G02*
X150860000Y-76170000I-250000J0D01*
G01*
X148860000Y-76170000D01*
G75*
G02*
X148610000Y-75920000I0J250000D01*
G01*
X148610000Y-72420000D01*
G75*
G02*
X148860000Y-72170000I250000J0D01*
G01*
G37*
G36*
G01*
X148860000Y-66070000D02*
X150860000Y-66070000D01*
G75*
G02*
X151110000Y-66320000I0J-250000D01*
G01*
X151110000Y-69820000D01*
G75*
G02*
X150860000Y-70070000I-250000J0D01*
G01*
X148860000Y-70070000D01*
G75*
G02*
X148610000Y-69820000I0J250000D01*
G01*
X148610000Y-66320000D01*
G75*
G02*
X148860000Y-66070000I250000J0D01*
G01*
G37*
%TD*%
%TO.C,C31*%
G36*
G01*
X134041000Y-71898500D02*
X134041000Y-72373500D01*
G75*
G02*
X133803500Y-72611000I-237500J0D01*
G01*
X133203500Y-72611000D01*
G75*
G02*
X132966000Y-72373500I0J237500D01*
G01*
X132966000Y-71898500D01*
G75*
G02*
X133203500Y-71661000I237500J0D01*
G01*
X133803500Y-71661000D01*
G75*
G02*
X134041000Y-71898500I0J-237500D01*
G01*
G37*
G36*
G01*
X135766000Y-71898500D02*
X135766000Y-72373500D01*
G75*
G02*
X135528500Y-72611000I-237500J0D01*
G01*
X134928500Y-72611000D01*
G75*
G02*
X134691000Y-72373500I0J237500D01*
G01*
X134691000Y-71898500D01*
G75*
G02*
X134928500Y-71661000I237500J0D01*
G01*
X135528500Y-71661000D01*
G75*
G02*
X135766000Y-71898500I0J-237500D01*
G01*
G37*
%TD*%
%TO.C,C33*%
G36*
G01*
X108770000Y-82202000D02*
X108770000Y-83152000D01*
G75*
G02*
X108520000Y-83402000I-250000J0D01*
G01*
X107845000Y-83402000D01*
G75*
G02*
X107595000Y-83152000I0J250000D01*
G01*
X107595000Y-82202000D01*
G75*
G02*
X107845000Y-81952000I250000J0D01*
G01*
X108520000Y-81952000D01*
G75*
G02*
X108770000Y-82202000I0J-250000D01*
G01*
G37*
G36*
G01*
X110845000Y-82202000D02*
X110845000Y-83152000D01*
G75*
G02*
X110595000Y-83402000I-250000J0D01*
G01*
X109920000Y-83402000D01*
G75*
G02*
X109670000Y-83152000I0J250000D01*
G01*
X109670000Y-82202000D01*
G75*
G02*
X109920000Y-81952000I250000J0D01*
G01*
X110595000Y-81952000D01*
G75*
G02*
X110845000Y-82202000I0J-250000D01*
G01*
G37*
%TD*%
%TO.C,C35*%
G36*
G01*
X121395500Y-72065000D02*
X120920500Y-72065000D01*
G75*
G02*
X120683000Y-71827500I0J237500D01*
G01*
X120683000Y-71227500D01*
G75*
G02*
X120920500Y-70990000I237500J0D01*
G01*
X121395500Y-70990000D01*
G75*
G02*
X121633000Y-71227500I0J-237500D01*
G01*
X121633000Y-71827500D01*
G75*
G02*
X121395500Y-72065000I-237500J0D01*
G01*
G37*
G36*
G01*
X121395500Y-73790000D02*
X120920500Y-73790000D01*
G75*
G02*
X120683000Y-73552500I0J237500D01*
G01*
X120683000Y-72952500D01*
G75*
G02*
X120920500Y-72715000I237500J0D01*
G01*
X121395500Y-72715000D01*
G75*
G02*
X121633000Y-72952500I0J-237500D01*
G01*
X121633000Y-73552500D01*
G75*
G02*
X121395500Y-73790000I-237500J0D01*
G01*
G37*
%TD*%
%TO.C,C38*%
G36*
G01*
X125365000Y-72170000D02*
X127365000Y-72170000D01*
G75*
G02*
X127615000Y-72420000I0J-250000D01*
G01*
X127615000Y-75920000D01*
G75*
G02*
X127365000Y-76170000I-250000J0D01*
G01*
X125365000Y-76170000D01*
G75*
G02*
X125115000Y-75920000I0J250000D01*
G01*
X125115000Y-72420000D01*
G75*
G02*
X125365000Y-72170000I250000J0D01*
G01*
G37*
G36*
G01*
X125365000Y-66070000D02*
X127365000Y-66070000D01*
G75*
G02*
X127615000Y-66320000I0J-250000D01*
G01*
X127615000Y-69820000D01*
G75*
G02*
X127365000Y-70070000I-250000J0D01*
G01*
X125365000Y-70070000D01*
G75*
G02*
X125115000Y-69820000I0J250000D01*
G01*
X125115000Y-66320000D01*
G75*
G02*
X125365000Y-66070000I250000J0D01*
G01*
G37*
%TD*%
%TO.C,C39*%
G36*
G01*
X110673000Y-71898500D02*
X110673000Y-72373500D01*
G75*
G02*
X110435500Y-72611000I-237500J0D01*
G01*
X109835500Y-72611000D01*
G75*
G02*
X109598000Y-72373500I0J237500D01*
G01*
X109598000Y-71898500D01*
G75*
G02*
X109835500Y-71661000I237500J0D01*
G01*
X110435500Y-71661000D01*
G75*
G02*
X110673000Y-71898500I0J-237500D01*
G01*
G37*
G36*
G01*
X112398000Y-71898500D02*
X112398000Y-72373500D01*
G75*
G02*
X112160500Y-72611000I-237500J0D01*
G01*
X111560500Y-72611000D01*
G75*
G02*
X111323000Y-72373500I0J237500D01*
G01*
X111323000Y-71898500D01*
G75*
G02*
X111560500Y-71661000I237500J0D01*
G01*
X112160500Y-71661000D01*
G75*
G02*
X112398000Y-71898500I0J-237500D01*
G01*
G37*
%TD*%
%TO.C,C41*%
G36*
G01*
X184625000Y-95435000D02*
X183675000Y-95435000D01*
G75*
G02*
X183425000Y-95185000I0J250000D01*
G01*
X183425000Y-94510000D01*
G75*
G02*
X183675000Y-94260000I250000J0D01*
G01*
X184625000Y-94260000D01*
G75*
G02*
X184875000Y-94510000I0J-250000D01*
G01*
X184875000Y-95185000D01*
G75*
G02*
X184625000Y-95435000I-250000J0D01*
G01*
G37*
G36*
G01*
X184625000Y-97510000D02*
X183675000Y-97510000D01*
G75*
G02*
X183425000Y-97260000I0J250000D01*
G01*
X183425000Y-96585000D01*
G75*
G02*
X183675000Y-96335000I250000J0D01*
G01*
X184625000Y-96335000D01*
G75*
G02*
X184875000Y-96585000I0J-250000D01*
G01*
X184875000Y-97260000D01*
G75*
G02*
X184625000Y-97510000I-250000J0D01*
G01*
G37*
%TD*%
%TO.C,C43*%
G36*
G01*
X194635000Y-108187500D02*
X194635000Y-107712500D01*
G75*
G02*
X194872500Y-107475000I237500J0D01*
G01*
X195472500Y-107475000D01*
G75*
G02*
X195710000Y-107712500I0J-237500D01*
G01*
X195710000Y-108187500D01*
G75*
G02*
X195472500Y-108425000I-237500J0D01*
G01*
X194872500Y-108425000D01*
G75*
G02*
X194635000Y-108187500I0J237500D01*
G01*
G37*
G36*
G01*
X192910000Y-108187500D02*
X192910000Y-107712500D01*
G75*
G02*
X193147500Y-107475000I237500J0D01*
G01*
X193747500Y-107475000D01*
G75*
G02*
X193985000Y-107712500I0J-237500D01*
G01*
X193985000Y-108187500D01*
G75*
G02*
X193747500Y-108425000I-237500J0D01*
G01*
X193147500Y-108425000D01*
G75*
G02*
X192910000Y-108187500I0J237500D01*
G01*
G37*
%TD*%
%TO.C,C46*%
G36*
G01*
X194530000Y-112030000D02*
X194530000Y-114030000D01*
G75*
G02*
X194280000Y-114280000I-250000J0D01*
G01*
X190780000Y-114280000D01*
G75*
G02*
X190530000Y-114030000I0J250000D01*
G01*
X190530000Y-112030000D01*
G75*
G02*
X190780000Y-111780000I250000J0D01*
G01*
X194280000Y-111780000D01*
G75*
G02*
X194530000Y-112030000I0J-250000D01*
G01*
G37*
G36*
G01*
X200630000Y-112030000D02*
X200630000Y-114030000D01*
G75*
G02*
X200380000Y-114280000I-250000J0D01*
G01*
X196880000Y-114280000D01*
G75*
G02*
X196630000Y-114030000I0J250000D01*
G01*
X196630000Y-112030000D01*
G75*
G02*
X196880000Y-111780000I250000J0D01*
G01*
X200380000Y-111780000D01*
G75*
G02*
X200630000Y-112030000I0J-250000D01*
G01*
G37*
%TD*%
%TO.C,C47*%
G36*
G01*
X196325500Y-96957000D02*
X195850500Y-96957000D01*
G75*
G02*
X195613000Y-96719500I0J237500D01*
G01*
X195613000Y-96119500D01*
G75*
G02*
X195850500Y-95882000I237500J0D01*
G01*
X196325500Y-95882000D01*
G75*
G02*
X196563000Y-96119500I0J-237500D01*
G01*
X196563000Y-96719500D01*
G75*
G02*
X196325500Y-96957000I-237500J0D01*
G01*
G37*
G36*
G01*
X196325500Y-98682000D02*
X195850500Y-98682000D01*
G75*
G02*
X195613000Y-98444500I0J237500D01*
G01*
X195613000Y-97844500D01*
G75*
G02*
X195850500Y-97607000I237500J0D01*
G01*
X196325500Y-97607000D01*
G75*
G02*
X196563000Y-97844500I0J-237500D01*
G01*
X196563000Y-98444500D01*
G75*
G02*
X196325500Y-98682000I-237500J0D01*
G01*
G37*
%TD*%
%TO.C,C49*%
G36*
G01*
X184625000Y-118930000D02*
X183675000Y-118930000D01*
G75*
G02*
X183425000Y-118680000I0J250000D01*
G01*
X183425000Y-118005000D01*
G75*
G02*
X183675000Y-117755000I250000J0D01*
G01*
X184625000Y-117755000D01*
G75*
G02*
X184875000Y-118005000I0J-250000D01*
G01*
X184875000Y-118680000D01*
G75*
G02*
X184625000Y-118930000I-250000J0D01*
G01*
G37*
G36*
G01*
X184625000Y-121005000D02*
X183675000Y-121005000D01*
G75*
G02*
X183425000Y-120755000I0J250000D01*
G01*
X183425000Y-120080000D01*
G75*
G02*
X183675000Y-119830000I250000J0D01*
G01*
X184625000Y-119830000D01*
G75*
G02*
X184875000Y-120080000I0J-250000D01*
G01*
X184875000Y-120755000D01*
G75*
G02*
X184625000Y-121005000I-250000J0D01*
G01*
G37*
%TD*%
%TO.C,C50*%
G36*
G01*
X186530000Y-118930000D02*
X185580000Y-118930000D01*
G75*
G02*
X185330000Y-118680000I0J250000D01*
G01*
X185330000Y-118005000D01*
G75*
G02*
X185580000Y-117755000I250000J0D01*
G01*
X186530000Y-117755000D01*
G75*
G02*
X186780000Y-118005000I0J-250000D01*
G01*
X186780000Y-118680000D01*
G75*
G02*
X186530000Y-118930000I-250000J0D01*
G01*
G37*
G36*
G01*
X186530000Y-121005000D02*
X185580000Y-121005000D01*
G75*
G02*
X185330000Y-120755000I0J250000D01*
G01*
X185330000Y-120080000D01*
G75*
G02*
X185580000Y-119830000I250000J0D01*
G01*
X186530000Y-119830000D01*
G75*
G02*
X186780000Y-120080000I0J-250000D01*
G01*
X186780000Y-120755000D01*
G75*
G02*
X186530000Y-121005000I-250000J0D01*
G01*
G37*
%TD*%
%TO.C,C51*%
G36*
G01*
X194635000Y-131682500D02*
X194635000Y-131207500D01*
G75*
G02*
X194872500Y-130970000I237500J0D01*
G01*
X195472500Y-130970000D01*
G75*
G02*
X195710000Y-131207500I0J-237500D01*
G01*
X195710000Y-131682500D01*
G75*
G02*
X195472500Y-131920000I-237500J0D01*
G01*
X194872500Y-131920000D01*
G75*
G02*
X194635000Y-131682500I0J237500D01*
G01*
G37*
G36*
G01*
X192910000Y-131682500D02*
X192910000Y-131207500D01*
G75*
G02*
X193147500Y-130970000I237500J0D01*
G01*
X193747500Y-130970000D01*
G75*
G02*
X193985000Y-131207500I0J-237500D01*
G01*
X193985000Y-131682500D01*
G75*
G02*
X193747500Y-131920000I-237500J0D01*
G01*
X193147500Y-131920000D01*
G75*
G02*
X192910000Y-131682500I0J237500D01*
G01*
G37*
%TD*%
%TO.C,C52*%
G36*
G01*
X195255000Y-141367500D02*
X195255000Y-141842500D01*
G75*
G02*
X195017500Y-142080000I-237500J0D01*
G01*
X194417500Y-142080000D01*
G75*
G02*
X194180000Y-141842500I0J237500D01*
G01*
X194180000Y-141367500D01*
G75*
G02*
X194417500Y-141130000I237500J0D01*
G01*
X195017500Y-141130000D01*
G75*
G02*
X195255000Y-141367500I0J-237500D01*
G01*
G37*
G36*
G01*
X196980000Y-141367500D02*
X196980000Y-141842500D01*
G75*
G02*
X196742500Y-142080000I-237500J0D01*
G01*
X196142500Y-142080000D01*
G75*
G02*
X195905000Y-141842500I0J237500D01*
G01*
X195905000Y-141367500D01*
G75*
G02*
X196142500Y-141130000I237500J0D01*
G01*
X196742500Y-141130000D01*
G75*
G02*
X196980000Y-141367500I0J-237500D01*
G01*
G37*
%TD*%
%TO.C,C53*%
G36*
G01*
X197722500Y-129850000D02*
X197247500Y-129850000D01*
G75*
G02*
X197010000Y-129612500I0J237500D01*
G01*
X197010000Y-129012500D01*
G75*
G02*
X197247500Y-128775000I237500J0D01*
G01*
X197722500Y-128775000D01*
G75*
G02*
X197960000Y-129012500I0J-237500D01*
G01*
X197960000Y-129612500D01*
G75*
G02*
X197722500Y-129850000I-237500J0D01*
G01*
G37*
G36*
G01*
X197722500Y-131575000D02*
X197247500Y-131575000D01*
G75*
G02*
X197010000Y-131337500I0J237500D01*
G01*
X197010000Y-130737500D01*
G75*
G02*
X197247500Y-130500000I237500J0D01*
G01*
X197722500Y-130500000D01*
G75*
G02*
X197960000Y-130737500I0J-237500D01*
G01*
X197960000Y-131337500D01*
G75*
G02*
X197722500Y-131575000I-237500J0D01*
G01*
G37*
%TD*%
%TO.C,C54*%
G36*
G01*
X194530000Y-135525000D02*
X194530000Y-137525000D01*
G75*
G02*
X194280000Y-137775000I-250000J0D01*
G01*
X190780000Y-137775000D01*
G75*
G02*
X190530000Y-137525000I0J250000D01*
G01*
X190530000Y-135525000D01*
G75*
G02*
X190780000Y-135275000I250000J0D01*
G01*
X194280000Y-135275000D01*
G75*
G02*
X194530000Y-135525000I0J-250000D01*
G01*
G37*
G36*
G01*
X200630000Y-135525000D02*
X200630000Y-137525000D01*
G75*
G02*
X200380000Y-137775000I-250000J0D01*
G01*
X196880000Y-137775000D01*
G75*
G02*
X196630000Y-137525000I0J250000D01*
G01*
X196630000Y-135525000D01*
G75*
G02*
X196880000Y-135275000I250000J0D01*
G01*
X200380000Y-135275000D01*
G75*
G02*
X200630000Y-135525000I0J-250000D01*
G01*
G37*
%TD*%
%TO.C,C55*%
G36*
G01*
X196325500Y-120579000D02*
X195850500Y-120579000D01*
G75*
G02*
X195613000Y-120341500I0J237500D01*
G01*
X195613000Y-119741500D01*
G75*
G02*
X195850500Y-119504000I237500J0D01*
G01*
X196325500Y-119504000D01*
G75*
G02*
X196563000Y-119741500I0J-237500D01*
G01*
X196563000Y-120341500D01*
G75*
G02*
X196325500Y-120579000I-237500J0D01*
G01*
G37*
G36*
G01*
X196325500Y-122304000D02*
X195850500Y-122304000D01*
G75*
G02*
X195613000Y-122066500I0J237500D01*
G01*
X195613000Y-121466500D01*
G75*
G02*
X195850500Y-121229000I237500J0D01*
G01*
X196325500Y-121229000D01*
G75*
G02*
X196563000Y-121466500I0J-237500D01*
G01*
X196563000Y-122066500D01*
G75*
G02*
X196325500Y-122304000I-237500J0D01*
G01*
G37*
%TD*%
D17*
%TO.C,J1*%
X104140000Y-93120000D03*
X104140000Y-93620000D03*
X104140000Y-94120000D03*
X104140000Y-94620000D03*
X104140000Y-95120000D03*
X104140000Y-95620000D03*
X104140000Y-96120000D03*
X104140000Y-96620000D03*
X104140000Y-97120000D03*
X104140000Y-97620000D03*
X104140000Y-98120000D03*
X104140000Y-98620000D03*
X104140000Y-99120000D03*
X104140000Y-99620000D03*
X104140000Y-100120000D03*
X104140000Y-100620000D03*
X104140000Y-101120000D03*
X104140000Y-101620000D03*
X104140000Y-102120000D03*
X104140000Y-102620000D03*
X104140000Y-103120000D03*
X104140000Y-103620000D03*
X104140000Y-104120000D03*
X104140000Y-104620000D03*
X104140000Y-105120000D03*
X104140000Y-105620000D03*
X104140000Y-106120000D03*
X104140000Y-106620000D03*
X104140000Y-107120000D03*
X104140000Y-107620000D03*
X104140000Y-108120000D03*
X104140000Y-108620000D03*
X104140000Y-109120000D03*
X104140000Y-109620000D03*
X104140000Y-110120000D03*
X104140000Y-110620000D03*
X104140000Y-111120000D03*
X104140000Y-111620000D03*
X104140000Y-112120000D03*
X104140000Y-112620000D03*
D18*
X102140000Y-91470000D03*
X102140000Y-114270000D03*
%TD*%
D19*
%TO.C,L2*%
X125410000Y-135255000D03*
X136210000Y-135255000D03*
%TD*%
D20*
%TO.C,Q1*%
X158258000Y-139700000D03*
X160258000Y-138750000D03*
X160258000Y-140650000D03*
%TD*%
%TO.C,R25*%
G36*
G01*
X157242500Y-90595000D02*
X157717500Y-90595000D01*
G75*
G02*
X157955000Y-90832500I0J-237500D01*
G01*
X157955000Y-91332500D01*
G75*
G02*
X157717500Y-91570000I-237500J0D01*
G01*
X157242500Y-91570000D01*
G75*
G02*
X157005000Y-91332500I0J237500D01*
G01*
X157005000Y-90832500D01*
G75*
G02*
X157242500Y-90595000I237500J0D01*
G01*
G37*
G36*
G01*
X157242500Y-88770000D02*
X157717500Y-88770000D01*
G75*
G02*
X157955000Y-89007500I0J-237500D01*
G01*
X157955000Y-89507500D01*
G75*
G02*
X157717500Y-89745000I-237500J0D01*
G01*
X157242500Y-89745000D01*
G75*
G02*
X157005000Y-89507500I0J237500D01*
G01*
X157005000Y-89007500D01*
G75*
G02*
X157242500Y-88770000I237500J0D01*
G01*
G37*
%TD*%
%TO.C,R26*%
G36*
G01*
X148098500Y-90595000D02*
X148573500Y-90595000D01*
G75*
G02*
X148811000Y-90832500I0J-237500D01*
G01*
X148811000Y-91332500D01*
G75*
G02*
X148573500Y-91570000I-237500J0D01*
G01*
X148098500Y-91570000D01*
G75*
G02*
X147861000Y-91332500I0J237500D01*
G01*
X147861000Y-90832500D01*
G75*
G02*
X148098500Y-90595000I237500J0D01*
G01*
G37*
G36*
G01*
X148098500Y-88770000D02*
X148573500Y-88770000D01*
G75*
G02*
X148811000Y-89007500I0J-237500D01*
G01*
X148811000Y-89507500D01*
G75*
G02*
X148573500Y-89745000I-237500J0D01*
G01*
X148098500Y-89745000D01*
G75*
G02*
X147861000Y-89507500I0J237500D01*
G01*
X147861000Y-89007500D01*
G75*
G02*
X148098500Y-88770000I237500J0D01*
G01*
G37*
%TD*%
%TO.C,R27*%
G36*
G01*
X146668500Y-89745000D02*
X146193500Y-89745000D01*
G75*
G02*
X145956000Y-89507500I0J237500D01*
G01*
X145956000Y-89007500D01*
G75*
G02*
X146193500Y-88770000I237500J0D01*
G01*
X146668500Y-88770000D01*
G75*
G02*
X146906000Y-89007500I0J-237500D01*
G01*
X146906000Y-89507500D01*
G75*
G02*
X146668500Y-89745000I-237500J0D01*
G01*
G37*
G36*
G01*
X146668500Y-91570000D02*
X146193500Y-91570000D01*
G75*
G02*
X145956000Y-91332500I0J237500D01*
G01*
X145956000Y-90832500D01*
G75*
G02*
X146193500Y-90595000I237500J0D01*
G01*
X146668500Y-90595000D01*
G75*
G02*
X146906000Y-90832500I0J-237500D01*
G01*
X146906000Y-91332500D01*
G75*
G02*
X146668500Y-91570000I-237500J0D01*
G01*
G37*
%TD*%
%TO.C,R28*%
G36*
G01*
X142858500Y-89745000D02*
X142383500Y-89745000D01*
G75*
G02*
X142146000Y-89507500I0J237500D01*
G01*
X142146000Y-89007500D01*
G75*
G02*
X142383500Y-88770000I237500J0D01*
G01*
X142858500Y-88770000D01*
G75*
G02*
X143096000Y-89007500I0J-237500D01*
G01*
X143096000Y-89507500D01*
G75*
G02*
X142858500Y-89745000I-237500J0D01*
G01*
G37*
G36*
G01*
X142858500Y-91570000D02*
X142383500Y-91570000D01*
G75*
G02*
X142146000Y-91332500I0J237500D01*
G01*
X142146000Y-90832500D01*
G75*
G02*
X142383500Y-90595000I237500J0D01*
G01*
X142858500Y-90595000D01*
G75*
G02*
X143096000Y-90832500I0J-237500D01*
G01*
X143096000Y-91332500D01*
G75*
G02*
X142858500Y-91570000I-237500J0D01*
G01*
G37*
%TD*%
%TO.C,R29*%
G36*
G01*
X140478500Y-90595000D02*
X140953500Y-90595000D01*
G75*
G02*
X141191000Y-90832500I0J-237500D01*
G01*
X141191000Y-91332500D01*
G75*
G02*
X140953500Y-91570000I-237500J0D01*
G01*
X140478500Y-91570000D01*
G75*
G02*
X140241000Y-91332500I0J237500D01*
G01*
X140241000Y-90832500D01*
G75*
G02*
X140478500Y-90595000I237500J0D01*
G01*
G37*
G36*
G01*
X140478500Y-88770000D02*
X140953500Y-88770000D01*
G75*
G02*
X141191000Y-89007500I0J-237500D01*
G01*
X141191000Y-89507500D01*
G75*
G02*
X140953500Y-89745000I-237500J0D01*
G01*
X140478500Y-89745000D01*
G75*
G02*
X140241000Y-89507500I0J237500D01*
G01*
X140241000Y-89007500D01*
G75*
G02*
X140478500Y-88770000I237500J0D01*
G01*
G37*
%TD*%
%TO.C,R30*%
G36*
G01*
X117872500Y-90595000D02*
X118347500Y-90595000D01*
G75*
G02*
X118585000Y-90832500I0J-237500D01*
G01*
X118585000Y-91332500D01*
G75*
G02*
X118347500Y-91570000I-237500J0D01*
G01*
X117872500Y-91570000D01*
G75*
G02*
X117635000Y-91332500I0J237500D01*
G01*
X117635000Y-90832500D01*
G75*
G02*
X117872500Y-90595000I237500J0D01*
G01*
G37*
G36*
G01*
X117872500Y-88770000D02*
X118347500Y-88770000D01*
G75*
G02*
X118585000Y-89007500I0J-237500D01*
G01*
X118585000Y-89507500D01*
G75*
G02*
X118347500Y-89745000I-237500J0D01*
G01*
X117872500Y-89745000D01*
G75*
G02*
X117635000Y-89507500I0J237500D01*
G01*
X117635000Y-89007500D01*
G75*
G02*
X117872500Y-88770000I237500J0D01*
G01*
G37*
%TD*%
%TO.C,R31*%
G36*
G01*
X116442500Y-89745000D02*
X115967500Y-89745000D01*
G75*
G02*
X115730000Y-89507500I0J237500D01*
G01*
X115730000Y-89007500D01*
G75*
G02*
X115967500Y-88770000I237500J0D01*
G01*
X116442500Y-88770000D01*
G75*
G02*
X116680000Y-89007500I0J-237500D01*
G01*
X116680000Y-89507500D01*
G75*
G02*
X116442500Y-89745000I-237500J0D01*
G01*
G37*
G36*
G01*
X116442500Y-91570000D02*
X115967500Y-91570000D01*
G75*
G02*
X115730000Y-91332500I0J237500D01*
G01*
X115730000Y-90832500D01*
G75*
G02*
X115967500Y-90595000I237500J0D01*
G01*
X116442500Y-90595000D01*
G75*
G02*
X116680000Y-90832500I0J-237500D01*
G01*
X116680000Y-91332500D01*
G75*
G02*
X116442500Y-91570000I-237500J0D01*
G01*
G37*
%TD*%
%TO.C,R32*%
G36*
G01*
X112632500Y-89745000D02*
X112157500Y-89745000D01*
G75*
G02*
X111920000Y-89507500I0J237500D01*
G01*
X111920000Y-89007500D01*
G75*
G02*
X112157500Y-88770000I237500J0D01*
G01*
X112632500Y-88770000D01*
G75*
G02*
X112870000Y-89007500I0J-237500D01*
G01*
X112870000Y-89507500D01*
G75*
G02*
X112632500Y-89745000I-237500J0D01*
G01*
G37*
G36*
G01*
X112632500Y-91570000D02*
X112157500Y-91570000D01*
G75*
G02*
X111920000Y-91332500I0J237500D01*
G01*
X111920000Y-90832500D01*
G75*
G02*
X112157500Y-90595000I237500J0D01*
G01*
X112632500Y-90595000D01*
G75*
G02*
X112870000Y-90832500I0J-237500D01*
G01*
X112870000Y-91332500D01*
G75*
G02*
X112632500Y-91570000I-237500J0D01*
G01*
G37*
%TD*%
%TO.C,R33*%
G36*
G01*
X110252500Y-90595000D02*
X110727500Y-90595000D01*
G75*
G02*
X110965000Y-90832500I0J-237500D01*
G01*
X110965000Y-91332500D01*
G75*
G02*
X110727500Y-91570000I-237500J0D01*
G01*
X110252500Y-91570000D01*
G75*
G02*
X110015000Y-91332500I0J237500D01*
G01*
X110015000Y-90832500D01*
G75*
G02*
X110252500Y-90595000I237500J0D01*
G01*
G37*
G36*
G01*
X110252500Y-88770000D02*
X110727500Y-88770000D01*
G75*
G02*
X110965000Y-89007500I0J-237500D01*
G01*
X110965000Y-89507500D01*
G75*
G02*
X110727500Y-89745000I-237500J0D01*
G01*
X110252500Y-89745000D01*
G75*
G02*
X110015000Y-89507500I0J237500D01*
G01*
X110015000Y-89007500D01*
G75*
G02*
X110252500Y-88770000I237500J0D01*
G01*
G37*
%TD*%
%TO.C,R34*%
G36*
G01*
X175470000Y-104537500D02*
X175470000Y-105012500D01*
G75*
G02*
X175232500Y-105250000I-237500J0D01*
G01*
X174732500Y-105250000D01*
G75*
G02*
X174495000Y-105012500I0J237500D01*
G01*
X174495000Y-104537500D01*
G75*
G02*
X174732500Y-104300000I237500J0D01*
G01*
X175232500Y-104300000D01*
G75*
G02*
X175470000Y-104537500I0J-237500D01*
G01*
G37*
G36*
G01*
X177295000Y-104537500D02*
X177295000Y-105012500D01*
G75*
G02*
X177057500Y-105250000I-237500J0D01*
G01*
X176557500Y-105250000D01*
G75*
G02*
X176320000Y-105012500I0J237500D01*
G01*
X176320000Y-104537500D01*
G75*
G02*
X176557500Y-104300000I237500J0D01*
G01*
X177057500Y-104300000D01*
G75*
G02*
X177295000Y-104537500I0J-237500D01*
G01*
G37*
%TD*%
%TO.C,R35*%
G36*
G01*
X176320000Y-103107500D02*
X176320000Y-102632500D01*
G75*
G02*
X176557500Y-102395000I237500J0D01*
G01*
X177057500Y-102395000D01*
G75*
G02*
X177295000Y-102632500I0J-237500D01*
G01*
X177295000Y-103107500D01*
G75*
G02*
X177057500Y-103345000I-237500J0D01*
G01*
X176557500Y-103345000D01*
G75*
G02*
X176320000Y-103107500I0J237500D01*
G01*
G37*
G36*
G01*
X174495000Y-103107500D02*
X174495000Y-102632500D01*
G75*
G02*
X174732500Y-102395000I237500J0D01*
G01*
X175232500Y-102395000D01*
G75*
G02*
X175470000Y-102632500I0J-237500D01*
G01*
X175470000Y-103107500D01*
G75*
G02*
X175232500Y-103345000I-237500J0D01*
G01*
X174732500Y-103345000D01*
G75*
G02*
X174495000Y-103107500I0J237500D01*
G01*
G37*
%TD*%
%TO.C,R36*%
G36*
G01*
X176320000Y-99297500D02*
X176320000Y-98822500D01*
G75*
G02*
X176557500Y-98585000I237500J0D01*
G01*
X177057500Y-98585000D01*
G75*
G02*
X177295000Y-98822500I0J-237500D01*
G01*
X177295000Y-99297500D01*
G75*
G02*
X177057500Y-99535000I-237500J0D01*
G01*
X176557500Y-99535000D01*
G75*
G02*
X176320000Y-99297500I0J237500D01*
G01*
G37*
G36*
G01*
X174495000Y-99297500D02*
X174495000Y-98822500D01*
G75*
G02*
X174732500Y-98585000I237500J0D01*
G01*
X175232500Y-98585000D01*
G75*
G02*
X175470000Y-98822500I0J-237500D01*
G01*
X175470000Y-99297500D01*
G75*
G02*
X175232500Y-99535000I-237500J0D01*
G01*
X174732500Y-99535000D01*
G75*
G02*
X174495000Y-99297500I0J237500D01*
G01*
G37*
%TD*%
%TO.C,R37*%
G36*
G01*
X175470000Y-96917500D02*
X175470000Y-97392500D01*
G75*
G02*
X175232500Y-97630000I-237500J0D01*
G01*
X174732500Y-97630000D01*
G75*
G02*
X174495000Y-97392500I0J237500D01*
G01*
X174495000Y-96917500D01*
G75*
G02*
X174732500Y-96680000I237500J0D01*
G01*
X175232500Y-96680000D01*
G75*
G02*
X175470000Y-96917500I0J-237500D01*
G01*
G37*
G36*
G01*
X177295000Y-96917500D02*
X177295000Y-97392500D01*
G75*
G02*
X177057500Y-97630000I-237500J0D01*
G01*
X176557500Y-97630000D01*
G75*
G02*
X176320000Y-97392500I0J237500D01*
G01*
X176320000Y-96917500D01*
G75*
G02*
X176557500Y-96680000I237500J0D01*
G01*
X177057500Y-96680000D01*
G75*
G02*
X177295000Y-96917500I0J-237500D01*
G01*
G37*
%TD*%
%TO.C,R38*%
G36*
G01*
X175470000Y-134763500D02*
X175470000Y-135238500D01*
G75*
G02*
X175232500Y-135476000I-237500J0D01*
G01*
X174732500Y-135476000D01*
G75*
G02*
X174495000Y-135238500I0J237500D01*
G01*
X174495000Y-134763500D01*
G75*
G02*
X174732500Y-134526000I237500J0D01*
G01*
X175232500Y-134526000D01*
G75*
G02*
X175470000Y-134763500I0J-237500D01*
G01*
G37*
G36*
G01*
X177295000Y-134763500D02*
X177295000Y-135238500D01*
G75*
G02*
X177057500Y-135476000I-237500J0D01*
G01*
X176557500Y-135476000D01*
G75*
G02*
X176320000Y-135238500I0J237500D01*
G01*
X176320000Y-134763500D01*
G75*
G02*
X176557500Y-134526000I237500J0D01*
G01*
X177057500Y-134526000D01*
G75*
G02*
X177295000Y-134763500I0J-237500D01*
G01*
G37*
%TD*%
%TO.C,R39*%
G36*
G01*
X176320000Y-133333500D02*
X176320000Y-132858500D01*
G75*
G02*
X176557500Y-132621000I237500J0D01*
G01*
X177057500Y-132621000D01*
G75*
G02*
X177295000Y-132858500I0J-237500D01*
G01*
X177295000Y-133333500D01*
G75*
G02*
X177057500Y-133571000I-237500J0D01*
G01*
X176557500Y-133571000D01*
G75*
G02*
X176320000Y-133333500I0J237500D01*
G01*
G37*
G36*
G01*
X174495000Y-133333500D02*
X174495000Y-132858500D01*
G75*
G02*
X174732500Y-132621000I237500J0D01*
G01*
X175232500Y-132621000D01*
G75*
G02*
X175470000Y-132858500I0J-237500D01*
G01*
X175470000Y-133333500D01*
G75*
G02*
X175232500Y-133571000I-237500J0D01*
G01*
X174732500Y-133571000D01*
G75*
G02*
X174495000Y-133333500I0J237500D01*
G01*
G37*
%TD*%
%TO.C,R40*%
G36*
G01*
X176320000Y-129523500D02*
X176320000Y-129048500D01*
G75*
G02*
X176557500Y-128811000I237500J0D01*
G01*
X177057500Y-128811000D01*
G75*
G02*
X177295000Y-129048500I0J-237500D01*
G01*
X177295000Y-129523500D01*
G75*
G02*
X177057500Y-129761000I-237500J0D01*
G01*
X176557500Y-129761000D01*
G75*
G02*
X176320000Y-129523500I0J237500D01*
G01*
G37*
G36*
G01*
X174495000Y-129523500D02*
X174495000Y-129048500D01*
G75*
G02*
X174732500Y-128811000I237500J0D01*
G01*
X175232500Y-128811000D01*
G75*
G02*
X175470000Y-129048500I0J-237500D01*
G01*
X175470000Y-129523500D01*
G75*
G02*
X175232500Y-129761000I-237500J0D01*
G01*
X174732500Y-129761000D01*
G75*
G02*
X174495000Y-129523500I0J237500D01*
G01*
G37*
%TD*%
%TO.C,R41*%
G36*
G01*
X176320000Y-127618500D02*
X176320000Y-127143500D01*
G75*
G02*
X176557500Y-126906000I237500J0D01*
G01*
X177057500Y-126906000D01*
G75*
G02*
X177295000Y-127143500I0J-237500D01*
G01*
X177295000Y-127618500D01*
G75*
G02*
X177057500Y-127856000I-237500J0D01*
G01*
X176557500Y-127856000D01*
G75*
G02*
X176320000Y-127618500I0J237500D01*
G01*
G37*
G36*
G01*
X174495000Y-127618500D02*
X174495000Y-127143500D01*
G75*
G02*
X174732500Y-126906000I237500J0D01*
G01*
X175232500Y-126906000D01*
G75*
G02*
X175470000Y-127143500I0J-237500D01*
G01*
X175470000Y-127618500D01*
G75*
G02*
X175232500Y-127856000I-237500J0D01*
G01*
X174732500Y-127856000D01*
G75*
G02*
X174495000Y-127618500I0J237500D01*
G01*
G37*
%TD*%
D21*
%TO.C,U1*%
X143120000Y-131705000D03*
X143120000Y-136265000D03*
D22*
X151095000Y-135510000D03*
X147745000Y-132460000D03*
X151095000Y-132460000D03*
X147745000Y-135510000D03*
%TD*%
D23*
%TO.C,U5*%
X130000000Y-84690000D03*
X130000000Y-85340000D03*
X130000000Y-85990000D03*
X130000000Y-86640000D03*
X130000000Y-87290000D03*
X130000000Y-87940000D03*
X130000000Y-88590000D03*
X130000000Y-89240000D03*
X130000000Y-89890000D03*
X130000000Y-90540000D03*
X130000000Y-91190000D03*
X130000000Y-91840000D03*
X124000000Y-91840000D03*
X124000000Y-91190000D03*
X124000000Y-90540000D03*
X124000000Y-89890000D03*
X124000000Y-89240000D03*
X124000000Y-88590000D03*
X124000000Y-87940000D03*
X124000000Y-87290000D03*
X124000000Y-86640000D03*
X124000000Y-85990000D03*
X124000000Y-85340000D03*
X124000000Y-84690000D03*
%TD*%
%TO.C,U6*%
X176990000Y-84690000D03*
X176990000Y-85340000D03*
X176990000Y-85990000D03*
X176990000Y-86640000D03*
X176990000Y-87290000D03*
X176990000Y-87940000D03*
X176990000Y-88590000D03*
X176990000Y-89240000D03*
X176990000Y-89890000D03*
X176990000Y-90540000D03*
X176990000Y-91190000D03*
X176990000Y-91840000D03*
X170990000Y-91840000D03*
X170990000Y-91190000D03*
X170990000Y-90540000D03*
X170990000Y-89890000D03*
X170990000Y-89240000D03*
X170990000Y-88590000D03*
X170990000Y-87940000D03*
X170990000Y-87290000D03*
X170990000Y-86640000D03*
X170990000Y-85990000D03*
X170990000Y-85340000D03*
X170990000Y-84690000D03*
%TD*%
D15*
%TO.C,U7*%
X181375000Y-116665000D03*
X180725000Y-116665000D03*
X180075000Y-116665000D03*
X179425000Y-116665000D03*
X178775000Y-116665000D03*
X178125000Y-116665000D03*
X177475000Y-116665000D03*
X176825000Y-116665000D03*
X176175000Y-116665000D03*
X175525000Y-116665000D03*
X174875000Y-116665000D03*
X174225000Y-116665000D03*
X174225000Y-110665000D03*
X174875000Y-110665000D03*
X175525000Y-110665000D03*
X176175000Y-110665000D03*
X176825000Y-110665000D03*
X177475000Y-110665000D03*
X178125000Y-110665000D03*
X178775000Y-110665000D03*
X179425000Y-110665000D03*
X180075000Y-110665000D03*
X180725000Y-110665000D03*
X181375000Y-110665000D03*
%TD*%
%TO.C,U11*%
X119145000Y-74470000D03*
X118495000Y-74470000D03*
X117845000Y-74470000D03*
X117195000Y-74470000D03*
X116545000Y-74470000D03*
X115895000Y-74470000D03*
X115245000Y-74470000D03*
X114595000Y-74470000D03*
X113945000Y-74470000D03*
X113295000Y-74470000D03*
X112645000Y-74470000D03*
X111995000Y-74470000D03*
X111995000Y-80470000D03*
X112645000Y-80470000D03*
X113295000Y-80470000D03*
X113945000Y-80470000D03*
X114595000Y-80470000D03*
X115245000Y-80470000D03*
X115895000Y-80470000D03*
X116545000Y-80470000D03*
X117195000Y-80470000D03*
X117845000Y-80470000D03*
X118495000Y-80470000D03*
X119145000Y-80470000D03*
D16*
X115570000Y-77470000D03*
%TD*%
D23*
%TO.C,U12*%
X192230000Y-105810000D03*
X192230000Y-105160000D03*
X192230000Y-104510000D03*
X192230000Y-103860000D03*
X192230000Y-103210000D03*
X192230000Y-102560000D03*
X192230000Y-101910000D03*
X192230000Y-101260000D03*
X192230000Y-100610000D03*
X192230000Y-99960000D03*
X192230000Y-99310000D03*
X192230000Y-98660000D03*
X186230000Y-98660000D03*
X186230000Y-99310000D03*
X186230000Y-99960000D03*
X186230000Y-100610000D03*
X186230000Y-101260000D03*
X186230000Y-101910000D03*
X186230000Y-102560000D03*
X186230000Y-103210000D03*
X186230000Y-103860000D03*
X186230000Y-104510000D03*
X186230000Y-105160000D03*
X186230000Y-105810000D03*
D24*
X189230000Y-102235000D03*
%TD*%
D23*
%TO.C,U13*%
X192230000Y-129305000D03*
X192230000Y-128655000D03*
X192230000Y-128005000D03*
X192230000Y-127355000D03*
X192230000Y-126705000D03*
X192230000Y-126055000D03*
X192230000Y-125405000D03*
X192230000Y-124755000D03*
X192230000Y-124105000D03*
X192230000Y-123455000D03*
X192230000Y-122805000D03*
X192230000Y-122155000D03*
X186230000Y-122155000D03*
X186230000Y-122805000D03*
X186230000Y-123455000D03*
X186230000Y-124105000D03*
X186230000Y-124755000D03*
X186230000Y-125405000D03*
X186230000Y-126055000D03*
X186230000Y-126705000D03*
X186230000Y-127355000D03*
X186230000Y-128005000D03*
X186230000Y-128655000D03*
X186230000Y-129305000D03*
D24*
X189230000Y-125730000D03*
%TD*%
M02*
