%FSLAX45Y45*%
G04 Gerber Fmt 4.5, Leading zero omitted, Abs format (unit mm)*
G04 Created by KiCad (PCBNEW (5.1.9)-1) date 2021-04-25 15:52:07*
%MOMM*%
%LPD*%
G01*
G04 APERTURE LIST*
%TA.AperFunction,Profile*%
%ADD10C,0.050000*%
%TD*%
%ADD11C,0.200000*%
%ADD12C,0.300000*%
G04 APERTURE END LIST*
D10*
X21209000Y-5461000D02*
X9779000Y-5461000D01*
X21209000Y-14351000D02*
X21209000Y-5461000D01*
X9779000Y-14351000D02*
X21209000Y-14351000D01*
X9779000Y-5461000D02*
X9779000Y-14351000D01*
D11*
X11214300Y-7634300D02*
X11239700Y-7659700D01*
X11239700Y-7634300D02*
X11214300Y-7659700D01*
X11214300Y-7734300D02*
X11239700Y-7759700D01*
X11239700Y-7734300D02*
X11214300Y-7759700D01*
X11214300Y-7834300D02*
X11239700Y-7859700D01*
X11239700Y-7834300D02*
X11214300Y-7859700D01*
X11324300Y-7634300D02*
X11349700Y-7659700D01*
X11349700Y-7634300D02*
X11324300Y-7659700D01*
X11324300Y-7734300D02*
X11349700Y-7759700D01*
X11349700Y-7734300D02*
X11324300Y-7759700D01*
X11324300Y-7834300D02*
X11349700Y-7859700D01*
X11349700Y-7834300D02*
X11324300Y-7859700D01*
X11434300Y-7634300D02*
X11459700Y-7659700D01*
X11459700Y-7634300D02*
X11434300Y-7659700D01*
X11434300Y-7734300D02*
X11459700Y-7759700D01*
X11459700Y-7734300D02*
X11434300Y-7759700D01*
X11434300Y-7834300D02*
X11459700Y-7859700D01*
X11459700Y-7834300D02*
X11434300Y-7859700D01*
X11544300Y-7634300D02*
X11569700Y-7659700D01*
X11569700Y-7634300D02*
X11544300Y-7659700D01*
X11544300Y-7734300D02*
X11569700Y-7759700D01*
X11569700Y-7734300D02*
X11544300Y-7759700D01*
X11544300Y-7834300D02*
X11569700Y-7859700D01*
X11569700Y-7834300D02*
X11544300Y-7859700D01*
X11654300Y-7634300D02*
X11679700Y-7659700D01*
X11679700Y-7634300D02*
X11654300Y-7659700D01*
X11654300Y-7734300D02*
X11679700Y-7759700D01*
X11679700Y-7734300D02*
X11654300Y-7759700D01*
X11654300Y-7834300D02*
X11679700Y-7859700D01*
X11679700Y-7834300D02*
X11654300Y-7859700D01*
X11764300Y-7634300D02*
X11789700Y-7659700D01*
X11789700Y-7634300D02*
X11764300Y-7659700D01*
X11764300Y-7734300D02*
X11789700Y-7759700D01*
X11789700Y-7734300D02*
X11764300Y-7759700D01*
X11764300Y-7834300D02*
X11789700Y-7859700D01*
X11789700Y-7834300D02*
X11764300Y-7859700D01*
X11874300Y-7634300D02*
X11899700Y-7659700D01*
X11899700Y-7634300D02*
X11874300Y-7659700D01*
X11874300Y-7734300D02*
X11899700Y-7759700D01*
X11899700Y-7734300D02*
X11874300Y-7759700D01*
X11874300Y-7834300D02*
X11899700Y-7859700D01*
X11899700Y-7834300D02*
X11874300Y-7859700D01*
X13563800Y-7634300D02*
X13589200Y-7659700D01*
X13589200Y-7634300D02*
X13563800Y-7659700D01*
X13563800Y-7734300D02*
X13589200Y-7759700D01*
X13589200Y-7734300D02*
X13563800Y-7759700D01*
X13563800Y-7834300D02*
X13589200Y-7859700D01*
X13589200Y-7834300D02*
X13563800Y-7859700D01*
X13673800Y-7634300D02*
X13699200Y-7659700D01*
X13699200Y-7634300D02*
X13673800Y-7659700D01*
X13673800Y-7734300D02*
X13699200Y-7759700D01*
X13699200Y-7734300D02*
X13673800Y-7759700D01*
X13673800Y-7834300D02*
X13699200Y-7859700D01*
X13699200Y-7834300D02*
X13673800Y-7859700D01*
X13783800Y-7634300D02*
X13809200Y-7659700D01*
X13809200Y-7634300D02*
X13783800Y-7659700D01*
X13783800Y-7734300D02*
X13809200Y-7759700D01*
X13809200Y-7734300D02*
X13783800Y-7759700D01*
X13783800Y-7834300D02*
X13809200Y-7859700D01*
X13809200Y-7834300D02*
X13783800Y-7859700D01*
X13893800Y-7634300D02*
X13919200Y-7659700D01*
X13919200Y-7634300D02*
X13893800Y-7659700D01*
X13893800Y-7734300D02*
X13919200Y-7759700D01*
X13919200Y-7734300D02*
X13893800Y-7759700D01*
X13893800Y-7834300D02*
X13919200Y-7859700D01*
X13919200Y-7834300D02*
X13893800Y-7859700D01*
X14003800Y-7634300D02*
X14029200Y-7659700D01*
X14029200Y-7634300D02*
X14003800Y-7659700D01*
X14003800Y-7734300D02*
X14029200Y-7759700D01*
X14029200Y-7734300D02*
X14003800Y-7759700D01*
X14003800Y-7834300D02*
X14029200Y-7859700D01*
X14029200Y-7834300D02*
X14003800Y-7859700D01*
X14113800Y-7634300D02*
X14139200Y-7659700D01*
X14139200Y-7634300D02*
X14113800Y-7659700D01*
X14113800Y-7734300D02*
X14139200Y-7759700D01*
X14139200Y-7734300D02*
X14113800Y-7759700D01*
X14113800Y-7834300D02*
X14139200Y-7859700D01*
X14139200Y-7834300D02*
X14113800Y-7859700D01*
X14223800Y-7634300D02*
X14249200Y-7659700D01*
X14249200Y-7634300D02*
X14223800Y-7659700D01*
X14223800Y-7734300D02*
X14249200Y-7759700D01*
X14249200Y-7734300D02*
X14223800Y-7759700D01*
X14223800Y-7834300D02*
X14249200Y-7859700D01*
X14249200Y-7834300D02*
X14223800Y-7859700D01*
X15913300Y-7634300D02*
X15938700Y-7659700D01*
X15938700Y-7634300D02*
X15913300Y-7659700D01*
X15913300Y-7734300D02*
X15938700Y-7759700D01*
X15938700Y-7734300D02*
X15913300Y-7759700D01*
X15913300Y-7834300D02*
X15938700Y-7859700D01*
X15938700Y-7834300D02*
X15913300Y-7859700D01*
X16023300Y-7634300D02*
X16048700Y-7659700D01*
X16048700Y-7634300D02*
X16023300Y-7659700D01*
X16023300Y-7734300D02*
X16048700Y-7759700D01*
X16048700Y-7734300D02*
X16023300Y-7759700D01*
X16023300Y-7834300D02*
X16048700Y-7859700D01*
X16048700Y-7834300D02*
X16023300Y-7859700D01*
X16133300Y-7634300D02*
X16158700Y-7659700D01*
X16158700Y-7634300D02*
X16133300Y-7659700D01*
X16133300Y-7734300D02*
X16158700Y-7759700D01*
X16158700Y-7734300D02*
X16133300Y-7759700D01*
X16133300Y-7834300D02*
X16158700Y-7859700D01*
X16158700Y-7834300D02*
X16133300Y-7859700D01*
X16243300Y-7634300D02*
X16268700Y-7659700D01*
X16268700Y-7634300D02*
X16243300Y-7659700D01*
X16243300Y-7734300D02*
X16268700Y-7759700D01*
X16268700Y-7734300D02*
X16243300Y-7759700D01*
X16243300Y-7834300D02*
X16268700Y-7859700D01*
X16268700Y-7834300D02*
X16243300Y-7859700D01*
X16353300Y-7634300D02*
X16378700Y-7659700D01*
X16378700Y-7634300D02*
X16353300Y-7659700D01*
X16353300Y-7734300D02*
X16378700Y-7759700D01*
X16378700Y-7734300D02*
X16353300Y-7759700D01*
X16353300Y-7834300D02*
X16378700Y-7859700D01*
X16378700Y-7834300D02*
X16353300Y-7859700D01*
X16463300Y-7634300D02*
X16488700Y-7659700D01*
X16488700Y-7634300D02*
X16463300Y-7659700D01*
X16463300Y-7734300D02*
X16488700Y-7759700D01*
X16488700Y-7734300D02*
X16463300Y-7759700D01*
X16463300Y-7834300D02*
X16488700Y-7859700D01*
X16488700Y-7834300D02*
X16463300Y-7859700D01*
X16573300Y-7634300D02*
X16598700Y-7659700D01*
X16598700Y-7634300D02*
X16573300Y-7659700D01*
X16573300Y-7734300D02*
X16598700Y-7759700D01*
X16598700Y-7734300D02*
X16573300Y-7759700D01*
X16573300Y-7834300D02*
X16598700Y-7859700D01*
X16598700Y-7834300D02*
X16573300Y-7859700D01*
X18262800Y-7634300D02*
X18288200Y-7659700D01*
X18288200Y-7634300D02*
X18262800Y-7659700D01*
X18262800Y-7734300D02*
X18288200Y-7759700D01*
X18288200Y-7734300D02*
X18262800Y-7759700D01*
X18262800Y-7834300D02*
X18288200Y-7859700D01*
X18288200Y-7834300D02*
X18262800Y-7859700D01*
X18372800Y-7634300D02*
X18398200Y-7659700D01*
X18398200Y-7634300D02*
X18372800Y-7659700D01*
X18372800Y-7734300D02*
X18398200Y-7759700D01*
X18398200Y-7734300D02*
X18372800Y-7759700D01*
X18372800Y-7834300D02*
X18398200Y-7859700D01*
X18398200Y-7834300D02*
X18372800Y-7859700D01*
X18482800Y-7634300D02*
X18508200Y-7659700D01*
X18508200Y-7634300D02*
X18482800Y-7659700D01*
X18482800Y-7734300D02*
X18508200Y-7759700D01*
X18508200Y-7734300D02*
X18482800Y-7759700D01*
X18482800Y-7834300D02*
X18508200Y-7859700D01*
X18508200Y-7834300D02*
X18482800Y-7859700D01*
X18592800Y-7634300D02*
X18618200Y-7659700D01*
X18618200Y-7634300D02*
X18592800Y-7659700D01*
X18592800Y-7734300D02*
X18618200Y-7759700D01*
X18618200Y-7734300D02*
X18592800Y-7759700D01*
X18592800Y-7834300D02*
X18618200Y-7859700D01*
X18618200Y-7834300D02*
X18592800Y-7859700D01*
X18702800Y-7634300D02*
X18728200Y-7659700D01*
X18728200Y-7634300D02*
X18702800Y-7659700D01*
X18702800Y-7734300D02*
X18728200Y-7759700D01*
X18728200Y-7734300D02*
X18702800Y-7759700D01*
X18702800Y-7834300D02*
X18728200Y-7859700D01*
X18728200Y-7834300D02*
X18702800Y-7859700D01*
X18810300Y-9880800D02*
X18835700Y-9906200D01*
X18835700Y-9880800D02*
X18810300Y-9906200D01*
X18810300Y-9990800D02*
X18835700Y-10016200D01*
X18835700Y-9990800D02*
X18810300Y-10016200D01*
X18810300Y-10100800D02*
X18835700Y-10126200D01*
X18835700Y-10100800D02*
X18810300Y-10126200D01*
X18810300Y-10210800D02*
X18835700Y-10236200D01*
X18835700Y-10210800D02*
X18810300Y-10236200D01*
X18810300Y-10320800D02*
X18835700Y-10346200D01*
X18835700Y-10320800D02*
X18810300Y-10346200D01*
X18810300Y-10430800D02*
X18835700Y-10456200D01*
X18835700Y-10430800D02*
X18810300Y-10456200D01*
X18810300Y-10540800D02*
X18835700Y-10566200D01*
X18835700Y-10540800D02*
X18810300Y-10566200D01*
X18810300Y-12230300D02*
X18835700Y-12255700D01*
X18835700Y-12230300D02*
X18810300Y-12255700D01*
X18810300Y-12340300D02*
X18835700Y-12365700D01*
X18835700Y-12340300D02*
X18810300Y-12365700D01*
X18810300Y-12450300D02*
X18835700Y-12475700D01*
X18835700Y-12450300D02*
X18810300Y-12475700D01*
X18810300Y-12560300D02*
X18835700Y-12585700D01*
X18835700Y-12560300D02*
X18810300Y-12585700D01*
X18810300Y-12670300D02*
X18835700Y-12695700D01*
X18835700Y-12670300D02*
X18810300Y-12695700D01*
X18810300Y-12780300D02*
X18835700Y-12805700D01*
X18835700Y-12780300D02*
X18810300Y-12805700D01*
X18810300Y-12890300D02*
X18835700Y-12915700D01*
X18835700Y-12890300D02*
X18810300Y-12915700D01*
X18812800Y-7634300D02*
X18838200Y-7659700D01*
X18838200Y-7634300D02*
X18812800Y-7659700D01*
X18812800Y-7734300D02*
X18838200Y-7759700D01*
X18838200Y-7734300D02*
X18812800Y-7759700D01*
X18812800Y-7834300D02*
X18838200Y-7859700D01*
X18838200Y-7834300D02*
X18812800Y-7859700D01*
X18910300Y-9880800D02*
X18935700Y-9906200D01*
X18935700Y-9880800D02*
X18910300Y-9906200D01*
X18910300Y-9990800D02*
X18935700Y-10016200D01*
X18935700Y-9990800D02*
X18910300Y-10016200D01*
X18910300Y-10100800D02*
X18935700Y-10126200D01*
X18935700Y-10100800D02*
X18910300Y-10126200D01*
X18910300Y-10210800D02*
X18935700Y-10236200D01*
X18935700Y-10210800D02*
X18910300Y-10236200D01*
X18910300Y-10320800D02*
X18935700Y-10346200D01*
X18935700Y-10320800D02*
X18910300Y-10346200D01*
X18910300Y-10430800D02*
X18935700Y-10456200D01*
X18935700Y-10430800D02*
X18910300Y-10456200D01*
X18910300Y-10540800D02*
X18935700Y-10566200D01*
X18935700Y-10540800D02*
X18910300Y-10566200D01*
X18910300Y-12230300D02*
X18935700Y-12255700D01*
X18935700Y-12230300D02*
X18910300Y-12255700D01*
X18910300Y-12340300D02*
X18935700Y-12365700D01*
X18935700Y-12340300D02*
X18910300Y-12365700D01*
X18910300Y-12450300D02*
X18935700Y-12475700D01*
X18935700Y-12450300D02*
X18910300Y-12475700D01*
X18910300Y-12560300D02*
X18935700Y-12585700D01*
X18935700Y-12560300D02*
X18910300Y-12585700D01*
X18910300Y-12670300D02*
X18935700Y-12695700D01*
X18935700Y-12670300D02*
X18910300Y-12695700D01*
X18910300Y-12780300D02*
X18935700Y-12805700D01*
X18935700Y-12780300D02*
X18910300Y-12805700D01*
X18910300Y-12890300D02*
X18935700Y-12915700D01*
X18935700Y-12890300D02*
X18910300Y-12915700D01*
X18922800Y-7634300D02*
X18948200Y-7659700D01*
X18948200Y-7634300D02*
X18922800Y-7659700D01*
X18922800Y-7734300D02*
X18948200Y-7759700D01*
X18948200Y-7734300D02*
X18922800Y-7759700D01*
X18922800Y-7834300D02*
X18948200Y-7859700D01*
X18948200Y-7834300D02*
X18922800Y-7859700D01*
X19010300Y-9880800D02*
X19035700Y-9906200D01*
X19035700Y-9880800D02*
X19010300Y-9906200D01*
X19010300Y-9990800D02*
X19035700Y-10016200D01*
X19035700Y-9990800D02*
X19010300Y-10016200D01*
X19010300Y-10100800D02*
X19035700Y-10126200D01*
X19035700Y-10100800D02*
X19010300Y-10126200D01*
X19010300Y-10210800D02*
X19035700Y-10236200D01*
X19035700Y-10210800D02*
X19010300Y-10236200D01*
X19010300Y-10320800D02*
X19035700Y-10346200D01*
X19035700Y-10320800D02*
X19010300Y-10346200D01*
X19010300Y-10430800D02*
X19035700Y-10456200D01*
X19035700Y-10430800D02*
X19010300Y-10456200D01*
X19010300Y-10540800D02*
X19035700Y-10566200D01*
X19035700Y-10540800D02*
X19010300Y-10566200D01*
X19010300Y-12230300D02*
X19035700Y-12255700D01*
X19035700Y-12230300D02*
X19010300Y-12255700D01*
X19010300Y-12340300D02*
X19035700Y-12365700D01*
X19035700Y-12340300D02*
X19010300Y-12365700D01*
X19010300Y-12450300D02*
X19035700Y-12475700D01*
X19035700Y-12450300D02*
X19010300Y-12475700D01*
X19010300Y-12560300D02*
X19035700Y-12585700D01*
X19035700Y-12560300D02*
X19010300Y-12585700D01*
X19010300Y-12670300D02*
X19035700Y-12695700D01*
X19035700Y-12670300D02*
X19010300Y-12695700D01*
X19010300Y-12780300D02*
X19035700Y-12805700D01*
X19035700Y-12780300D02*
X19010300Y-12805700D01*
X19010300Y-12890300D02*
X19035700Y-12915700D01*
X19035700Y-12890300D02*
X19010300Y-12915700D01*
X10048000Y-12115800D02*
G75*
G03*
X10048000Y-12115800I-15000J0D01*
G01*
X10048000Y-12293600D02*
G75*
G03*
X10048000Y-12293600I-15000J0D01*
G01*
X10048000Y-12446000D02*
G75*
G03*
X10048000Y-12446000I-15000J0D01*
G01*
X10048000Y-12598400D02*
G75*
G03*
X10048000Y-12598400I-15000J0D01*
G01*
X10048000Y-13208000D02*
G75*
G03*
X10048000Y-13208000I-15000J0D01*
G01*
X10048000Y-13335000D02*
G75*
G03*
X10048000Y-13335000I-15000J0D01*
G01*
X10048000Y-13462000D02*
G75*
G03*
X10048000Y-13462000I-15000J0D01*
G01*
X10048000Y-13589000D02*
G75*
G03*
X10048000Y-13589000I-15000J0D01*
G01*
X10048000Y-13716000D02*
G75*
G03*
X10048000Y-13716000I-15000J0D01*
G01*
X10048000Y-13843000D02*
G75*
G03*
X10048000Y-13843000I-15000J0D01*
G01*
X10175000Y-13843000D02*
G75*
G03*
X10175000Y-13843000I-15000J0D01*
G01*
X10238500Y-9309100D02*
G75*
G03*
X10238500Y-9309100I-15000J0D01*
G01*
X10238500Y-9461500D02*
G75*
G03*
X10238500Y-9461500I-15000J0D01*
G01*
X10238500Y-9563100D02*
G75*
G03*
X10238500Y-9563100I-15000J0D01*
G01*
X10238500Y-10655300D02*
G75*
G03*
X10238500Y-10655300I-15000J0D01*
G01*
X10238500Y-10756900D02*
G75*
G03*
X10238500Y-10756900I-15000J0D01*
G01*
X10238500Y-10871200D02*
G75*
G03*
X10238500Y-10871200I-15000J0D01*
G01*
X10251200Y-9855200D02*
G75*
G03*
X10251200Y-9855200I-15000J0D01*
G01*
X10251200Y-9969500D02*
G75*
G03*
X10251200Y-9969500I-15000J0D01*
G01*
X10251200Y-10261600D02*
G75*
G03*
X10251200Y-10261600I-15000J0D01*
G01*
X10251200Y-12115800D02*
G75*
G03*
X10251200Y-12115800I-15000J0D01*
G01*
X10302000Y-13843000D02*
G75*
G03*
X10302000Y-13843000I-15000J0D01*
G01*
X10429000Y-12115800D02*
G75*
G03*
X10429000Y-12115800I-15000J0D01*
G01*
X10429000Y-13843000D02*
G75*
G03*
X10429000Y-13843000I-15000J0D01*
G01*
X10556000Y-13843000D02*
G75*
G03*
X10556000Y-13843000I-15000J0D01*
G01*
X10606800Y-12115800D02*
G75*
G03*
X10606800Y-12115800I-15000J0D01*
G01*
X10683000Y-13843000D02*
G75*
G03*
X10683000Y-13843000I-15000J0D01*
G01*
X10695700Y-8064500D02*
G75*
G03*
X10695700Y-8064500I-15000J0D01*
G01*
X10695700Y-8267700D02*
G75*
G03*
X10695700Y-8267700I-15000J0D01*
G01*
X10810000Y-12115800D02*
G75*
G03*
X10810000Y-12115800I-15000J0D01*
G01*
X10810000Y-12293600D02*
G75*
G03*
X10810000Y-12293600I-15000J0D01*
G01*
X10810000Y-12446000D02*
G75*
G03*
X10810000Y-12446000I-15000J0D01*
G01*
X10810000Y-12598400D02*
G75*
G03*
X10810000Y-12598400I-15000J0D01*
G01*
X10810000Y-13208000D02*
G75*
G03*
X10810000Y-13208000I-15000J0D01*
G01*
X10810000Y-13335000D02*
G75*
G03*
X10810000Y-13335000I-15000J0D01*
G01*
X10810000Y-13462000D02*
G75*
G03*
X10810000Y-13462000I-15000J0D01*
G01*
X10810000Y-13589000D02*
G75*
G03*
X10810000Y-13589000I-15000J0D01*
G01*
X10810000Y-13716000D02*
G75*
G03*
X10810000Y-13716000I-15000J0D01*
G01*
X10810000Y-13843000D02*
G75*
G03*
X10810000Y-13843000I-15000J0D01*
G01*
X11140200Y-8686800D02*
G75*
G03*
X11140200Y-8686800I-15000J0D01*
G01*
X11191000Y-12573000D02*
G75*
G03*
X11191000Y-12573000I-15000J0D01*
G01*
X11191000Y-12700000D02*
G75*
G03*
X11191000Y-12700000I-15000J0D01*
G01*
X11191000Y-12827000D02*
G75*
G03*
X11191000Y-12827000I-15000J0D01*
G01*
X11203700Y-7099300D02*
G75*
G03*
X11203700Y-7099300I-15000J0D01*
G01*
X11445000Y-8813800D02*
G75*
G03*
X11445000Y-8813800I-15000J0D01*
G01*
X11604500Y-8255000D02*
G75*
G03*
X11604500Y-8255000I-15000J0D01*
G01*
X11622800Y-8813800D02*
G75*
G03*
X11622800Y-8813800I-15000J0D01*
G01*
X11622800Y-9728200D02*
G75*
G03*
X11622800Y-9728200I-15000J0D01*
G01*
X11699000Y-9804400D02*
G75*
G03*
X11699000Y-9804400I-15000J0D01*
G01*
X11953000Y-9652000D02*
G75*
G03*
X11953000Y-9652000I-15000J0D01*
G01*
X11978400Y-9296400D02*
G75*
G03*
X11978400Y-9296400I-15000J0D01*
G01*
X12029200Y-12420600D02*
G75*
G03*
X12029200Y-12420600I-15000J0D01*
G01*
X12029200Y-12623800D02*
G75*
G03*
X12029200Y-12623800I-15000J0D01*
G01*
X12054600Y-9118600D02*
G75*
G03*
X12054600Y-9118600I-15000J0D01*
G01*
X12130800Y-9398000D02*
G75*
G03*
X12130800Y-9398000I-15000J0D01*
G01*
X12130800Y-9550400D02*
G75*
G03*
X12130800Y-9550400I-15000J0D01*
G01*
X12207000Y-12420600D02*
G75*
G03*
X12207000Y-12420600I-15000J0D01*
G01*
X12207400Y-9119000D02*
G75*
G03*
X12207400Y-9119000I-15000J0D01*
G01*
X12257800Y-9207500D02*
G75*
G03*
X12257800Y-9207500I-15000J0D01*
G01*
X12422900Y-6591300D02*
G75*
G03*
X12422900Y-6591300I-15000J0D01*
G01*
X12422900Y-6705600D02*
G75*
G03*
X12422900Y-6705600I-15000J0D01*
G01*
X12422900Y-6807200D02*
G75*
G03*
X12422900Y-6807200I-15000J0D01*
G01*
X12422900Y-6921500D02*
G75*
G03*
X12422900Y-6921500I-15000J0D01*
G01*
X12461000Y-11125200D02*
G75*
G03*
X12461000Y-11125200I-15000J0D01*
G01*
X12461000Y-11277600D02*
G75*
G03*
X12461000Y-11277600I-15000J0D01*
G01*
X12461000Y-11430000D02*
G75*
G03*
X12461000Y-11430000I-15000J0D01*
G01*
X12461000Y-11582400D02*
G75*
G03*
X12461000Y-11582400I-15000J0D01*
G01*
X12461000Y-11734800D02*
G75*
G03*
X12461000Y-11734800I-15000J0D01*
G01*
X12461000Y-11887200D02*
G75*
G03*
X12461000Y-11887200I-15000J0D01*
G01*
X12524500Y-7734300D02*
G75*
G03*
X12524500Y-7734300I-15000J0D01*
G01*
X12587600Y-8534000D02*
G75*
G03*
X12587600Y-8534000I-15000J0D01*
G01*
X12613400Y-12344400D02*
G75*
G03*
X12613400Y-12344400I-15000J0D01*
G01*
X12613400Y-12471400D02*
G75*
G03*
X12613400Y-12471400I-15000J0D01*
G01*
X12613400Y-12598400D02*
G75*
G03*
X12613400Y-12598400I-15000J0D01*
G01*
X12651500Y-7734300D02*
G75*
G03*
X12651500Y-7734300I-15000J0D01*
G01*
X12664200Y-10922000D02*
G75*
G03*
X12664200Y-10922000I-15000J0D01*
G01*
X12778500Y-7734300D02*
G75*
G03*
X12778500Y-7734300I-15000J0D01*
G01*
X12816600Y-10922000D02*
G75*
G03*
X12816600Y-10922000I-15000J0D01*
G01*
X12816600Y-12344400D02*
G75*
G03*
X12816600Y-12344400I-15000J0D01*
G01*
X12892800Y-6591300D02*
G75*
G03*
X12892800Y-6591300I-15000J0D01*
G01*
X12892800Y-6705600D02*
G75*
G03*
X12892800Y-6705600I-15000J0D01*
G01*
X12892800Y-6807200D02*
G75*
G03*
X12892800Y-6807200I-15000J0D01*
G01*
X12892800Y-6934200D02*
G75*
G03*
X12892800Y-6934200I-15000J0D01*
G01*
X12969000Y-10922000D02*
G75*
G03*
X12969000Y-10922000I-15000J0D01*
G01*
X13032500Y-8064500D02*
G75*
G03*
X13032500Y-8064500I-15000J0D01*
G01*
X13032500Y-8255000D02*
G75*
G03*
X13032500Y-8255000I-15000J0D01*
G01*
X13045200Y-9779000D02*
G75*
G03*
X13045200Y-9779000I-15000J0D01*
G01*
X13096000Y-9931400D02*
G75*
G03*
X13096000Y-9931400I-15000J0D01*
G01*
X13121400Y-10922000D02*
G75*
G03*
X13121400Y-10922000I-15000J0D01*
G01*
X13159500Y-7315200D02*
G75*
G03*
X13159500Y-7315200I-15000J0D01*
G01*
X13159500Y-12382500D02*
G75*
G03*
X13159500Y-12382500I-15000J0D01*
G01*
X13223000Y-8458200D02*
G75*
G03*
X13223000Y-8458200I-15000J0D01*
G01*
X13223000Y-8661400D02*
G75*
G03*
X13223000Y-8661400I-15000J0D01*
G01*
X13273800Y-9398000D02*
G75*
G03*
X13273800Y-9398000I-15000J0D01*
G01*
X13273800Y-9550400D02*
G75*
G03*
X13273800Y-9550400I-15000J0D01*
G01*
X13273800Y-10922000D02*
G75*
G03*
X13273800Y-10922000I-15000J0D01*
G01*
X13365350Y-7355950D02*
G75*
G03*
X13365350Y-7355950I-15000J0D01*
G01*
X13426200Y-10922000D02*
G75*
G03*
X13426200Y-10922000I-15000J0D01*
G01*
X13456400Y-7447000D02*
G75*
G03*
X13456400Y-7447000I-15000J0D01*
G01*
X13499500Y-12372700D02*
G75*
G03*
X13499500Y-12372700I-15000J0D01*
G01*
X13537850Y-7089250D02*
G75*
G03*
X13537850Y-7089250I-15000J0D01*
G01*
X13553200Y-8407400D02*
G75*
G03*
X13553200Y-8407400I-15000J0D01*
G01*
X13578600Y-10922000D02*
G75*
G03*
X13578600Y-10922000I-15000J0D01*
G01*
X13692900Y-8470900D02*
G75*
G03*
X13692900Y-8470900I-15000J0D01*
G01*
X13731000Y-10922000D02*
G75*
G03*
X13731000Y-10922000I-15000J0D01*
G01*
X13756400Y-8305800D02*
G75*
G03*
X13756400Y-8305800I-15000J0D01*
G01*
X13832600Y-9067800D02*
G75*
G03*
X13832600Y-9067800I-15000J0D01*
G01*
X13883400Y-11125200D02*
G75*
G03*
X13883400Y-11125200I-15000J0D01*
G01*
X13883400Y-11277600D02*
G75*
G03*
X13883400Y-11277600I-15000J0D01*
G01*
X13883400Y-11430000D02*
G75*
G03*
X13883400Y-11430000I-15000J0D01*
G01*
X13883400Y-11582400D02*
G75*
G03*
X13883400Y-11582400I-15000J0D01*
G01*
X13883400Y-11734800D02*
G75*
G03*
X13883400Y-11734800I-15000J0D01*
G01*
X13883400Y-11887200D02*
G75*
G03*
X13883400Y-11887200I-15000J0D01*
G01*
X13959600Y-8305800D02*
G75*
G03*
X13959600Y-8305800I-15000J0D01*
G01*
X14086600Y-8813800D02*
G75*
G03*
X14086600Y-8813800I-15000J0D01*
G01*
X14264400Y-8813800D02*
G75*
G03*
X14264400Y-8813800I-15000J0D01*
G01*
X14264400Y-10033000D02*
G75*
G03*
X14264400Y-10033000I-15000J0D01*
G01*
X14315200Y-12636500D02*
G75*
G03*
X14315200Y-12636500I-15000J0D01*
G01*
X14340600Y-10109200D02*
G75*
G03*
X14340600Y-10109200I-15000J0D01*
G01*
X14467600Y-8813800D02*
G75*
G03*
X14467600Y-8813800I-15000J0D01*
G01*
X14467600Y-9550400D02*
G75*
G03*
X14467600Y-9550400I-15000J0D01*
G01*
X14518400Y-9626600D02*
G75*
G03*
X14518400Y-9626600I-15000J0D01*
G01*
X14518400Y-10541000D02*
G75*
G03*
X14518400Y-10541000I-15000J0D01*
G01*
X14518400Y-10642600D02*
G75*
G03*
X14518400Y-10642600I-15000J0D01*
G01*
X14594600Y-9702800D02*
G75*
G03*
X14594600Y-9702800I-15000J0D01*
G01*
X14645400Y-8813800D02*
G75*
G03*
X14645400Y-8813800I-15000J0D01*
G01*
X14645400Y-14097000D02*
G75*
G03*
X14645400Y-14097000I-15000J0D01*
G01*
X14670800Y-12903200D02*
G75*
G03*
X14670800Y-12903200I-15000J0D01*
G01*
X14670800Y-13919200D02*
G75*
G03*
X14670800Y-13919200I-15000J0D01*
G01*
X14721600Y-10109200D02*
G75*
G03*
X14721600Y-10109200I-15000J0D01*
G01*
X14772400Y-6553200D02*
G75*
G03*
X14772400Y-6553200I-15000J0D01*
G01*
X14772400Y-6680200D02*
G75*
G03*
X14772400Y-6680200I-15000J0D01*
G01*
X14772400Y-6807200D02*
G75*
G03*
X14772400Y-6807200I-15000J0D01*
G01*
X14772400Y-6934200D02*
G75*
G03*
X14772400Y-6934200I-15000J0D01*
G01*
X14874000Y-7734300D02*
G75*
G03*
X14874000Y-7734300I-15000J0D01*
G01*
X15001000Y-7734300D02*
G75*
G03*
X15001000Y-7734300I-15000J0D01*
G01*
X15051800Y-10769600D02*
G75*
G03*
X15051800Y-10769600I-15000J0D01*
G01*
X15128000Y-7734300D02*
G75*
G03*
X15128000Y-7734300I-15000J0D01*
G01*
X15153400Y-11430000D02*
G75*
G03*
X15153400Y-11430000I-15000J0D01*
G01*
X15153400Y-11557000D02*
G75*
G03*
X15153400Y-11557000I-15000J0D01*
G01*
X15153400Y-11684000D02*
G75*
G03*
X15153400Y-11684000I-15000J0D01*
G01*
X15153400Y-11836400D02*
G75*
G03*
X15153400Y-11836400I-15000J0D01*
G01*
X15229600Y-9144000D02*
G75*
G03*
X15229600Y-9144000I-15000J0D01*
G01*
X15229600Y-12217400D02*
G75*
G03*
X15229600Y-12217400I-15000J0D01*
G01*
X15229600Y-12319000D02*
G75*
G03*
X15229600Y-12319000I-15000J0D01*
G01*
X15229600Y-12446000D02*
G75*
G03*
X15229600Y-12446000I-15000J0D01*
G01*
X15242300Y-6553200D02*
G75*
G03*
X15242300Y-6553200I-15000J0D01*
G01*
X15242300Y-6680200D02*
G75*
G03*
X15242300Y-6680200I-15000J0D01*
G01*
X15242300Y-6807200D02*
G75*
G03*
X15242300Y-6807200I-15000J0D01*
G01*
X15242300Y-6946900D02*
G75*
G03*
X15242300Y-6946900I-15000J0D01*
G01*
X15255000Y-10363200D02*
G75*
G03*
X15255000Y-10363200I-15000J0D01*
G01*
X15305800Y-10261600D02*
G75*
G03*
X15305800Y-10261600I-15000J0D01*
G01*
X15331200Y-10744200D02*
G75*
G03*
X15331200Y-10744200I-15000J0D01*
G01*
X15331200Y-12217400D02*
G75*
G03*
X15331200Y-12217400I-15000J0D01*
G01*
X15382000Y-9296400D02*
G75*
G03*
X15382000Y-9296400I-15000J0D01*
G01*
X15382000Y-13131800D02*
G75*
G03*
X15382000Y-13131800I-15000J0D01*
G01*
X15382000Y-13258800D02*
G75*
G03*
X15382000Y-13258800I-15000J0D01*
G01*
X15382000Y-13385800D02*
G75*
G03*
X15382000Y-13385800I-15000J0D01*
G01*
X15382000Y-13512800D02*
G75*
G03*
X15382000Y-13512800I-15000J0D01*
G01*
X15382000Y-13639800D02*
G75*
G03*
X15382000Y-13639800I-15000J0D01*
G01*
X15394700Y-8064500D02*
G75*
G03*
X15394700Y-8064500I-15000J0D01*
G01*
X15394700Y-8255000D02*
G75*
G03*
X15394700Y-8255000I-15000J0D01*
G01*
X15509000Y-7327900D02*
G75*
G03*
X15509000Y-7327900I-15000J0D01*
G01*
X15534400Y-8509000D02*
G75*
G03*
X15534400Y-8509000I-15000J0D01*
G01*
X15534400Y-8661400D02*
G75*
G03*
X15534400Y-8661400I-15000J0D01*
G01*
X15534400Y-12573000D02*
G75*
G03*
X15534400Y-12573000I-15000J0D01*
G01*
X15534400Y-12776200D02*
G75*
G03*
X15534400Y-12776200I-15000J0D01*
G01*
X15559800Y-10109200D02*
G75*
G03*
X15559800Y-10109200I-15000J0D01*
G01*
X15597900Y-10261600D02*
G75*
G03*
X15597900Y-10261600I-15000J0D01*
G01*
X15651200Y-10581600D02*
G75*
G03*
X15651200Y-10581600I-15000J0D01*
G01*
X15661400Y-12776200D02*
G75*
G03*
X15661400Y-12776200I-15000J0D01*
G01*
X15702150Y-7330550D02*
G75*
G03*
X15702150Y-7330550I-15000J0D01*
G01*
X15788400Y-11023600D02*
G75*
G03*
X15788400Y-11023600I-15000J0D01*
G01*
X15818600Y-7447000D02*
G75*
G03*
X15818600Y-7447000I-15000J0D01*
G01*
X15864600Y-8712200D02*
G75*
G03*
X15864600Y-8712200I-15000J0D01*
G01*
X15874650Y-7101950D02*
G75*
G03*
X15874650Y-7101950I-15000J0D01*
G01*
X15976250Y-12989450D02*
G75*
G03*
X15976250Y-12989450I-15000J0D01*
G01*
X16042400Y-13766800D02*
G75*
G03*
X16042400Y-13766800I-15000J0D01*
G01*
X16144000Y-8813800D02*
G75*
G03*
X16144000Y-8813800I-15000J0D01*
G01*
X16296400Y-11430000D02*
G75*
G03*
X16296400Y-11430000I-15000J0D01*
G01*
X16296400Y-11582400D02*
G75*
G03*
X16296400Y-11582400I-15000J0D01*
G01*
X16296400Y-11709400D02*
G75*
G03*
X16296400Y-11709400I-15000J0D01*
G01*
X16296400Y-11861800D02*
G75*
G03*
X16296400Y-11861800I-15000J0D01*
G01*
X16296400Y-12014200D02*
G75*
G03*
X16296400Y-12014200I-15000J0D01*
G01*
X16301200Y-8305800D02*
G75*
G03*
X16301200Y-8305800I-15000J0D01*
G01*
X16321800Y-8813800D02*
G75*
G03*
X16321800Y-8813800I-15000J0D01*
G01*
X16334500Y-10909300D02*
G75*
G03*
X16334500Y-10909300I-15000J0D01*
G01*
X16550400Y-11201400D02*
G75*
G03*
X16550400Y-11201400I-15000J0D01*
G01*
X16677400Y-9017000D02*
G75*
G03*
X16677400Y-9017000I-15000J0D01*
G01*
X16779000Y-9093200D02*
G75*
G03*
X16779000Y-9093200I-15000J0D01*
G01*
X16829800Y-9347200D02*
G75*
G03*
X16829800Y-9347200I-15000J0D01*
G01*
X16829800Y-9499600D02*
G75*
G03*
X16829800Y-9499600I-15000J0D01*
G01*
X16855200Y-9182900D02*
G75*
G03*
X16855200Y-9182900I-15000J0D01*
G01*
X16906000Y-11125200D02*
G75*
G03*
X16906000Y-11125200I-15000J0D01*
G01*
X16906000Y-12522200D02*
G75*
G03*
X16906000Y-12522200I-15000J0D01*
G01*
X16931400Y-8509000D02*
G75*
G03*
X16931400Y-8509000I-15000J0D01*
G01*
X17071100Y-10807700D02*
G75*
G03*
X17071100Y-10807700I-15000J0D01*
G01*
X17071100Y-11925300D02*
G75*
G03*
X17071100Y-11925300I-15000J0D01*
G01*
X17083800Y-9829800D02*
G75*
G03*
X17083800Y-9829800I-15000J0D01*
G01*
X17121900Y-6553200D02*
G75*
G03*
X17121900Y-6553200I-15000J0D01*
G01*
X17121900Y-6680200D02*
G75*
G03*
X17121900Y-6680200I-15000J0D01*
G01*
X17121900Y-6807200D02*
G75*
G03*
X17121900Y-6807200I-15000J0D01*
G01*
X17121900Y-6946900D02*
G75*
G03*
X17121900Y-6946900I-15000J0D01*
G01*
X17185400Y-9626600D02*
G75*
G03*
X17185400Y-9626600I-15000J0D01*
G01*
X17223500Y-7734300D02*
G75*
G03*
X17223500Y-7734300I-15000J0D01*
G01*
X17223500Y-10807700D02*
G75*
G03*
X17223500Y-10807700I-15000J0D01*
G01*
X17223500Y-11925300D02*
G75*
G03*
X17223500Y-11925300I-15000J0D01*
G01*
X17350500Y-7734300D02*
G75*
G03*
X17350500Y-7734300I-15000J0D01*
G01*
X17350500Y-11074400D02*
G75*
G03*
X17350500Y-11074400I-15000J0D01*
G01*
X17477500Y-10617200D02*
G75*
G03*
X17477500Y-10617200I-15000J0D01*
G01*
X17490200Y-7734300D02*
G75*
G03*
X17490200Y-7734300I-15000J0D01*
G01*
X17541000Y-12446000D02*
G75*
G03*
X17541000Y-12446000I-15000J0D01*
G01*
X17591800Y-6553200D02*
G75*
G03*
X17591800Y-6553200I-15000J0D01*
G01*
X17591800Y-6680200D02*
G75*
G03*
X17591800Y-6680200I-15000J0D01*
G01*
X17591800Y-6807200D02*
G75*
G03*
X17591800Y-6807200I-15000J0D01*
G01*
X17591800Y-6946900D02*
G75*
G03*
X17591800Y-6946900I-15000J0D01*
G01*
X17591800Y-12598400D02*
G75*
G03*
X17591800Y-12598400I-15000J0D01*
G01*
X17642600Y-10591800D02*
G75*
G03*
X17642600Y-10591800I-15000J0D01*
G01*
X17731500Y-8064500D02*
G75*
G03*
X17731500Y-8064500I-15000J0D01*
G01*
X17731500Y-8255000D02*
G75*
G03*
X17731500Y-8255000I-15000J0D01*
G01*
X17820400Y-10083800D02*
G75*
G03*
X17820400Y-10083800I-15000J0D01*
G01*
X17820400Y-10287000D02*
G75*
G03*
X17820400Y-10287000I-15000J0D01*
G01*
X17820400Y-12712700D02*
G75*
G03*
X17820400Y-12712700I-15000J0D01*
G01*
X17820400Y-13131800D02*
G75*
G03*
X17820400Y-13131800I-15000J0D01*
G01*
X17820400Y-13309600D02*
G75*
G03*
X17820400Y-13309600I-15000J0D01*
G01*
X17858500Y-7327900D02*
G75*
G03*
X17858500Y-7327900I-15000J0D01*
G01*
X17885800Y-8469000D02*
G75*
G03*
X17885800Y-8469000I-15000J0D01*
G01*
X17896600Y-8661400D02*
G75*
G03*
X17896600Y-8661400I-15000J0D01*
G01*
X17896600Y-9626600D02*
G75*
G03*
X17896600Y-9626600I-15000J0D01*
G01*
X17922000Y-12877800D02*
G75*
G03*
X17922000Y-12877800I-15000J0D01*
G01*
X17972800Y-9347200D02*
G75*
G03*
X17972800Y-9347200I-15000J0D01*
G01*
X17972800Y-9499600D02*
G75*
G03*
X17972800Y-9499600I-15000J0D01*
G01*
X17972800Y-11861800D02*
G75*
G03*
X17972800Y-11861800I-15000J0D01*
G01*
X17972800Y-11963400D02*
G75*
G03*
X17972800Y-11963400I-15000J0D01*
G01*
X18038950Y-7330550D02*
G75*
G03*
X18038950Y-7330550I-15000J0D01*
G01*
X18087100Y-9804400D02*
G75*
G03*
X18087100Y-9804400I-15000J0D01*
G01*
X18087100Y-10883900D02*
G75*
G03*
X18087100Y-10883900I-15000J0D01*
G01*
X18150600Y-9639300D02*
G75*
G03*
X18150600Y-9639300I-15000J0D01*
G01*
X18155400Y-7447000D02*
G75*
G03*
X18155400Y-7447000I-15000J0D01*
G01*
X18176000Y-11861800D02*
G75*
G03*
X18176000Y-11861800I-15000J0D01*
G01*
X18211450Y-7076550D02*
G75*
G03*
X18211450Y-7076550I-15000J0D01*
G01*
X18252200Y-8382000D02*
G75*
G03*
X18252200Y-8382000I-15000J0D01*
G01*
X18328400Y-12204700D02*
G75*
G03*
X18328400Y-12204700I-15000J0D01*
G01*
X18379200Y-12603200D02*
G75*
G03*
X18379200Y-12603200I-15000J0D01*
G01*
X18430000Y-9359900D02*
G75*
G03*
X18430000Y-9359900I-15000J0D01*
G01*
X18430000Y-10258300D02*
G75*
G03*
X18430000Y-10258300I-15000J0D01*
G01*
X18430000Y-11709400D02*
G75*
G03*
X18430000Y-11709400I-15000J0D01*
G01*
X18455400Y-8382000D02*
G75*
G03*
X18455400Y-8382000I-15000J0D01*
G01*
X18455700Y-8255000D02*
G75*
G03*
X18455700Y-8255000I-15000J0D01*
G01*
X18468100Y-12407900D02*
G75*
G03*
X18468100Y-12407900I-15000J0D01*
G01*
X18607800Y-8991600D02*
G75*
G03*
X18607800Y-8991600I-15000J0D01*
G01*
X18620500Y-9359900D02*
G75*
G03*
X18620500Y-9359900I-15000J0D01*
G01*
X18633200Y-11709400D02*
G75*
G03*
X18633200Y-11709400I-15000J0D01*
G01*
X18655300Y-8280400D02*
G75*
G03*
X18655300Y-8280400I-15000J0D01*
G01*
X18785600Y-8813800D02*
G75*
G03*
X18785600Y-8813800I-15000J0D01*
G01*
X18912600Y-8712200D02*
G75*
G03*
X18912600Y-8712200I-15000J0D01*
G01*
X18938000Y-11201400D02*
G75*
G03*
X18938000Y-11201400I-15000J0D01*
G01*
X18938000Y-11303000D02*
G75*
G03*
X18938000Y-11303000I-15000J0D01*
G01*
X18938000Y-11404600D02*
G75*
G03*
X18938000Y-11404600I-15000J0D01*
G01*
X18938000Y-13538200D02*
G75*
G03*
X18938000Y-13538200I-15000J0D01*
G01*
X18938000Y-13639800D02*
G75*
G03*
X18938000Y-13639800I-15000J0D01*
G01*
X18938000Y-13741400D02*
G75*
G03*
X18938000Y-13741400I-15000J0D01*
G01*
X19166600Y-8813800D02*
G75*
G03*
X19166600Y-8813800I-15000J0D01*
G01*
X19238000Y-9758400D02*
G75*
G03*
X19238000Y-9758400I-15000J0D01*
G01*
X19344400Y-11811000D02*
G75*
G03*
X19344400Y-11811000I-15000J0D01*
G01*
X19357100Y-8801100D02*
G75*
G03*
X19357100Y-8801100I-15000J0D01*
G01*
X19369800Y-14147800D02*
G75*
G03*
X19369800Y-14147800I-15000J0D01*
G01*
X19471400Y-6553200D02*
G75*
G03*
X19471400Y-6553200I-15000J0D01*
G01*
X19471400Y-6680200D02*
G75*
G03*
X19471400Y-6680200I-15000J0D01*
G01*
X19471400Y-6807200D02*
G75*
G03*
X19471400Y-6807200I-15000J0D01*
G01*
X19471400Y-6946900D02*
G75*
G03*
X19471400Y-6946900I-15000J0D01*
G01*
X19496800Y-11988800D02*
G75*
G03*
X19496800Y-11988800I-15000J0D01*
G01*
X19547600Y-7747000D02*
G75*
G03*
X19547600Y-7747000I-15000J0D01*
G01*
X19623800Y-9512300D02*
G75*
G03*
X19623800Y-9512300I-15000J0D01*
G01*
X19636500Y-12776200D02*
G75*
G03*
X19636500Y-12776200I-15000J0D01*
G01*
X19700000Y-7747000D02*
G75*
G03*
X19700000Y-7747000I-15000J0D01*
G01*
X19700000Y-9169400D02*
G75*
G03*
X19700000Y-9169400I-15000J0D01*
G01*
X19700000Y-11074400D02*
G75*
G03*
X19700000Y-11074400I-15000J0D01*
G01*
X19700000Y-11531600D02*
G75*
G03*
X19700000Y-11531600I-15000J0D01*
G01*
X19700000Y-13411200D02*
G75*
G03*
X19700000Y-13411200I-15000J0D01*
G01*
X19700000Y-13893800D02*
G75*
G03*
X19700000Y-13893800I-15000J0D01*
G01*
X19776200Y-9817100D02*
G75*
G03*
X19776200Y-9817100I-15000J0D01*
G01*
X19801600Y-12179300D02*
G75*
G03*
X19801600Y-12179300I-15000J0D01*
G01*
X19827000Y-11074400D02*
G75*
G03*
X19827000Y-11074400I-15000J0D01*
G01*
X19827000Y-11531600D02*
G75*
G03*
X19827000Y-11531600I-15000J0D01*
G01*
X19827000Y-13411200D02*
G75*
G03*
X19827000Y-13411200I-15000J0D01*
G01*
X19827000Y-13893800D02*
G75*
G03*
X19827000Y-13893800I-15000J0D01*
G01*
X19865100Y-7747000D02*
G75*
G03*
X19865100Y-7747000I-15000J0D01*
G01*
X19941300Y-6553200D02*
G75*
G03*
X19941300Y-6553200I-15000J0D01*
G01*
X19941300Y-6680200D02*
G75*
G03*
X19941300Y-6680200I-15000J0D01*
G01*
X19941300Y-6807200D02*
G75*
G03*
X19941300Y-6807200I-15000J0D01*
G01*
X19941300Y-6946900D02*
G75*
G03*
X19941300Y-6946900I-15000J0D01*
G01*
X19954000Y-11074400D02*
G75*
G03*
X19954000Y-11074400I-15000J0D01*
G01*
X19954000Y-11531600D02*
G75*
G03*
X19954000Y-11531600I-15000J0D01*
G01*
X19954000Y-13411200D02*
G75*
G03*
X19954000Y-13411200I-15000J0D01*
G01*
X19954000Y-13893800D02*
G75*
G03*
X19954000Y-13893800I-15000J0D01*
G01*
X20081000Y-11074400D02*
G75*
G03*
X20081000Y-11074400I-15000J0D01*
G01*
X20081000Y-11531600D02*
G75*
G03*
X20081000Y-11531600I-15000J0D01*
G01*
X20081000Y-13411200D02*
G75*
G03*
X20081000Y-13411200I-15000J0D01*
G01*
X20081000Y-13893800D02*
G75*
G03*
X20081000Y-13893800I-15000J0D01*
G01*
X20208000Y-7315200D02*
G75*
G03*
X20208000Y-7315200I-15000J0D01*
G01*
X15824200Y-13309400D02*
X15824200Y-13411400D01*
X15773200Y-13360400D02*
X15875200Y-13360400D01*
X16078200Y-13309400D02*
X16078200Y-13411400D01*
X16027200Y-13360400D02*
X16129200Y-13360400D01*
X16332200Y-13309400D02*
X16332200Y-13411400D01*
X16281200Y-13360400D02*
X16383200Y-13360400D01*
X16586200Y-13309400D02*
X16586200Y-13411400D01*
X16535200Y-13360400D02*
X16637200Y-13360400D01*
X11161998Y-6018498D02*
X11161998Y-5919502D01*
X11063002Y-5919502D01*
X11063002Y-6018498D01*
X11161998Y-6018498D01*
X11669998Y-6018498D02*
X11669998Y-5919502D01*
X11571002Y-5919502D01*
X11571002Y-6018498D01*
X11669998Y-6018498D01*
X12177998Y-6018498D02*
X12177998Y-5919502D01*
X12079002Y-5919502D01*
X12079002Y-6018498D01*
X12177998Y-6018498D01*
X12685998Y-6018498D02*
X12685998Y-5919502D01*
X12587002Y-5919502D01*
X12587002Y-6018498D01*
X12685998Y-6018498D01*
X13511498Y-6018498D02*
X13511498Y-5919502D01*
X13412502Y-5919502D01*
X13412502Y-6018498D01*
X13511498Y-6018498D01*
X14019498Y-6018498D02*
X14019498Y-5919502D01*
X13920502Y-5919502D01*
X13920502Y-6018498D01*
X14019498Y-6018498D01*
X14527498Y-6018498D02*
X14527498Y-5919502D01*
X14428502Y-5919502D01*
X14428502Y-6018498D01*
X14527498Y-6018498D01*
X15035498Y-6018498D02*
X15035498Y-5919502D01*
X14936502Y-5919502D01*
X14936502Y-6018498D01*
X15035498Y-6018498D01*
X15860998Y-6018498D02*
X15860998Y-5919502D01*
X15762002Y-5919502D01*
X15762002Y-6018498D01*
X15860998Y-6018498D01*
X16368998Y-6018498D02*
X16368998Y-5919502D01*
X16270002Y-5919502D01*
X16270002Y-6018498D01*
X16368998Y-6018498D01*
X16876998Y-6018498D02*
X16876998Y-5919502D01*
X16778002Y-5919502D01*
X16778002Y-6018498D01*
X16876998Y-6018498D01*
X17384998Y-6018498D02*
X17384998Y-5919502D01*
X17286002Y-5919502D01*
X17286002Y-6018498D01*
X17384998Y-6018498D01*
X18210498Y-6018498D02*
X18210498Y-5919502D01*
X18111502Y-5919502D01*
X18111502Y-6018498D01*
X18210498Y-6018498D01*
X18718498Y-6018498D02*
X18718498Y-5919502D01*
X18619502Y-5919502D01*
X18619502Y-6018498D01*
X18718498Y-6018498D01*
X19226498Y-6018498D02*
X19226498Y-5919502D01*
X19127502Y-5919502D01*
X19127502Y-6018498D01*
X19226498Y-6018498D01*
X19734498Y-6018498D02*
X19734498Y-5919502D01*
X19635502Y-5919502D01*
X19635502Y-6018498D01*
X19734498Y-6018498D01*
X20750498Y-9828498D02*
X20750498Y-9729502D01*
X20651502Y-9729502D01*
X20651502Y-9828498D01*
X20750498Y-9828498D01*
X20750498Y-10336498D02*
X20750498Y-10237502D01*
X20651502Y-10237502D01*
X20651502Y-10336498D01*
X20750498Y-10336498D01*
X20750498Y-10844498D02*
X20750498Y-10745502D01*
X20651502Y-10745502D01*
X20651502Y-10844498D01*
X20750498Y-10844498D01*
X20750498Y-11352498D02*
X20750498Y-11253502D01*
X20651502Y-11253502D01*
X20651502Y-11352498D01*
X20750498Y-11352498D01*
X20750498Y-12177998D02*
X20750498Y-12079002D01*
X20651502Y-12079002D01*
X20651502Y-12177998D01*
X20750498Y-12177998D01*
X20750498Y-12685998D02*
X20750498Y-12587002D01*
X20651502Y-12587002D01*
X20651502Y-12685998D01*
X20750498Y-12685998D01*
X20750498Y-13193998D02*
X20750498Y-13095002D01*
X20651502Y-13095002D01*
X20651502Y-13193998D01*
X20750498Y-13193998D01*
X20750498Y-13701998D02*
X20750498Y-13603002D01*
X20651502Y-13603002D01*
X20651502Y-13701998D01*
X20750498Y-13701998D01*
D12*
X10062928Y-14819214D02*
X10062928Y-14519214D01*
X10134357Y-14519214D01*
X10177214Y-14533500D01*
X10205786Y-14562071D01*
X10220071Y-14590643D01*
X10234357Y-14647786D01*
X10234357Y-14690643D01*
X10220071Y-14747786D01*
X10205786Y-14776357D01*
X10177214Y-14804929D01*
X10134357Y-14819214D01*
X10062928Y-14819214D01*
X10362928Y-14819214D02*
X10362928Y-14619214D01*
X10362928Y-14676357D02*
X10377214Y-14647786D01*
X10391500Y-14633500D01*
X10420071Y-14619214D01*
X10448643Y-14619214D01*
X10548643Y-14819214D02*
X10548643Y-14619214D01*
X10548643Y-14519214D02*
X10534357Y-14533500D01*
X10548643Y-14547786D01*
X10562928Y-14533500D01*
X10548643Y-14519214D01*
X10548643Y-14547786D01*
X10734357Y-14819214D02*
X10705786Y-14804929D01*
X10691500Y-14776357D01*
X10691500Y-14519214D01*
X10891500Y-14819214D02*
X10862928Y-14804929D01*
X10848643Y-14776357D01*
X10848643Y-14519214D01*
X11234357Y-14819214D02*
X11234357Y-14519214D01*
X11334357Y-14733500D01*
X11434357Y-14519214D01*
X11434357Y-14819214D01*
X11705786Y-14819214D02*
X11705786Y-14662071D01*
X11691500Y-14633500D01*
X11662928Y-14619214D01*
X11605786Y-14619214D01*
X11577214Y-14633500D01*
X11705786Y-14804929D02*
X11677214Y-14819214D01*
X11605786Y-14819214D01*
X11577214Y-14804929D01*
X11562928Y-14776357D01*
X11562928Y-14747786D01*
X11577214Y-14719214D01*
X11605786Y-14704929D01*
X11677214Y-14704929D01*
X11705786Y-14690643D01*
X11848643Y-14619214D02*
X11848643Y-14919214D01*
X11848643Y-14633500D02*
X11877214Y-14619214D01*
X11934357Y-14619214D01*
X11962928Y-14633500D01*
X11977214Y-14647786D01*
X11991500Y-14676357D01*
X11991500Y-14762071D01*
X11977214Y-14790643D01*
X11962928Y-14804929D01*
X11934357Y-14819214D01*
X11877214Y-14819214D01*
X11848643Y-14804929D01*
X12120071Y-14790643D02*
X12134357Y-14804929D01*
X12120071Y-14819214D01*
X12105786Y-14804929D01*
X12120071Y-14790643D01*
X12120071Y-14819214D01*
X12120071Y-14633500D02*
X12134357Y-14647786D01*
X12120071Y-14662071D01*
X12105786Y-14647786D01*
X12120071Y-14633500D01*
X12120071Y-14662071D01*
X9751100Y-15300800D02*
X9776500Y-15326200D01*
X9776500Y-15300800D02*
X9751100Y-15326200D01*
X10120071Y-15149214D02*
X10148643Y-15149214D01*
X10177214Y-15163500D01*
X10191500Y-15177786D01*
X10205786Y-15206357D01*
X10220071Y-15263500D01*
X10220071Y-15334929D01*
X10205786Y-15392071D01*
X10191500Y-15420643D01*
X10177214Y-15434929D01*
X10148643Y-15449214D01*
X10120071Y-15449214D01*
X10091500Y-15434929D01*
X10077214Y-15420643D01*
X10062928Y-15392071D01*
X10048643Y-15334929D01*
X10048643Y-15263500D01*
X10062928Y-15206357D01*
X10077214Y-15177786D01*
X10091500Y-15163500D01*
X10120071Y-15149214D01*
X10348643Y-15420643D02*
X10362928Y-15434929D01*
X10348643Y-15449214D01*
X10334357Y-15434929D01*
X10348643Y-15420643D01*
X10348643Y-15449214D01*
X10477214Y-15177786D02*
X10491500Y-15163500D01*
X10520071Y-15149214D01*
X10591500Y-15149214D01*
X10620071Y-15163500D01*
X10634357Y-15177786D01*
X10648643Y-15206357D01*
X10648643Y-15234929D01*
X10634357Y-15277786D01*
X10462928Y-15449214D01*
X10648643Y-15449214D01*
X10920071Y-15149214D02*
X10777214Y-15149214D01*
X10762928Y-15292071D01*
X10777214Y-15277786D01*
X10805786Y-15263500D01*
X10877214Y-15263500D01*
X10905786Y-15277786D01*
X10920071Y-15292071D01*
X10934357Y-15320643D01*
X10934357Y-15392071D01*
X10920071Y-15420643D01*
X10905786Y-15434929D01*
X10877214Y-15449214D01*
X10805786Y-15449214D01*
X10777214Y-15434929D01*
X10762928Y-15420643D01*
X11062928Y-15449214D02*
X11062928Y-15249214D01*
X11062928Y-15277786D02*
X11077214Y-15263500D01*
X11105786Y-15249214D01*
X11148643Y-15249214D01*
X11177214Y-15263500D01*
X11191500Y-15292071D01*
X11191500Y-15449214D01*
X11191500Y-15292071D02*
X11205786Y-15263500D01*
X11234357Y-15249214D01*
X11277214Y-15249214D01*
X11305786Y-15263500D01*
X11320071Y-15292071D01*
X11320071Y-15449214D01*
X11462928Y-15449214D02*
X11462928Y-15249214D01*
X11462928Y-15277786D02*
X11477214Y-15263500D01*
X11505786Y-15249214D01*
X11548643Y-15249214D01*
X11577214Y-15263500D01*
X11591500Y-15292071D01*
X11591500Y-15449214D01*
X11591500Y-15292071D02*
X11605786Y-15263500D01*
X11634357Y-15249214D01*
X11677214Y-15249214D01*
X11705786Y-15263500D01*
X11720071Y-15292071D01*
X11720071Y-15449214D01*
X12305786Y-15134929D02*
X12048643Y-15520643D01*
X12691500Y-15149214D02*
X12720071Y-15149214D01*
X12748643Y-15163500D01*
X12762928Y-15177786D01*
X12777214Y-15206357D01*
X12791500Y-15263500D01*
X12791500Y-15334929D01*
X12777214Y-15392071D01*
X12762928Y-15420643D01*
X12748643Y-15434929D01*
X12720071Y-15449214D01*
X12691500Y-15449214D01*
X12662928Y-15434929D01*
X12648643Y-15420643D01*
X12634357Y-15392071D01*
X12620071Y-15334929D01*
X12620071Y-15263500D01*
X12634357Y-15206357D01*
X12648643Y-15177786D01*
X12662928Y-15163500D01*
X12691500Y-15149214D01*
X12920071Y-15420643D02*
X12934357Y-15434929D01*
X12920071Y-15449214D01*
X12905786Y-15434929D01*
X12920071Y-15420643D01*
X12920071Y-15449214D01*
X13120071Y-15149214D02*
X13148643Y-15149214D01*
X13177214Y-15163500D01*
X13191500Y-15177786D01*
X13205786Y-15206357D01*
X13220071Y-15263500D01*
X13220071Y-15334929D01*
X13205786Y-15392071D01*
X13191500Y-15420643D01*
X13177214Y-15434929D01*
X13148643Y-15449214D01*
X13120071Y-15449214D01*
X13091500Y-15434929D01*
X13077214Y-15420643D01*
X13062928Y-15392071D01*
X13048643Y-15334929D01*
X13048643Y-15263500D01*
X13062928Y-15206357D01*
X13077214Y-15177786D01*
X13091500Y-15163500D01*
X13120071Y-15149214D01*
X13505786Y-15449214D02*
X13334357Y-15449214D01*
X13420071Y-15449214D02*
X13420071Y-15149214D01*
X13391500Y-15192071D01*
X13362928Y-15220643D01*
X13334357Y-15234929D01*
X13691500Y-15149214D02*
X13720071Y-15149214D01*
X13748643Y-15163500D01*
X13762928Y-15177786D01*
X13777214Y-15206357D01*
X13791500Y-15263500D01*
X13791500Y-15334929D01*
X13777214Y-15392071D01*
X13762928Y-15420643D01*
X13748643Y-15434929D01*
X13720071Y-15449214D01*
X13691500Y-15449214D01*
X13662928Y-15434929D01*
X13648643Y-15420643D01*
X13634357Y-15392071D01*
X13620071Y-15334929D01*
X13620071Y-15263500D01*
X13634357Y-15206357D01*
X13648643Y-15177786D01*
X13662928Y-15163500D01*
X13691500Y-15149214D01*
X13905786Y-15149214D02*
X13905786Y-15206357D01*
X14020071Y-15149214D02*
X14020071Y-15206357D01*
X14462928Y-15563500D02*
X14448643Y-15549214D01*
X14420071Y-15506357D01*
X14405786Y-15477786D01*
X14391500Y-15434929D01*
X14377214Y-15363500D01*
X14377214Y-15306357D01*
X14391500Y-15234929D01*
X14405786Y-15192071D01*
X14420071Y-15163500D01*
X14448643Y-15120643D01*
X14462928Y-15106357D01*
X14734357Y-15449214D02*
X14562928Y-15449214D01*
X14648643Y-15449214D02*
X14648643Y-15149214D01*
X14620071Y-15192071D01*
X14591500Y-15220643D01*
X14562928Y-15234929D01*
X14848643Y-15177786D02*
X14862928Y-15163500D01*
X14891500Y-15149214D01*
X14962928Y-15149214D01*
X14991500Y-15163500D01*
X15005786Y-15177786D01*
X15020071Y-15206357D01*
X15020071Y-15234929D01*
X15005786Y-15277786D01*
X14834357Y-15449214D01*
X15020071Y-15449214D01*
X15277214Y-15149214D02*
X15220071Y-15149214D01*
X15191500Y-15163500D01*
X15177214Y-15177786D01*
X15148643Y-15220643D01*
X15134357Y-15277786D01*
X15134357Y-15392071D01*
X15148643Y-15420643D01*
X15162928Y-15434929D01*
X15191500Y-15449214D01*
X15248643Y-15449214D01*
X15277214Y-15434929D01*
X15291500Y-15420643D01*
X15305786Y-15392071D01*
X15305786Y-15320643D01*
X15291500Y-15292071D01*
X15277214Y-15277786D01*
X15248643Y-15263500D01*
X15191500Y-15263500D01*
X15162928Y-15277786D01*
X15148643Y-15292071D01*
X15134357Y-15320643D01*
X15662928Y-15449214D02*
X15662928Y-15149214D01*
X15791500Y-15449214D02*
X15791500Y-15292071D01*
X15777214Y-15263500D01*
X15748643Y-15249214D01*
X15705786Y-15249214D01*
X15677214Y-15263500D01*
X15662928Y-15277786D01*
X15977214Y-15449214D02*
X15948643Y-15434929D01*
X15934357Y-15420643D01*
X15920071Y-15392071D01*
X15920071Y-15306357D01*
X15934357Y-15277786D01*
X15948643Y-15263500D01*
X15977214Y-15249214D01*
X16020071Y-15249214D01*
X16048643Y-15263500D01*
X16062928Y-15277786D01*
X16077214Y-15306357D01*
X16077214Y-15392071D01*
X16062928Y-15420643D01*
X16048643Y-15434929D01*
X16020071Y-15449214D01*
X15977214Y-15449214D01*
X16248643Y-15449214D02*
X16220071Y-15434929D01*
X16205786Y-15406357D01*
X16205786Y-15149214D01*
X16477214Y-15434929D02*
X16448643Y-15449214D01*
X16391500Y-15449214D01*
X16362928Y-15434929D01*
X16348643Y-15406357D01*
X16348643Y-15292071D01*
X16362928Y-15263500D01*
X16391500Y-15249214D01*
X16448643Y-15249214D01*
X16477214Y-15263500D01*
X16491500Y-15292071D01*
X16491500Y-15320643D01*
X16348643Y-15349214D01*
X16605786Y-15434929D02*
X16634357Y-15449214D01*
X16691500Y-15449214D01*
X16720071Y-15434929D01*
X16734357Y-15406357D01*
X16734357Y-15392071D01*
X16720071Y-15363500D01*
X16691500Y-15349214D01*
X16648643Y-15349214D01*
X16620071Y-15334929D01*
X16605786Y-15306357D01*
X16605786Y-15292071D01*
X16620071Y-15263500D01*
X16648643Y-15249214D01*
X16691500Y-15249214D01*
X16720071Y-15263500D01*
X16834357Y-15563500D02*
X16848643Y-15549214D01*
X16877214Y-15506357D01*
X16891500Y-15477786D01*
X16905786Y-15434929D01*
X16920071Y-15363500D01*
X16920071Y-15306357D01*
X16905786Y-15234929D01*
X16891500Y-15192071D01*
X16877214Y-15163500D01*
X16848643Y-15120643D01*
X16834357Y-15106357D01*
X9776500Y-15709500D02*
G75*
G03*
X9776500Y-15709500I-15000J0D01*
G01*
X10120071Y-15545214D02*
X10148643Y-15545214D01*
X10177214Y-15559500D01*
X10191500Y-15573786D01*
X10205786Y-15602357D01*
X10220071Y-15659500D01*
X10220071Y-15730929D01*
X10205786Y-15788071D01*
X10191500Y-15816643D01*
X10177214Y-15830929D01*
X10148643Y-15845214D01*
X10120071Y-15845214D01*
X10091500Y-15830929D01*
X10077214Y-15816643D01*
X10062928Y-15788071D01*
X10048643Y-15730929D01*
X10048643Y-15659500D01*
X10062928Y-15602357D01*
X10077214Y-15573786D01*
X10091500Y-15559500D01*
X10120071Y-15545214D01*
X10348643Y-15816643D02*
X10362928Y-15830929D01*
X10348643Y-15845214D01*
X10334357Y-15830929D01*
X10348643Y-15816643D01*
X10348643Y-15845214D01*
X10462928Y-15545214D02*
X10648643Y-15545214D01*
X10548643Y-15659500D01*
X10591500Y-15659500D01*
X10620071Y-15673786D01*
X10634357Y-15688071D01*
X10648643Y-15716643D01*
X10648643Y-15788071D01*
X10634357Y-15816643D01*
X10620071Y-15830929D01*
X10591500Y-15845214D01*
X10505786Y-15845214D01*
X10477214Y-15830929D01*
X10462928Y-15816643D01*
X10834357Y-15545214D02*
X10862928Y-15545214D01*
X10891500Y-15559500D01*
X10905786Y-15573786D01*
X10920071Y-15602357D01*
X10934357Y-15659500D01*
X10934357Y-15730929D01*
X10920071Y-15788071D01*
X10905786Y-15816643D01*
X10891500Y-15830929D01*
X10862928Y-15845214D01*
X10834357Y-15845214D01*
X10805786Y-15830929D01*
X10791500Y-15816643D01*
X10777214Y-15788071D01*
X10762928Y-15730929D01*
X10762928Y-15659500D01*
X10777214Y-15602357D01*
X10791500Y-15573786D01*
X10805786Y-15559500D01*
X10834357Y-15545214D01*
X11062928Y-15845214D02*
X11062928Y-15645214D01*
X11062928Y-15673786D02*
X11077214Y-15659500D01*
X11105786Y-15645214D01*
X11148643Y-15645214D01*
X11177214Y-15659500D01*
X11191500Y-15688071D01*
X11191500Y-15845214D01*
X11191500Y-15688071D02*
X11205786Y-15659500D01*
X11234357Y-15645214D01*
X11277214Y-15645214D01*
X11305786Y-15659500D01*
X11320071Y-15688071D01*
X11320071Y-15845214D01*
X11462928Y-15845214D02*
X11462928Y-15645214D01*
X11462928Y-15673786D02*
X11477214Y-15659500D01*
X11505786Y-15645214D01*
X11548643Y-15645214D01*
X11577214Y-15659500D01*
X11591500Y-15688071D01*
X11591500Y-15845214D01*
X11591500Y-15688071D02*
X11605786Y-15659500D01*
X11634357Y-15645214D01*
X11677214Y-15645214D01*
X11705786Y-15659500D01*
X11720071Y-15688071D01*
X11720071Y-15845214D01*
X12305786Y-15530929D02*
X12048643Y-15916643D01*
X12691500Y-15545214D02*
X12720071Y-15545214D01*
X12748643Y-15559500D01*
X12762928Y-15573786D01*
X12777214Y-15602357D01*
X12791500Y-15659500D01*
X12791500Y-15730929D01*
X12777214Y-15788071D01*
X12762928Y-15816643D01*
X12748643Y-15830929D01*
X12720071Y-15845214D01*
X12691500Y-15845214D01*
X12662928Y-15830929D01*
X12648643Y-15816643D01*
X12634357Y-15788071D01*
X12620071Y-15730929D01*
X12620071Y-15659500D01*
X12634357Y-15602357D01*
X12648643Y-15573786D01*
X12662928Y-15559500D01*
X12691500Y-15545214D01*
X12920071Y-15816643D02*
X12934357Y-15830929D01*
X12920071Y-15845214D01*
X12905786Y-15830929D01*
X12920071Y-15816643D01*
X12920071Y-15845214D01*
X13120071Y-15545214D02*
X13148643Y-15545214D01*
X13177214Y-15559500D01*
X13191500Y-15573786D01*
X13205786Y-15602357D01*
X13220071Y-15659500D01*
X13220071Y-15730929D01*
X13205786Y-15788071D01*
X13191500Y-15816643D01*
X13177214Y-15830929D01*
X13148643Y-15845214D01*
X13120071Y-15845214D01*
X13091500Y-15830929D01*
X13077214Y-15816643D01*
X13062928Y-15788071D01*
X13048643Y-15730929D01*
X13048643Y-15659500D01*
X13062928Y-15602357D01*
X13077214Y-15573786D01*
X13091500Y-15559500D01*
X13120071Y-15545214D01*
X13505786Y-15845214D02*
X13334357Y-15845214D01*
X13420071Y-15845214D02*
X13420071Y-15545214D01*
X13391500Y-15588071D01*
X13362928Y-15616643D01*
X13334357Y-15630929D01*
X13620071Y-15573786D02*
X13634357Y-15559500D01*
X13662928Y-15545214D01*
X13734357Y-15545214D01*
X13762928Y-15559500D01*
X13777214Y-15573786D01*
X13791500Y-15602357D01*
X13791500Y-15630929D01*
X13777214Y-15673786D01*
X13605786Y-15845214D01*
X13791500Y-15845214D01*
X13905786Y-15545214D02*
X13905786Y-15602357D01*
X14020071Y-15545214D02*
X14020071Y-15602357D01*
X14462928Y-15959500D02*
X14448643Y-15945214D01*
X14420071Y-15902357D01*
X14405786Y-15873786D01*
X14391500Y-15830929D01*
X14377214Y-15759500D01*
X14377214Y-15702357D01*
X14391500Y-15630929D01*
X14405786Y-15588071D01*
X14420071Y-15559500D01*
X14448643Y-15516643D01*
X14462928Y-15502357D01*
X14548643Y-15545214D02*
X14734357Y-15545214D01*
X14634357Y-15659500D01*
X14677214Y-15659500D01*
X14705786Y-15673786D01*
X14720071Y-15688071D01*
X14734357Y-15716643D01*
X14734357Y-15788071D01*
X14720071Y-15816643D01*
X14705786Y-15830929D01*
X14677214Y-15845214D01*
X14591500Y-15845214D01*
X14562928Y-15830929D01*
X14548643Y-15816643D01*
X14920071Y-15545214D02*
X14948643Y-15545214D01*
X14977214Y-15559500D01*
X14991500Y-15573786D01*
X15005786Y-15602357D01*
X15020071Y-15659500D01*
X15020071Y-15730929D01*
X15005786Y-15788071D01*
X14991500Y-15816643D01*
X14977214Y-15830929D01*
X14948643Y-15845214D01*
X14920071Y-15845214D01*
X14891500Y-15830929D01*
X14877214Y-15816643D01*
X14862928Y-15788071D01*
X14848643Y-15730929D01*
X14848643Y-15659500D01*
X14862928Y-15602357D01*
X14877214Y-15573786D01*
X14891500Y-15559500D01*
X14920071Y-15545214D01*
X15305786Y-15845214D02*
X15134357Y-15845214D01*
X15220071Y-15845214D02*
X15220071Y-15545214D01*
X15191500Y-15588071D01*
X15162928Y-15616643D01*
X15134357Y-15630929D01*
X15662928Y-15845214D02*
X15662928Y-15545214D01*
X15791500Y-15845214D02*
X15791500Y-15688071D01*
X15777214Y-15659500D01*
X15748643Y-15645214D01*
X15705786Y-15645214D01*
X15677214Y-15659500D01*
X15662928Y-15673786D01*
X15977214Y-15845214D02*
X15948643Y-15830929D01*
X15934357Y-15816643D01*
X15920071Y-15788071D01*
X15920071Y-15702357D01*
X15934357Y-15673786D01*
X15948643Y-15659500D01*
X15977214Y-15645214D01*
X16020071Y-15645214D01*
X16048643Y-15659500D01*
X16062928Y-15673786D01*
X16077214Y-15702357D01*
X16077214Y-15788071D01*
X16062928Y-15816643D01*
X16048643Y-15830929D01*
X16020071Y-15845214D01*
X15977214Y-15845214D01*
X16248643Y-15845214D02*
X16220071Y-15830929D01*
X16205786Y-15802357D01*
X16205786Y-15545214D01*
X16477214Y-15830929D02*
X16448643Y-15845214D01*
X16391500Y-15845214D01*
X16362928Y-15830929D01*
X16348643Y-15802357D01*
X16348643Y-15688071D01*
X16362928Y-15659500D01*
X16391500Y-15645214D01*
X16448643Y-15645214D01*
X16477214Y-15659500D01*
X16491500Y-15688071D01*
X16491500Y-15716643D01*
X16348643Y-15745214D01*
X16605786Y-15830929D02*
X16634357Y-15845214D01*
X16691500Y-15845214D01*
X16720071Y-15830929D01*
X16734357Y-15802357D01*
X16734357Y-15788071D01*
X16720071Y-15759500D01*
X16691500Y-15745214D01*
X16648643Y-15745214D01*
X16620071Y-15730929D01*
X16605786Y-15702357D01*
X16605786Y-15688071D01*
X16620071Y-15659500D01*
X16648643Y-15645214D01*
X16691500Y-15645214D01*
X16720071Y-15659500D01*
X16834357Y-15959500D02*
X16848643Y-15945214D01*
X16877214Y-15902357D01*
X16891500Y-15873786D01*
X16905786Y-15830929D01*
X16920071Y-15759500D01*
X16920071Y-15702357D01*
X16905786Y-15630929D01*
X16891500Y-15588071D01*
X16877214Y-15559500D01*
X16848643Y-15516643D01*
X16834357Y-15502357D01*
X9725500Y-16054500D02*
X9725500Y-16156500D01*
X9674500Y-16105500D02*
X9776500Y-16105500D01*
X10220071Y-16241214D02*
X10048643Y-16241214D01*
X10134357Y-16241214D02*
X10134357Y-15941214D01*
X10105786Y-15984071D01*
X10077214Y-16012643D01*
X10048643Y-16026929D01*
X10348643Y-16212643D02*
X10362928Y-16226929D01*
X10348643Y-16241214D01*
X10334357Y-16226929D01*
X10348643Y-16212643D01*
X10348643Y-16241214D01*
X10548643Y-15941214D02*
X10577214Y-15941214D01*
X10605786Y-15955500D01*
X10620071Y-15969786D01*
X10634357Y-15998357D01*
X10648643Y-16055500D01*
X10648643Y-16126929D01*
X10634357Y-16184071D01*
X10620071Y-16212643D01*
X10605786Y-16226929D01*
X10577214Y-16241214D01*
X10548643Y-16241214D01*
X10520071Y-16226929D01*
X10505786Y-16212643D01*
X10491500Y-16184071D01*
X10477214Y-16126929D01*
X10477214Y-16055500D01*
X10491500Y-15998357D01*
X10505786Y-15969786D01*
X10520071Y-15955500D01*
X10548643Y-15941214D01*
X10762928Y-15969786D02*
X10777214Y-15955500D01*
X10805786Y-15941214D01*
X10877214Y-15941214D01*
X10905786Y-15955500D01*
X10920071Y-15969786D01*
X10934357Y-15998357D01*
X10934357Y-16026929D01*
X10920071Y-16069786D01*
X10748643Y-16241214D01*
X10934357Y-16241214D01*
X11062928Y-16241214D02*
X11062928Y-16041214D01*
X11062928Y-16069786D02*
X11077214Y-16055500D01*
X11105786Y-16041214D01*
X11148643Y-16041214D01*
X11177214Y-16055500D01*
X11191500Y-16084071D01*
X11191500Y-16241214D01*
X11191500Y-16084071D02*
X11205786Y-16055500D01*
X11234357Y-16041214D01*
X11277214Y-16041214D01*
X11305786Y-16055500D01*
X11320071Y-16084071D01*
X11320071Y-16241214D01*
X11462928Y-16241214D02*
X11462928Y-16041214D01*
X11462928Y-16069786D02*
X11477214Y-16055500D01*
X11505786Y-16041214D01*
X11548643Y-16041214D01*
X11577214Y-16055500D01*
X11591500Y-16084071D01*
X11591500Y-16241214D01*
X11591500Y-16084071D02*
X11605786Y-16055500D01*
X11634357Y-16041214D01*
X11677214Y-16041214D01*
X11705786Y-16055500D01*
X11720071Y-16084071D01*
X11720071Y-16241214D01*
X12305786Y-15926929D02*
X12048643Y-16312643D01*
X12691500Y-15941214D02*
X12720071Y-15941214D01*
X12748643Y-15955500D01*
X12762928Y-15969786D01*
X12777214Y-15998357D01*
X12791500Y-16055500D01*
X12791500Y-16126929D01*
X12777214Y-16184071D01*
X12762928Y-16212643D01*
X12748643Y-16226929D01*
X12720071Y-16241214D01*
X12691500Y-16241214D01*
X12662928Y-16226929D01*
X12648643Y-16212643D01*
X12634357Y-16184071D01*
X12620071Y-16126929D01*
X12620071Y-16055500D01*
X12634357Y-15998357D01*
X12648643Y-15969786D01*
X12662928Y-15955500D01*
X12691500Y-15941214D01*
X12920071Y-16212643D02*
X12934357Y-16226929D01*
X12920071Y-16241214D01*
X12905786Y-16226929D01*
X12920071Y-16212643D01*
X12920071Y-16241214D01*
X13120071Y-15941214D02*
X13148643Y-15941214D01*
X13177214Y-15955500D01*
X13191500Y-15969786D01*
X13205786Y-15998357D01*
X13220071Y-16055500D01*
X13220071Y-16126929D01*
X13205786Y-16184071D01*
X13191500Y-16212643D01*
X13177214Y-16226929D01*
X13148643Y-16241214D01*
X13120071Y-16241214D01*
X13091500Y-16226929D01*
X13077214Y-16212643D01*
X13062928Y-16184071D01*
X13048643Y-16126929D01*
X13048643Y-16055500D01*
X13062928Y-15998357D01*
X13077214Y-15969786D01*
X13091500Y-15955500D01*
X13120071Y-15941214D01*
X13477214Y-16041214D02*
X13477214Y-16241214D01*
X13405786Y-15926929D02*
X13334357Y-16141214D01*
X13520071Y-16141214D01*
X13691500Y-15941214D02*
X13720071Y-15941214D01*
X13748643Y-15955500D01*
X13762928Y-15969786D01*
X13777214Y-15998357D01*
X13791500Y-16055500D01*
X13791500Y-16126929D01*
X13777214Y-16184071D01*
X13762928Y-16212643D01*
X13748643Y-16226929D01*
X13720071Y-16241214D01*
X13691500Y-16241214D01*
X13662928Y-16226929D01*
X13648643Y-16212643D01*
X13634357Y-16184071D01*
X13620071Y-16126929D01*
X13620071Y-16055500D01*
X13634357Y-15998357D01*
X13648643Y-15969786D01*
X13662928Y-15955500D01*
X13691500Y-15941214D01*
X13905786Y-15941214D02*
X13905786Y-15998357D01*
X14020071Y-15941214D02*
X14020071Y-15998357D01*
X14462928Y-16355500D02*
X14448643Y-16341214D01*
X14420071Y-16298357D01*
X14405786Y-16269786D01*
X14391500Y-16226929D01*
X14377214Y-16155500D01*
X14377214Y-16098357D01*
X14391500Y-16026929D01*
X14405786Y-15984071D01*
X14420071Y-15955500D01*
X14448643Y-15912643D01*
X14462928Y-15898357D01*
X14705786Y-16041214D02*
X14705786Y-16241214D01*
X14634357Y-15926929D02*
X14562928Y-16141214D01*
X14748643Y-16141214D01*
X15091500Y-16241214D02*
X15091500Y-15941214D01*
X15220071Y-16241214D02*
X15220071Y-16084071D01*
X15205786Y-16055500D01*
X15177214Y-16041214D01*
X15134357Y-16041214D01*
X15105786Y-16055500D01*
X15091500Y-16069786D01*
X15405786Y-16241214D02*
X15377214Y-16226929D01*
X15362928Y-16212643D01*
X15348643Y-16184071D01*
X15348643Y-16098357D01*
X15362928Y-16069786D01*
X15377214Y-16055500D01*
X15405786Y-16041214D01*
X15448643Y-16041214D01*
X15477214Y-16055500D01*
X15491500Y-16069786D01*
X15505786Y-16098357D01*
X15505786Y-16184071D01*
X15491500Y-16212643D01*
X15477214Y-16226929D01*
X15448643Y-16241214D01*
X15405786Y-16241214D01*
X15677214Y-16241214D02*
X15648643Y-16226929D01*
X15634357Y-16198357D01*
X15634357Y-15941214D01*
X15905786Y-16226929D02*
X15877214Y-16241214D01*
X15820071Y-16241214D01*
X15791500Y-16226929D01*
X15777214Y-16198357D01*
X15777214Y-16084071D01*
X15791500Y-16055500D01*
X15820071Y-16041214D01*
X15877214Y-16041214D01*
X15905786Y-16055500D01*
X15920071Y-16084071D01*
X15920071Y-16112643D01*
X15777214Y-16141214D01*
X16034357Y-16226929D02*
X16062928Y-16241214D01*
X16120071Y-16241214D01*
X16148643Y-16226929D01*
X16162928Y-16198357D01*
X16162928Y-16184071D01*
X16148643Y-16155500D01*
X16120071Y-16141214D01*
X16077214Y-16141214D01*
X16048643Y-16126929D01*
X16034357Y-16098357D01*
X16034357Y-16084071D01*
X16048643Y-16055500D01*
X16077214Y-16041214D01*
X16120071Y-16041214D01*
X16148643Y-16055500D01*
X16262928Y-16355500D02*
X16277214Y-16341214D01*
X16305786Y-16298357D01*
X16320071Y-16269786D01*
X16334357Y-16226929D01*
X16348643Y-16155500D01*
X16348643Y-16098357D01*
X16334357Y-16026929D01*
X16320071Y-15984071D01*
X16305786Y-15955500D01*
X16277214Y-15912643D01*
X16262928Y-15898357D01*
X9755998Y-16550998D02*
X9755998Y-16452002D01*
X9657002Y-16452002D01*
X9657002Y-16550998D01*
X9755998Y-16550998D01*
X10220071Y-16637214D02*
X10048643Y-16637214D01*
X10134357Y-16637214D02*
X10134357Y-16337214D01*
X10105786Y-16380071D01*
X10077214Y-16408643D01*
X10048643Y-16422929D01*
X10348643Y-16608643D02*
X10362928Y-16622929D01*
X10348643Y-16637214D01*
X10334357Y-16622929D01*
X10348643Y-16608643D01*
X10348643Y-16637214D01*
X10620071Y-16437214D02*
X10620071Y-16637214D01*
X10548643Y-16322929D02*
X10477214Y-16537214D01*
X10662928Y-16537214D01*
X10834357Y-16337214D02*
X10862928Y-16337214D01*
X10891500Y-16351500D01*
X10905786Y-16365786D01*
X10920071Y-16394357D01*
X10934357Y-16451500D01*
X10934357Y-16522929D01*
X10920071Y-16580071D01*
X10905786Y-16608643D01*
X10891500Y-16622929D01*
X10862928Y-16637214D01*
X10834357Y-16637214D01*
X10805786Y-16622929D01*
X10791500Y-16608643D01*
X10777214Y-16580071D01*
X10762928Y-16522929D01*
X10762928Y-16451500D01*
X10777214Y-16394357D01*
X10791500Y-16365786D01*
X10805786Y-16351500D01*
X10834357Y-16337214D01*
X11062928Y-16637214D02*
X11062928Y-16437214D01*
X11062928Y-16465786D02*
X11077214Y-16451500D01*
X11105786Y-16437214D01*
X11148643Y-16437214D01*
X11177214Y-16451500D01*
X11191500Y-16480071D01*
X11191500Y-16637214D01*
X11191500Y-16480071D02*
X11205786Y-16451500D01*
X11234357Y-16437214D01*
X11277214Y-16437214D01*
X11305786Y-16451500D01*
X11320071Y-16480071D01*
X11320071Y-16637214D01*
X11462928Y-16637214D02*
X11462928Y-16437214D01*
X11462928Y-16465786D02*
X11477214Y-16451500D01*
X11505786Y-16437214D01*
X11548643Y-16437214D01*
X11577214Y-16451500D01*
X11591500Y-16480071D01*
X11591500Y-16637214D01*
X11591500Y-16480071D02*
X11605786Y-16451500D01*
X11634357Y-16437214D01*
X11677214Y-16437214D01*
X11705786Y-16451500D01*
X11720071Y-16480071D01*
X11720071Y-16637214D01*
X12305786Y-16322929D02*
X12048643Y-16708643D01*
X12691500Y-16337214D02*
X12720071Y-16337214D01*
X12748643Y-16351500D01*
X12762928Y-16365786D01*
X12777214Y-16394357D01*
X12791500Y-16451500D01*
X12791500Y-16522929D01*
X12777214Y-16580071D01*
X12762928Y-16608643D01*
X12748643Y-16622929D01*
X12720071Y-16637214D01*
X12691500Y-16637214D01*
X12662928Y-16622929D01*
X12648643Y-16608643D01*
X12634357Y-16580071D01*
X12620071Y-16522929D01*
X12620071Y-16451500D01*
X12634357Y-16394357D01*
X12648643Y-16365786D01*
X12662928Y-16351500D01*
X12691500Y-16337214D01*
X12920071Y-16608643D02*
X12934357Y-16622929D01*
X12920071Y-16637214D01*
X12905786Y-16622929D01*
X12920071Y-16608643D01*
X12920071Y-16637214D01*
X13120071Y-16337214D02*
X13148643Y-16337214D01*
X13177214Y-16351500D01*
X13191500Y-16365786D01*
X13205786Y-16394357D01*
X13220071Y-16451500D01*
X13220071Y-16522929D01*
X13205786Y-16580071D01*
X13191500Y-16608643D01*
X13177214Y-16622929D01*
X13148643Y-16637214D01*
X13120071Y-16637214D01*
X13091500Y-16622929D01*
X13077214Y-16608643D01*
X13062928Y-16580071D01*
X13048643Y-16522929D01*
X13048643Y-16451500D01*
X13062928Y-16394357D01*
X13077214Y-16365786D01*
X13091500Y-16351500D01*
X13120071Y-16337214D01*
X13491500Y-16337214D02*
X13348643Y-16337214D01*
X13334357Y-16480071D01*
X13348643Y-16465786D01*
X13377214Y-16451500D01*
X13448643Y-16451500D01*
X13477214Y-16465786D01*
X13491500Y-16480071D01*
X13505786Y-16508643D01*
X13505786Y-16580071D01*
X13491500Y-16608643D01*
X13477214Y-16622929D01*
X13448643Y-16637214D01*
X13377214Y-16637214D01*
X13348643Y-16622929D01*
X13334357Y-16608643D01*
X13777214Y-16337214D02*
X13634357Y-16337214D01*
X13620071Y-16480071D01*
X13634357Y-16465786D01*
X13662928Y-16451500D01*
X13734357Y-16451500D01*
X13762928Y-16465786D01*
X13777214Y-16480071D01*
X13791500Y-16508643D01*
X13791500Y-16580071D01*
X13777214Y-16608643D01*
X13762928Y-16622929D01*
X13734357Y-16637214D01*
X13662928Y-16637214D01*
X13634357Y-16622929D01*
X13620071Y-16608643D01*
X13905786Y-16337214D02*
X13905786Y-16394357D01*
X14020071Y-16337214D02*
X14020071Y-16394357D01*
X14462928Y-16751500D02*
X14448643Y-16737214D01*
X14420071Y-16694357D01*
X14405786Y-16665786D01*
X14391500Y-16622929D01*
X14377214Y-16551500D01*
X14377214Y-16494357D01*
X14391500Y-16422929D01*
X14405786Y-16380071D01*
X14420071Y-16351500D01*
X14448643Y-16308643D01*
X14462928Y-16294357D01*
X14562928Y-16365786D02*
X14577214Y-16351500D01*
X14605786Y-16337214D01*
X14677214Y-16337214D01*
X14705786Y-16351500D01*
X14720071Y-16365786D01*
X14734357Y-16394357D01*
X14734357Y-16422929D01*
X14720071Y-16465786D01*
X14548643Y-16637214D01*
X14734357Y-16637214D01*
X14991500Y-16437214D02*
X14991500Y-16637214D01*
X14920071Y-16322929D02*
X14848643Y-16537214D01*
X15034357Y-16537214D01*
X15377214Y-16637214D02*
X15377214Y-16337214D01*
X15505786Y-16637214D02*
X15505786Y-16480071D01*
X15491500Y-16451500D01*
X15462928Y-16437214D01*
X15420071Y-16437214D01*
X15391500Y-16451500D01*
X15377214Y-16465786D01*
X15691500Y-16637214D02*
X15662928Y-16622929D01*
X15648643Y-16608643D01*
X15634357Y-16580071D01*
X15634357Y-16494357D01*
X15648643Y-16465786D01*
X15662928Y-16451500D01*
X15691500Y-16437214D01*
X15734357Y-16437214D01*
X15762928Y-16451500D01*
X15777214Y-16465786D01*
X15791500Y-16494357D01*
X15791500Y-16580071D01*
X15777214Y-16608643D01*
X15762928Y-16622929D01*
X15734357Y-16637214D01*
X15691500Y-16637214D01*
X15962928Y-16637214D02*
X15934357Y-16622929D01*
X15920071Y-16594357D01*
X15920071Y-16337214D01*
X16191500Y-16622929D02*
X16162928Y-16637214D01*
X16105786Y-16637214D01*
X16077214Y-16622929D01*
X16062928Y-16594357D01*
X16062928Y-16480071D01*
X16077214Y-16451500D01*
X16105786Y-16437214D01*
X16162928Y-16437214D01*
X16191500Y-16451500D01*
X16205786Y-16480071D01*
X16205786Y-16508643D01*
X16062928Y-16537214D01*
X16320071Y-16622929D02*
X16348643Y-16637214D01*
X16405786Y-16637214D01*
X16434357Y-16622929D01*
X16448643Y-16594357D01*
X16448643Y-16580071D01*
X16434357Y-16551500D01*
X16405786Y-16537214D01*
X16362928Y-16537214D01*
X16334357Y-16522929D01*
X16320071Y-16494357D01*
X16320071Y-16480071D01*
X16334357Y-16451500D01*
X16362928Y-16437214D01*
X16405786Y-16437214D01*
X16434357Y-16451500D01*
X16548643Y-16751500D02*
X16562928Y-16737214D01*
X16591500Y-16694357D01*
X16605786Y-16665786D01*
X16620071Y-16622929D01*
X16634357Y-16551500D01*
X16634357Y-16494357D01*
X16620071Y-16422929D01*
X16605786Y-16380071D01*
X16591500Y-16351500D01*
X16562928Y-16308643D01*
X16548643Y-16294357D01*
M02*
