%FSLAX45Y45*%
G04 Gerber Fmt 4.5, Leading zero omitted, Abs format (unit mm)*
G04 Created by KiCad (PCBNEW (5.1.9)-1) date 2021-04-25 15:52:07*
%MOMM*%
%LPD*%
G01*
G04 APERTURE LIST*
%TA.AperFunction,Profile*%
%ADD10C,0.050000*%
%TD*%
%ADD11C,0.200000*%
%ADD12C,0.300000*%
G04 APERTURE END LIST*
D10*
X21209000Y-5461000D02*
X9779000Y-5461000D01*
X21209000Y-14351000D02*
X21209000Y-5461000D01*
X9779000Y-14351000D02*
X21209000Y-14351000D01*
X9779000Y-5461000D02*
X9779000Y-14351000D01*
D11*
X16277200Y-13089400D02*
X16387200Y-13199400D01*
X16387200Y-13089400D02*
X16277200Y-13199400D01*
X10447000Y-5969000D02*
G75*
G03*
X10447000Y-5969000I-160000J0D01*
G01*
X11717000Y-11557000D02*
G75*
G03*
X11717000Y-11557000I-160000J0D01*
G01*
X18321000Y-13843000D02*
G75*
G03*
X18321000Y-13843000I-160000J0D01*
G01*
X20861000Y-5969000D02*
G75*
G03*
X20861000Y-5969000I-160000J0D01*
G01*
D12*
X10062928Y-14819214D02*
X10062928Y-14519214D01*
X10134357Y-14519214D01*
X10177214Y-14533500D01*
X10205786Y-14562071D01*
X10220071Y-14590643D01*
X10234357Y-14647786D01*
X10234357Y-14690643D01*
X10220071Y-14747786D01*
X10205786Y-14776357D01*
X10177214Y-14804929D01*
X10134357Y-14819214D01*
X10062928Y-14819214D01*
X10362928Y-14819214D02*
X10362928Y-14619214D01*
X10362928Y-14676357D02*
X10377214Y-14647786D01*
X10391500Y-14633500D01*
X10420071Y-14619214D01*
X10448643Y-14619214D01*
X10548643Y-14819214D02*
X10548643Y-14619214D01*
X10548643Y-14519214D02*
X10534357Y-14533500D01*
X10548643Y-14547786D01*
X10562928Y-14533500D01*
X10548643Y-14519214D01*
X10548643Y-14547786D01*
X10734357Y-14819214D02*
X10705786Y-14804929D01*
X10691500Y-14776357D01*
X10691500Y-14519214D01*
X10891500Y-14819214D02*
X10862928Y-14804929D01*
X10848643Y-14776357D01*
X10848643Y-14519214D01*
X11234357Y-14819214D02*
X11234357Y-14519214D01*
X11334357Y-14733500D01*
X11434357Y-14519214D01*
X11434357Y-14819214D01*
X11705786Y-14819214D02*
X11705786Y-14662071D01*
X11691500Y-14633500D01*
X11662928Y-14619214D01*
X11605786Y-14619214D01*
X11577214Y-14633500D01*
X11705786Y-14804929D02*
X11677214Y-14819214D01*
X11605786Y-14819214D01*
X11577214Y-14804929D01*
X11562928Y-14776357D01*
X11562928Y-14747786D01*
X11577214Y-14719214D01*
X11605786Y-14704929D01*
X11677214Y-14704929D01*
X11705786Y-14690643D01*
X11848643Y-14619214D02*
X11848643Y-14919214D01*
X11848643Y-14633500D02*
X11877214Y-14619214D01*
X11934357Y-14619214D01*
X11962928Y-14633500D01*
X11977214Y-14647786D01*
X11991500Y-14676357D01*
X11991500Y-14762071D01*
X11977214Y-14790643D01*
X11962928Y-14804929D01*
X11934357Y-14819214D01*
X11877214Y-14819214D01*
X11848643Y-14804929D01*
X12120071Y-14790643D02*
X12134357Y-14804929D01*
X12120071Y-14819214D01*
X12105786Y-14804929D01*
X12120071Y-14790643D01*
X12120071Y-14819214D01*
X12120071Y-14633500D02*
X12134357Y-14647786D01*
X12120071Y-14662071D01*
X12105786Y-14647786D01*
X12120071Y-14633500D01*
X12120071Y-14662071D01*
X9666500Y-15258500D02*
X9776500Y-15368500D01*
X9776500Y-15258500D02*
X9666500Y-15368500D01*
X10220071Y-15449214D02*
X10048643Y-15449214D01*
X10134357Y-15449214D02*
X10134357Y-15149214D01*
X10105786Y-15192071D01*
X10077214Y-15220643D01*
X10048643Y-15234929D01*
X10348643Y-15420643D02*
X10362928Y-15434929D01*
X10348643Y-15449214D01*
X10334357Y-15434929D01*
X10348643Y-15420643D01*
X10348643Y-15449214D01*
X10648643Y-15449214D02*
X10477214Y-15449214D01*
X10562928Y-15449214D02*
X10562928Y-15149214D01*
X10534357Y-15192071D01*
X10505786Y-15220643D01*
X10477214Y-15234929D01*
X10834357Y-15149214D02*
X10862928Y-15149214D01*
X10891500Y-15163500D01*
X10905786Y-15177786D01*
X10920071Y-15206357D01*
X10934357Y-15263500D01*
X10934357Y-15334929D01*
X10920071Y-15392071D01*
X10905786Y-15420643D01*
X10891500Y-15434929D01*
X10862928Y-15449214D01*
X10834357Y-15449214D01*
X10805786Y-15434929D01*
X10791500Y-15420643D01*
X10777214Y-15392071D01*
X10762928Y-15334929D01*
X10762928Y-15263500D01*
X10777214Y-15206357D01*
X10791500Y-15177786D01*
X10805786Y-15163500D01*
X10834357Y-15149214D01*
X11062928Y-15449214D02*
X11062928Y-15249214D01*
X11062928Y-15277786D02*
X11077214Y-15263500D01*
X11105786Y-15249214D01*
X11148643Y-15249214D01*
X11177214Y-15263500D01*
X11191500Y-15292071D01*
X11191500Y-15449214D01*
X11191500Y-15292071D02*
X11205786Y-15263500D01*
X11234357Y-15249214D01*
X11277214Y-15249214D01*
X11305786Y-15263500D01*
X11320071Y-15292071D01*
X11320071Y-15449214D01*
X11462928Y-15449214D02*
X11462928Y-15249214D01*
X11462928Y-15277786D02*
X11477214Y-15263500D01*
X11505786Y-15249214D01*
X11548643Y-15249214D01*
X11577214Y-15263500D01*
X11591500Y-15292071D01*
X11591500Y-15449214D01*
X11591500Y-15292071D02*
X11605786Y-15263500D01*
X11634357Y-15249214D01*
X11677214Y-15249214D01*
X11705786Y-15263500D01*
X11720071Y-15292071D01*
X11720071Y-15449214D01*
X12305786Y-15134929D02*
X12048643Y-15520643D01*
X12691500Y-15149214D02*
X12720071Y-15149214D01*
X12748643Y-15163500D01*
X12762928Y-15177786D01*
X12777214Y-15206357D01*
X12791500Y-15263500D01*
X12791500Y-15334929D01*
X12777214Y-15392071D01*
X12762928Y-15420643D01*
X12748643Y-15434929D01*
X12720071Y-15449214D01*
X12691500Y-15449214D01*
X12662928Y-15434929D01*
X12648643Y-15420643D01*
X12634357Y-15392071D01*
X12620071Y-15334929D01*
X12620071Y-15263500D01*
X12634357Y-15206357D01*
X12648643Y-15177786D01*
X12662928Y-15163500D01*
X12691500Y-15149214D01*
X12920071Y-15420643D02*
X12934357Y-15434929D01*
X12920071Y-15449214D01*
X12905786Y-15434929D01*
X12920071Y-15420643D01*
X12920071Y-15449214D01*
X13120071Y-15149214D02*
X13148643Y-15149214D01*
X13177214Y-15163500D01*
X13191500Y-15177786D01*
X13205786Y-15206357D01*
X13220071Y-15263500D01*
X13220071Y-15334929D01*
X13205786Y-15392071D01*
X13191500Y-15420643D01*
X13177214Y-15434929D01*
X13148643Y-15449214D01*
X13120071Y-15449214D01*
X13091500Y-15434929D01*
X13077214Y-15420643D01*
X13062928Y-15392071D01*
X13048643Y-15334929D01*
X13048643Y-15263500D01*
X13062928Y-15206357D01*
X13077214Y-15177786D01*
X13091500Y-15163500D01*
X13120071Y-15149214D01*
X13477214Y-15249214D02*
X13477214Y-15449214D01*
X13405786Y-15134929D02*
X13334357Y-15349214D01*
X13520071Y-15349214D01*
X13605786Y-15149214D02*
X13791500Y-15149214D01*
X13691500Y-15263500D01*
X13734357Y-15263500D01*
X13762928Y-15277786D01*
X13777214Y-15292071D01*
X13791500Y-15320643D01*
X13791500Y-15392071D01*
X13777214Y-15420643D01*
X13762928Y-15434929D01*
X13734357Y-15449214D01*
X13648643Y-15449214D01*
X13620071Y-15434929D01*
X13605786Y-15420643D01*
X13905786Y-15149214D02*
X13905786Y-15206357D01*
X14020071Y-15149214D02*
X14020071Y-15206357D01*
X14462928Y-15563500D02*
X14448643Y-15549214D01*
X14420071Y-15506357D01*
X14405786Y-15477786D01*
X14391500Y-15434929D01*
X14377214Y-15363500D01*
X14377214Y-15306357D01*
X14391500Y-15234929D01*
X14405786Y-15192071D01*
X14420071Y-15163500D01*
X14448643Y-15120643D01*
X14462928Y-15106357D01*
X14734357Y-15449214D02*
X14562928Y-15449214D01*
X14648643Y-15449214D02*
X14648643Y-15149214D01*
X14620071Y-15192071D01*
X14591500Y-15220643D01*
X14562928Y-15234929D01*
X15091500Y-15449214D02*
X15091500Y-15149214D01*
X15220071Y-15449214D02*
X15220071Y-15292071D01*
X15205786Y-15263500D01*
X15177214Y-15249214D01*
X15134357Y-15249214D01*
X15105786Y-15263500D01*
X15091500Y-15277786D01*
X15405786Y-15449214D02*
X15377214Y-15434929D01*
X15362928Y-15420643D01*
X15348643Y-15392071D01*
X15348643Y-15306357D01*
X15362928Y-15277786D01*
X15377214Y-15263500D01*
X15405786Y-15249214D01*
X15448643Y-15249214D01*
X15477214Y-15263500D01*
X15491500Y-15277786D01*
X15505786Y-15306357D01*
X15505786Y-15392071D01*
X15491500Y-15420643D01*
X15477214Y-15434929D01*
X15448643Y-15449214D01*
X15405786Y-15449214D01*
X15677214Y-15449214D02*
X15648643Y-15434929D01*
X15634357Y-15406357D01*
X15634357Y-15149214D01*
X15905786Y-15434929D02*
X15877214Y-15449214D01*
X15820071Y-15449214D01*
X15791500Y-15434929D01*
X15777214Y-15406357D01*
X15777214Y-15292071D01*
X15791500Y-15263500D01*
X15820071Y-15249214D01*
X15877214Y-15249214D01*
X15905786Y-15263500D01*
X15920071Y-15292071D01*
X15920071Y-15320643D01*
X15777214Y-15349214D01*
X16020071Y-15563500D02*
X16034357Y-15549214D01*
X16062928Y-15506357D01*
X16077214Y-15477786D01*
X16091500Y-15434929D01*
X16105786Y-15363500D01*
X16105786Y-15306357D01*
X16091500Y-15234929D01*
X16077214Y-15192071D01*
X16062928Y-15163500D01*
X16034357Y-15120643D01*
X16020071Y-15106357D01*
X16562928Y-15563500D02*
X16548643Y-15549214D01*
X16520071Y-15506357D01*
X16505786Y-15477786D01*
X16491500Y-15434929D01*
X16477214Y-15363500D01*
X16477214Y-15306357D01*
X16491500Y-15234929D01*
X16505786Y-15192071D01*
X16520071Y-15163500D01*
X16548643Y-15120643D01*
X16562928Y-15106357D01*
X16677214Y-15249214D02*
X16677214Y-15449214D01*
X16677214Y-15277786D02*
X16691500Y-15263500D01*
X16720071Y-15249214D01*
X16762928Y-15249214D01*
X16791500Y-15263500D01*
X16805786Y-15292071D01*
X16805786Y-15449214D01*
X16991500Y-15449214D02*
X16962928Y-15434929D01*
X16948643Y-15420643D01*
X16934357Y-15392071D01*
X16934357Y-15306357D01*
X16948643Y-15277786D01*
X16962928Y-15263500D01*
X16991500Y-15249214D01*
X17034357Y-15249214D01*
X17062928Y-15263500D01*
X17077214Y-15277786D01*
X17091500Y-15306357D01*
X17091500Y-15392071D01*
X17077214Y-15420643D01*
X17062928Y-15434929D01*
X17034357Y-15449214D01*
X16991500Y-15449214D01*
X17177214Y-15249214D02*
X17291500Y-15249214D01*
X17220071Y-15149214D02*
X17220071Y-15406357D01*
X17234357Y-15434929D01*
X17262928Y-15449214D01*
X17291500Y-15449214D01*
X17620071Y-15249214D02*
X17620071Y-15549214D01*
X17620071Y-15263500D02*
X17648643Y-15249214D01*
X17705786Y-15249214D01*
X17734357Y-15263500D01*
X17748643Y-15277786D01*
X17762928Y-15306357D01*
X17762928Y-15392071D01*
X17748643Y-15420643D01*
X17734357Y-15434929D01*
X17705786Y-15449214D01*
X17648643Y-15449214D01*
X17620071Y-15434929D01*
X17934357Y-15449214D02*
X17905786Y-15434929D01*
X17891500Y-15406357D01*
X17891500Y-15149214D01*
X18177214Y-15449214D02*
X18177214Y-15292071D01*
X18162928Y-15263500D01*
X18134357Y-15249214D01*
X18077214Y-15249214D01*
X18048643Y-15263500D01*
X18177214Y-15434929D02*
X18148643Y-15449214D01*
X18077214Y-15449214D01*
X18048643Y-15434929D01*
X18034357Y-15406357D01*
X18034357Y-15377786D01*
X18048643Y-15349214D01*
X18077214Y-15334929D01*
X18148643Y-15334929D01*
X18177214Y-15320643D01*
X18277214Y-15249214D02*
X18391500Y-15249214D01*
X18320071Y-15149214D02*
X18320071Y-15406357D01*
X18334357Y-15434929D01*
X18362928Y-15449214D01*
X18391500Y-15449214D01*
X18605786Y-15434929D02*
X18577214Y-15449214D01*
X18520071Y-15449214D01*
X18491500Y-15434929D01*
X18477214Y-15406357D01*
X18477214Y-15292071D01*
X18491500Y-15263500D01*
X18520071Y-15249214D01*
X18577214Y-15249214D01*
X18605786Y-15263500D01*
X18620071Y-15292071D01*
X18620071Y-15320643D01*
X18477214Y-15349214D01*
X18877214Y-15449214D02*
X18877214Y-15149214D01*
X18877214Y-15434929D02*
X18848643Y-15449214D01*
X18791500Y-15449214D01*
X18762928Y-15434929D01*
X18748643Y-15420643D01*
X18734357Y-15392071D01*
X18734357Y-15306357D01*
X18748643Y-15277786D01*
X18762928Y-15263500D01*
X18791500Y-15249214D01*
X18848643Y-15249214D01*
X18877214Y-15263500D01*
X18991500Y-15563500D02*
X19005786Y-15549214D01*
X19034357Y-15506357D01*
X19048643Y-15477786D01*
X19062928Y-15434929D01*
X19077214Y-15363500D01*
X19077214Y-15306357D01*
X19062928Y-15234929D01*
X19048643Y-15192071D01*
X19034357Y-15163500D01*
X19005786Y-15120643D01*
X18991500Y-15106357D01*
X9776500Y-15709500D02*
G75*
G03*
X9776500Y-15709500I-160000J0D01*
G01*
X10034357Y-15545214D02*
X10220071Y-15545214D01*
X10120071Y-15659500D01*
X10162928Y-15659500D01*
X10191500Y-15673786D01*
X10205786Y-15688071D01*
X10220071Y-15716643D01*
X10220071Y-15788071D01*
X10205786Y-15816643D01*
X10191500Y-15830929D01*
X10162928Y-15845214D01*
X10077214Y-15845214D01*
X10048643Y-15830929D01*
X10034357Y-15816643D01*
X10348643Y-15816643D02*
X10362928Y-15830929D01*
X10348643Y-15845214D01*
X10334357Y-15830929D01*
X10348643Y-15816643D01*
X10348643Y-15845214D01*
X10477214Y-15573786D02*
X10491500Y-15559500D01*
X10520071Y-15545214D01*
X10591500Y-15545214D01*
X10620071Y-15559500D01*
X10634357Y-15573786D01*
X10648643Y-15602357D01*
X10648643Y-15630929D01*
X10634357Y-15673786D01*
X10462928Y-15845214D01*
X10648643Y-15845214D01*
X10834357Y-15545214D02*
X10862928Y-15545214D01*
X10891500Y-15559500D01*
X10905786Y-15573786D01*
X10920071Y-15602357D01*
X10934357Y-15659500D01*
X10934357Y-15730929D01*
X10920071Y-15788071D01*
X10905786Y-15816643D01*
X10891500Y-15830929D01*
X10862928Y-15845214D01*
X10834357Y-15845214D01*
X10805786Y-15830929D01*
X10791500Y-15816643D01*
X10777214Y-15788071D01*
X10762928Y-15730929D01*
X10762928Y-15659500D01*
X10777214Y-15602357D01*
X10791500Y-15573786D01*
X10805786Y-15559500D01*
X10834357Y-15545214D01*
X11062928Y-15845214D02*
X11062928Y-15645214D01*
X11062928Y-15673786D02*
X11077214Y-15659500D01*
X11105786Y-15645214D01*
X11148643Y-15645214D01*
X11177214Y-15659500D01*
X11191500Y-15688071D01*
X11191500Y-15845214D01*
X11191500Y-15688071D02*
X11205786Y-15659500D01*
X11234357Y-15645214D01*
X11277214Y-15645214D01*
X11305786Y-15659500D01*
X11320071Y-15688071D01*
X11320071Y-15845214D01*
X11462928Y-15845214D02*
X11462928Y-15645214D01*
X11462928Y-15673786D02*
X11477214Y-15659500D01*
X11505786Y-15645214D01*
X11548643Y-15645214D01*
X11577214Y-15659500D01*
X11591500Y-15688071D01*
X11591500Y-15845214D01*
X11591500Y-15688071D02*
X11605786Y-15659500D01*
X11634357Y-15645214D01*
X11677214Y-15645214D01*
X11705786Y-15659500D01*
X11720071Y-15688071D01*
X11720071Y-15845214D01*
X12305786Y-15530929D02*
X12048643Y-15916643D01*
X12691500Y-15545214D02*
X12720071Y-15545214D01*
X12748643Y-15559500D01*
X12762928Y-15573786D01*
X12777214Y-15602357D01*
X12791500Y-15659500D01*
X12791500Y-15730929D01*
X12777214Y-15788071D01*
X12762928Y-15816643D01*
X12748643Y-15830929D01*
X12720071Y-15845214D01*
X12691500Y-15845214D01*
X12662928Y-15830929D01*
X12648643Y-15816643D01*
X12634357Y-15788071D01*
X12620071Y-15730929D01*
X12620071Y-15659500D01*
X12634357Y-15602357D01*
X12648643Y-15573786D01*
X12662928Y-15559500D01*
X12691500Y-15545214D01*
X12920071Y-15816643D02*
X12934357Y-15830929D01*
X12920071Y-15845214D01*
X12905786Y-15830929D01*
X12920071Y-15816643D01*
X12920071Y-15845214D01*
X13220071Y-15845214D02*
X13048643Y-15845214D01*
X13134357Y-15845214D02*
X13134357Y-15545214D01*
X13105786Y-15588071D01*
X13077214Y-15616643D01*
X13048643Y-15630929D01*
X13334357Y-15573786D02*
X13348643Y-15559500D01*
X13377214Y-15545214D01*
X13448643Y-15545214D01*
X13477214Y-15559500D01*
X13491500Y-15573786D01*
X13505786Y-15602357D01*
X13505786Y-15630929D01*
X13491500Y-15673786D01*
X13320071Y-15845214D01*
X13505786Y-15845214D01*
X13762928Y-15545214D02*
X13705786Y-15545214D01*
X13677214Y-15559500D01*
X13662928Y-15573786D01*
X13634357Y-15616643D01*
X13620071Y-15673786D01*
X13620071Y-15788071D01*
X13634357Y-15816643D01*
X13648643Y-15830929D01*
X13677214Y-15845214D01*
X13734357Y-15845214D01*
X13762928Y-15830929D01*
X13777214Y-15816643D01*
X13791500Y-15788071D01*
X13791500Y-15716643D01*
X13777214Y-15688071D01*
X13762928Y-15673786D01*
X13734357Y-15659500D01*
X13677214Y-15659500D01*
X13648643Y-15673786D01*
X13634357Y-15688071D01*
X13620071Y-15716643D01*
X13905786Y-15545214D02*
X13905786Y-15602357D01*
X14020071Y-15545214D02*
X14020071Y-15602357D01*
X14462928Y-15959500D02*
X14448643Y-15945214D01*
X14420071Y-15902357D01*
X14405786Y-15873786D01*
X14391500Y-15830929D01*
X14377214Y-15759500D01*
X14377214Y-15702357D01*
X14391500Y-15630929D01*
X14405786Y-15588071D01*
X14420071Y-15559500D01*
X14448643Y-15516643D01*
X14462928Y-15502357D01*
X14705786Y-15645214D02*
X14705786Y-15845214D01*
X14634357Y-15530929D02*
X14562928Y-15745214D01*
X14748643Y-15745214D01*
X15091500Y-15845214D02*
X15091500Y-15545214D01*
X15220071Y-15845214D02*
X15220071Y-15688071D01*
X15205786Y-15659500D01*
X15177214Y-15645214D01*
X15134357Y-15645214D01*
X15105786Y-15659500D01*
X15091500Y-15673786D01*
X15405786Y-15845214D02*
X15377214Y-15830929D01*
X15362928Y-15816643D01*
X15348643Y-15788071D01*
X15348643Y-15702357D01*
X15362928Y-15673786D01*
X15377214Y-15659500D01*
X15405786Y-15645214D01*
X15448643Y-15645214D01*
X15477214Y-15659500D01*
X15491500Y-15673786D01*
X15505786Y-15702357D01*
X15505786Y-15788071D01*
X15491500Y-15816643D01*
X15477214Y-15830929D01*
X15448643Y-15845214D01*
X15405786Y-15845214D01*
X15677214Y-15845214D02*
X15648643Y-15830929D01*
X15634357Y-15802357D01*
X15634357Y-15545214D01*
X15905786Y-15830929D02*
X15877214Y-15845214D01*
X15820071Y-15845214D01*
X15791500Y-15830929D01*
X15777214Y-15802357D01*
X15777214Y-15688071D01*
X15791500Y-15659500D01*
X15820071Y-15645214D01*
X15877214Y-15645214D01*
X15905786Y-15659500D01*
X15920071Y-15688071D01*
X15920071Y-15716643D01*
X15777214Y-15745214D01*
X16034357Y-15830929D02*
X16062928Y-15845214D01*
X16120071Y-15845214D01*
X16148643Y-15830929D01*
X16162928Y-15802357D01*
X16162928Y-15788071D01*
X16148643Y-15759500D01*
X16120071Y-15745214D01*
X16077214Y-15745214D01*
X16048643Y-15730929D01*
X16034357Y-15702357D01*
X16034357Y-15688071D01*
X16048643Y-15659500D01*
X16077214Y-15645214D01*
X16120071Y-15645214D01*
X16148643Y-15659500D01*
X16262928Y-15959500D02*
X16277214Y-15945214D01*
X16305786Y-15902357D01*
X16320071Y-15873786D01*
X16334357Y-15830929D01*
X16348643Y-15759500D01*
X16348643Y-15702357D01*
X16334357Y-15630929D01*
X16320071Y-15588071D01*
X16305786Y-15559500D01*
X16277214Y-15516643D01*
X16262928Y-15502357D01*
X16805786Y-15959500D02*
X16791500Y-15945214D01*
X16762928Y-15902357D01*
X16748643Y-15873786D01*
X16734357Y-15830929D01*
X16720071Y-15759500D01*
X16720071Y-15702357D01*
X16734357Y-15630929D01*
X16748643Y-15588071D01*
X16762928Y-15559500D01*
X16791500Y-15516643D01*
X16805786Y-15502357D01*
X16920071Y-15645214D02*
X16920071Y-15845214D01*
X16920071Y-15673786D02*
X16934357Y-15659500D01*
X16962928Y-15645214D01*
X17005786Y-15645214D01*
X17034357Y-15659500D01*
X17048643Y-15688071D01*
X17048643Y-15845214D01*
X17234357Y-15845214D02*
X17205786Y-15830929D01*
X17191500Y-15816643D01*
X17177214Y-15788071D01*
X17177214Y-15702357D01*
X17191500Y-15673786D01*
X17205786Y-15659500D01*
X17234357Y-15645214D01*
X17277214Y-15645214D01*
X17305786Y-15659500D01*
X17320071Y-15673786D01*
X17334357Y-15702357D01*
X17334357Y-15788071D01*
X17320071Y-15816643D01*
X17305786Y-15830929D01*
X17277214Y-15845214D01*
X17234357Y-15845214D01*
X17420071Y-15645214D02*
X17534357Y-15645214D01*
X17462928Y-15545214D02*
X17462928Y-15802357D01*
X17477214Y-15830929D01*
X17505786Y-15845214D01*
X17534357Y-15845214D01*
X17862928Y-15645214D02*
X17862928Y-15945214D01*
X17862928Y-15659500D02*
X17891500Y-15645214D01*
X17948643Y-15645214D01*
X17977214Y-15659500D01*
X17991500Y-15673786D01*
X18005786Y-15702357D01*
X18005786Y-15788071D01*
X17991500Y-15816643D01*
X17977214Y-15830929D01*
X17948643Y-15845214D01*
X17891500Y-15845214D01*
X17862928Y-15830929D01*
X18177214Y-15845214D02*
X18148643Y-15830929D01*
X18134357Y-15802357D01*
X18134357Y-15545214D01*
X18420071Y-15845214D02*
X18420071Y-15688071D01*
X18405786Y-15659500D01*
X18377214Y-15645214D01*
X18320071Y-15645214D01*
X18291500Y-15659500D01*
X18420071Y-15830929D02*
X18391500Y-15845214D01*
X18320071Y-15845214D01*
X18291500Y-15830929D01*
X18277214Y-15802357D01*
X18277214Y-15773786D01*
X18291500Y-15745214D01*
X18320071Y-15730929D01*
X18391500Y-15730929D01*
X18420071Y-15716643D01*
X18520071Y-15645214D02*
X18634357Y-15645214D01*
X18562928Y-15545214D02*
X18562928Y-15802357D01*
X18577214Y-15830929D01*
X18605786Y-15845214D01*
X18634357Y-15845214D01*
X18848643Y-15830929D02*
X18820071Y-15845214D01*
X18762928Y-15845214D01*
X18734357Y-15830929D01*
X18720071Y-15802357D01*
X18720071Y-15688071D01*
X18734357Y-15659500D01*
X18762928Y-15645214D01*
X18820071Y-15645214D01*
X18848643Y-15659500D01*
X18862928Y-15688071D01*
X18862928Y-15716643D01*
X18720071Y-15745214D01*
X19120071Y-15845214D02*
X19120071Y-15545214D01*
X19120071Y-15830929D02*
X19091500Y-15845214D01*
X19034357Y-15845214D01*
X19005786Y-15830929D01*
X18991500Y-15816643D01*
X18977214Y-15788071D01*
X18977214Y-15702357D01*
X18991500Y-15673786D01*
X19005786Y-15659500D01*
X19034357Y-15645214D01*
X19091500Y-15645214D01*
X19120071Y-15659500D01*
X19234357Y-15959500D02*
X19248643Y-15945214D01*
X19277214Y-15902357D01*
X19291500Y-15873786D01*
X19305786Y-15830929D01*
X19320071Y-15759500D01*
X19320071Y-15702357D01*
X19305786Y-15630929D01*
X19291500Y-15588071D01*
X19277214Y-15559500D01*
X19248643Y-15516643D01*
X19234357Y-15502357D01*
M02*
