M48
; DRILL file {KiCad (5.1.9)-1} date 04/25/21 15:51:40
; FORMAT={-:-/ absolute / metric / decimal}
; #@! TF.CreationDate,2021-04-25T15:51:40-04:00
; #@! TF.GenerationSoftware,Kicad,Pcbnew,(5.1.9)-1
; #@! TF.FileFunction,Plated,1,4,PTH
FMAT,2
METRIC
T1C0.254
T2C0.300
T3C1.020
T4C1.400
%
G90
G05
T1
X112.27Y-76.47
X112.27Y-77.47
X112.27Y-78.47
X113.37Y-76.47
X113.37Y-77.47
X113.37Y-78.47
X114.47Y-76.47
X114.47Y-77.47
X114.47Y-78.47
X115.57Y-76.47
X115.57Y-77.47
X115.57Y-78.47
X116.67Y-76.47
X116.67Y-77.47
X116.67Y-78.47
X117.77Y-76.47
X117.77Y-77.47
X117.77Y-78.47
X118.87Y-76.47
X118.87Y-77.47
X118.87Y-78.47
X135.765Y-76.47
X135.765Y-77.47
X135.765Y-78.47
X136.865Y-76.47
X136.865Y-77.47
X136.865Y-78.47
X137.965Y-76.47
X137.965Y-77.47
X137.965Y-78.47
X139.065Y-76.47
X139.065Y-77.47
X139.065Y-78.47
X140.165Y-76.47
X140.165Y-77.47
X140.165Y-78.47
X141.265Y-76.47
X141.265Y-77.47
X141.265Y-78.47
X142.365Y-76.47
X142.365Y-77.47
X142.365Y-78.47
X159.26Y-76.47
X159.26Y-77.47
X159.26Y-78.47
X160.36Y-76.47
X160.36Y-77.47
X160.36Y-78.47
X161.46Y-76.47
X161.46Y-77.47
X161.46Y-78.47
X162.56Y-76.47
X162.56Y-77.47
X162.56Y-78.47
X163.66Y-76.47
X163.66Y-77.47
X163.66Y-78.47
X164.76Y-76.47
X164.76Y-77.47
X164.76Y-78.47
X165.86Y-76.47
X165.86Y-77.47
X165.86Y-78.47
X182.755Y-76.47
X182.755Y-77.47
X182.755Y-78.47
X183.855Y-76.47
X183.855Y-77.47
X183.855Y-78.47
X184.955Y-76.47
X184.955Y-77.47
X184.955Y-78.47
X186.055Y-76.47
X186.055Y-77.47
X186.055Y-78.47
X187.155Y-76.47
X187.155Y-77.47
X187.155Y-78.47
X188.23Y-98.935
X188.23Y-100.035
X188.23Y-101.135
X188.23Y-102.235
X188.23Y-103.335
X188.23Y-104.435
X188.23Y-105.535
X188.23Y-122.43
X188.23Y-123.53
X188.23Y-124.63
X188.23Y-125.73
X188.23Y-126.83
X188.23Y-127.93
X188.23Y-129.03
X188.255Y-76.47
X188.255Y-77.47
X188.255Y-78.47
X189.23Y-98.935
X189.23Y-100.035
X189.23Y-101.135
X189.23Y-102.235
X189.23Y-103.335
X189.23Y-104.435
X189.23Y-105.535
X189.23Y-122.43
X189.23Y-123.53
X189.23Y-124.63
X189.23Y-125.73
X189.23Y-126.83
X189.23Y-127.93
X189.23Y-129.03
X189.355Y-76.47
X189.355Y-77.47
X189.355Y-78.47
X190.23Y-98.935
X190.23Y-100.035
X190.23Y-101.135
X190.23Y-102.235
X190.23Y-103.335
X190.23Y-104.435
X190.23Y-105.535
X190.23Y-122.43
X190.23Y-123.53
X190.23Y-124.63
X190.23Y-125.73
X190.23Y-126.83
X190.23Y-127.93
X190.23Y-129.03
T2
X100.33Y-121.158
X100.33Y-122.936
X100.33Y-124.46
X100.33Y-125.984
X100.33Y-132.08
X100.33Y-133.35
X100.33Y-134.62
X100.33Y-135.89
X100.33Y-137.16
X100.33Y-138.43
X101.6Y-138.43
X102.235Y-93.091
X102.235Y-94.615
X102.235Y-95.631
X102.235Y-106.553
X102.235Y-107.569
X102.235Y-108.712
X102.362Y-98.552
X102.362Y-99.695
X102.362Y-102.616
X102.362Y-121.158
X102.87Y-138.43
X104.14Y-121.158
X104.14Y-138.43
X105.41Y-138.43
X105.918Y-121.158
X106.68Y-138.43
X106.807Y-80.645
X106.807Y-82.677
X107.95Y-121.158
X107.95Y-122.936
X107.95Y-124.46
X107.95Y-125.984
X107.95Y-132.08
X107.95Y-133.35
X107.95Y-134.62
X107.95Y-135.89
X107.95Y-137.16
X107.95Y-138.43
X111.252Y-86.868
X111.76Y-125.73
X111.76Y-127.0
X111.76Y-128.27
X111.887Y-70.993
X114.3Y-88.138
X115.895Y-82.55
X116.078Y-88.138
X116.078Y-97.282
X116.84Y-98.044
X119.38Y-96.52
X119.634Y-92.964
X120.142Y-124.206
X120.142Y-126.238
X120.396Y-91.186
X121.158Y-93.98
X121.158Y-95.504
X121.92Y-124.206
X121.924Y-91.19
X122.428Y-92.075
X124.079Y-65.913
X124.079Y-67.056
X124.079Y-68.072
X124.079Y-69.215
X124.46Y-111.252
X124.46Y-112.776
X124.46Y-114.3
X124.46Y-115.824
X124.46Y-117.348
X124.46Y-118.872
X125.095Y-77.343
X125.726Y-85.34
X125.984Y-123.444
X125.984Y-124.714
X125.984Y-125.984
X126.365Y-77.343
X126.492Y-109.22
X127.635Y-77.343
X128.016Y-109.22
X128.016Y-123.444
X128.778Y-65.913
X128.778Y-67.056
X128.778Y-68.072
X128.778Y-69.342
X129.54Y-109.22
X130.175Y-80.645
X130.175Y-82.55
X130.302Y-97.79
X130.81Y-99.314
X131.064Y-109.22
X131.445Y-73.152
X131.445Y-123.825
X132.08Y-84.582
X132.08Y-86.614
X132.588Y-93.98
X132.588Y-95.504
X132.588Y-109.22
X133.504Y-73.559
X134.112Y-109.22
X134.414Y-74.47
X134.845Y-123.727
X135.228Y-70.892
X135.382Y-84.074
X135.636Y-109.22
X136.779Y-84.709
X137.16Y-109.22
X137.414Y-83.058
X138.176Y-90.678
X138.684Y-111.252
X138.684Y-112.776
X138.684Y-114.3
X138.684Y-115.824
X138.684Y-117.348
X138.684Y-118.872
X139.446Y-83.058
X140.716Y-88.138
X142.494Y-88.138
X142.494Y-100.33
X143.002Y-126.365
X143.256Y-101.092
X144.526Y-88.138
X144.526Y-95.504
X145.034Y-96.266
X145.034Y-105.41
X145.034Y-106.426
X145.796Y-97.028
X146.304Y-88.138
X146.304Y-140.97
X146.558Y-129.032
X146.558Y-139.192
X147.066Y-101.092
X147.574Y-65.532
X147.574Y-66.802
X147.574Y-68.072
X147.574Y-69.342
X148.59Y-77.343
X149.86Y-77.343
X150.368Y-107.696
X151.13Y-77.343
X151.384Y-114.3
X151.384Y-115.57
X151.384Y-116.84
X151.384Y-118.364
X152.146Y-91.44
X152.146Y-122.174
X152.146Y-123.19
X152.146Y-124.46
X152.273Y-65.532
X152.273Y-66.802
X152.273Y-68.072
X152.273Y-69.469
X152.4Y-103.632
X152.908Y-102.616
X153.162Y-107.442
X153.162Y-122.174
X153.67Y-92.964
X153.67Y-131.318
X153.67Y-132.588
X153.67Y-133.858
X153.67Y-135.128
X153.67Y-136.398
X153.797Y-80.645
X153.797Y-82.55
X154.94Y-73.279
X155.194Y-85.09
X155.194Y-86.614
X155.194Y-125.73
X155.194Y-127.762
X155.448Y-101.092
X155.829Y-102.616
X156.362Y-105.816
X156.464Y-127.762
X156.871Y-73.305
X157.734Y-110.236
X158.036Y-74.47
X158.496Y-87.122
X158.596Y-71.019
X159.612Y-129.894
X160.274Y-137.668
X161.29Y-88.138
X162.814Y-114.3
X162.814Y-115.824
X162.814Y-117.094
X162.814Y-118.618
X162.814Y-120.142
X162.862Y-83.058
X163.068Y-88.138
X163.195Y-109.093
X165.354Y-112.014
X166.624Y-90.17
X167.64Y-90.932
X168.148Y-93.472
X168.148Y-94.996
X168.402Y-91.829
X168.91Y-111.252
X168.91Y-125.222
X169.164Y-85.09
X170.561Y-108.077
X170.561Y-119.253
X170.688Y-98.298
X171.069Y-65.532
X171.069Y-66.802
X171.069Y-68.072
X171.069Y-69.469
X171.704Y-96.266
X172.085Y-77.343
X172.085Y-108.077
X172.085Y-119.253
X173.355Y-77.343
X173.355Y-110.744
X174.625Y-106.172
X174.752Y-77.343
X175.26Y-124.46
X175.768Y-65.532
X175.768Y-66.802
X175.768Y-68.072
X175.768Y-69.469
X175.768Y-125.984
X176.276Y-105.918
X177.165Y-80.645
X177.165Y-82.55
X178.054Y-100.838
X178.054Y-102.87
X178.054Y-127.127
X178.054Y-131.318
X178.054Y-133.096
X178.435Y-73.279
X178.708Y-84.69
X178.816Y-86.614
X178.816Y-96.266
X179.07Y-128.778
X179.578Y-93.472
X179.578Y-94.996
X179.578Y-118.618
X179.578Y-119.634
X180.239Y-73.305
X180.721Y-98.044
X180.721Y-108.839
X181.356Y-96.393
X181.404Y-74.47
X181.61Y-118.618
X181.964Y-70.766
X182.372Y-83.82
X183.134Y-122.047
X183.642Y-126.032
X184.15Y-93.599
X184.15Y-102.583
X184.15Y-117.094
X184.404Y-83.82
X184.407Y-82.55
X184.531Y-124.079
X185.928Y-89.916
X186.055Y-93.599
X186.182Y-117.094
X186.403Y-82.804
X187.706Y-88.138
X188.976Y-87.122
X189.23Y-112.014
X189.23Y-113.03
X189.23Y-114.046
X189.23Y-135.382
X189.23Y-136.398
X189.23Y-137.414
X191.516Y-88.138
X192.23Y-97.584
X193.294Y-118.11
X193.421Y-88.011
X193.548Y-141.478
X194.564Y-65.532
X194.564Y-66.802
X194.564Y-68.072
X194.564Y-69.469
X194.818Y-119.888
X195.326Y-77.47
X196.088Y-95.123
X196.215Y-127.762
X196.85Y-77.47
X196.85Y-91.694
X196.85Y-110.744
X196.85Y-115.316
X196.85Y-134.112
X196.85Y-138.938
X197.612Y-98.171
X197.866Y-121.793
X198.12Y-110.744
X198.12Y-115.316
X198.12Y-134.112
X198.12Y-138.938
X198.501Y-77.47
X199.263Y-65.532
X199.263Y-66.802
X199.263Y-68.072
X199.263Y-69.469
X199.39Y-110.744
X199.39Y-115.316
X199.39Y-134.112
X199.39Y-138.938
X200.66Y-110.744
X200.66Y-115.316
X200.66Y-134.112
X200.66Y-138.938
X201.93Y-73.152
T3
X158.242Y-133.604
X160.782Y-133.604
X163.322Y-133.604
X165.862Y-133.604
T4
X111.125Y-59.69
X116.205Y-59.69
X121.285Y-59.69
X126.365Y-59.69
X134.62Y-59.69
X139.7Y-59.69
X144.78Y-59.69
X149.86Y-59.69
X158.115Y-59.69
X163.195Y-59.69
X168.275Y-59.69
X173.355Y-59.69
X181.61Y-59.69
X186.69Y-59.69
X191.77Y-59.69
X196.85Y-59.69
X207.01Y-97.79
X207.01Y-102.87
X207.01Y-107.95
X207.01Y-113.03
X207.01Y-121.285
X207.01Y-126.365
X207.01Y-131.445
X207.01Y-136.525
T0
M30
