%TF.GenerationSoftware,KiCad,Pcbnew,(5.1.9)-1*%
%TF.CreationDate,2021-04-25T15:51:04-04:00*%
%TF.ProjectId,motor_driver_prj,6d6f746f-725f-4647-9269-7665725f7072,rev?*%
%TF.SameCoordinates,Original*%
%TF.FileFunction,Copper,L4,Bot*%
%TF.FilePolarity,Positive*%
%FSLAX46Y46*%
G04 Gerber Fmt 4.6, Leading zero omitted, Abs format (unit mm)*
G04 Created by KiCad (PCBNEW (5.1.9)-1) date 2021-04-25 15:51:04*
%MOMM*%
%LPD*%
G01*
G04 APERTURE LIST*
%TA.AperFunction,ComponentPad*%
%ADD10C,0.500000*%
%TD*%
%TA.AperFunction,ComponentPad*%
%ADD11R,1.730000X2.030000*%
%TD*%
%TA.AperFunction,ComponentPad*%
%ADD12O,1.730000X2.030000*%
%TD*%
%TA.AperFunction,ComponentPad*%
%ADD13O,2.080000X3.600000*%
%TD*%
%TA.AperFunction,ComponentPad*%
%ADD14O,3.600000X2.080000*%
%TD*%
%TA.AperFunction,ViaPad*%
%ADD15C,0.600000*%
%TD*%
%TA.AperFunction,Conductor*%
%ADD16C,0.254000*%
%TD*%
%TA.AperFunction,Conductor*%
%ADD17C,0.250000*%
%TD*%
G04 APERTURE END LIST*
D10*
%TO.P,U10,25*%
%TO.N,GND*%
X142365000Y-76470000D03*
X141265000Y-76470000D03*
X140165000Y-76470000D03*
X139065000Y-76470000D03*
X137965000Y-76470000D03*
X136865000Y-76470000D03*
X135765000Y-76470000D03*
X142365000Y-77470000D03*
X141265000Y-77470000D03*
X135765000Y-77470000D03*
X136865000Y-77470000D03*
X137965000Y-77470000D03*
X140165000Y-77470000D03*
X139065000Y-77470000D03*
X139065000Y-78470000D03*
X140165000Y-78470000D03*
X135765000Y-78470000D03*
X142365000Y-78470000D03*
X136865000Y-78470000D03*
X137965000Y-78470000D03*
X141265000Y-78470000D03*
%TD*%
%TO.P,U9,25*%
%TO.N,GND*%
X165860000Y-76470000D03*
X164760000Y-76470000D03*
X163660000Y-76470000D03*
X162560000Y-76470000D03*
X161460000Y-76470000D03*
X160360000Y-76470000D03*
X159260000Y-76470000D03*
X165860000Y-77470000D03*
X164760000Y-77470000D03*
X159260000Y-77470000D03*
X160360000Y-77470000D03*
X161460000Y-77470000D03*
X163660000Y-77470000D03*
X162560000Y-77470000D03*
X162560000Y-78470000D03*
X163660000Y-78470000D03*
X159260000Y-78470000D03*
X165860000Y-78470000D03*
X160360000Y-78470000D03*
X161460000Y-78470000D03*
X164760000Y-78470000D03*
%TD*%
%TO.P,U8,25*%
%TO.N,GND*%
X189355000Y-76470000D03*
X188255000Y-76470000D03*
X187155000Y-76470000D03*
X186055000Y-76470000D03*
X184955000Y-76470000D03*
X183855000Y-76470000D03*
X182755000Y-76470000D03*
X189355000Y-77470000D03*
X188255000Y-77470000D03*
X182755000Y-77470000D03*
X183855000Y-77470000D03*
X184955000Y-77470000D03*
X187155000Y-77470000D03*
X186055000Y-77470000D03*
X186055000Y-78470000D03*
X187155000Y-78470000D03*
X182755000Y-78470000D03*
X189355000Y-78470000D03*
X183855000Y-78470000D03*
X184955000Y-78470000D03*
X188255000Y-78470000D03*
%TD*%
D11*
%TO.P,J2,1*%
%TO.N,Net-(J2-Pad1)*%
X158242000Y-133604000D03*
D12*
%TO.P,J2,2*%
%TO.N,N/C*%
X160782000Y-133604000D03*
%TO.P,J2,3*%
%TO.N,+12V*%
X163322000Y-133604000D03*
%TO.P,J2,4*%
%TO.N,GND*%
X165862000Y-133604000D03*
%TD*%
D13*
%TO.P,J3,4*%
%TO.N,/AllDrivers/MOTOR1_B1*%
X111125000Y-59690000D03*
%TO.P,J3,3*%
%TO.N,/AllDrivers/MOTOR1_B2*%
X116205000Y-59690000D03*
%TO.P,J3,2*%
%TO.N,/AllDrivers/MOTOR1_A2*%
X121285000Y-59690000D03*
%TO.P,J3,1*%
%TO.N,/AllDrivers/MOTOR1_A1*%
%TA.AperFunction,ComponentPad*%
G36*
G01*
X127405000Y-58139999D02*
X127405000Y-61240001D01*
G75*
G02*
X127155001Y-61490000I-249999J0D01*
G01*
X125574999Y-61490000D01*
G75*
G02*
X125325000Y-61240001I0J249999D01*
G01*
X125325000Y-58139999D01*
G75*
G02*
X125574999Y-57890000I249999J0D01*
G01*
X127155001Y-57890000D01*
G75*
G02*
X127405000Y-58139999I0J-249999D01*
G01*
G37*
%TD.AperFunction*%
%TD*%
%TO.P,J4,4*%
%TO.N,/AllDrivers/MOTOR2_B1*%
X134620000Y-59690000D03*
%TO.P,J4,3*%
%TO.N,/AllDrivers/MOTOR2_B2*%
X139700000Y-59690000D03*
%TO.P,J4,2*%
%TO.N,/AllDrivers/MOTOR2_A2*%
X144780000Y-59690000D03*
%TO.P,J4,1*%
%TO.N,/AllDrivers/MOTOR2_A1*%
%TA.AperFunction,ComponentPad*%
G36*
G01*
X150900000Y-58139999D02*
X150900000Y-61240001D01*
G75*
G02*
X150650001Y-61490000I-249999J0D01*
G01*
X149069999Y-61490000D01*
G75*
G02*
X148820000Y-61240001I0J249999D01*
G01*
X148820000Y-58139999D01*
G75*
G02*
X149069999Y-57890000I249999J0D01*
G01*
X150650001Y-57890000D01*
G75*
G02*
X150900000Y-58139999I0J-249999D01*
G01*
G37*
%TD.AperFunction*%
%TD*%
%TO.P,J5,4*%
%TO.N,/AllDrivers/MOTOR3_B1*%
X158115000Y-59690000D03*
%TO.P,J5,3*%
%TO.N,/AllDrivers/MOTOR3_B2*%
X163195000Y-59690000D03*
%TO.P,J5,2*%
%TO.N,/AllDrivers/MOTOR3_A2*%
X168275000Y-59690000D03*
%TO.P,J5,1*%
%TO.N,/AllDrivers/MOTOR3_A1*%
%TA.AperFunction,ComponentPad*%
G36*
G01*
X174395000Y-58139999D02*
X174395000Y-61240001D01*
G75*
G02*
X174145001Y-61490000I-249999J0D01*
G01*
X172564999Y-61490000D01*
G75*
G02*
X172315000Y-61240001I0J249999D01*
G01*
X172315000Y-58139999D01*
G75*
G02*
X172564999Y-57890000I249999J0D01*
G01*
X174145001Y-57890000D01*
G75*
G02*
X174395000Y-58139999I0J-249999D01*
G01*
G37*
%TD.AperFunction*%
%TD*%
%TO.P,J6,4*%
%TO.N,/AllDrivers/MOTOR4_B1*%
X181610000Y-59690000D03*
%TO.P,J6,3*%
%TO.N,/AllDrivers/MOTOR4_B2*%
X186690000Y-59690000D03*
%TO.P,J6,2*%
%TO.N,/AllDrivers/MOTOR4_A2*%
X191770000Y-59690000D03*
%TO.P,J6,1*%
%TO.N,/AllDrivers/MOTOR4_A1*%
%TA.AperFunction,ComponentPad*%
G36*
G01*
X197890000Y-58139999D02*
X197890000Y-61240001D01*
G75*
G02*
X197640001Y-61490000I-249999J0D01*
G01*
X196059999Y-61490000D01*
G75*
G02*
X195810000Y-61240001I0J249999D01*
G01*
X195810000Y-58139999D01*
G75*
G02*
X196059999Y-57890000I249999J0D01*
G01*
X197640001Y-57890000D01*
G75*
G02*
X197890000Y-58139999I0J-249999D01*
G01*
G37*
%TD.AperFunction*%
%TD*%
D14*
%TO.P,J7,4*%
%TO.N,/AllDrivers/MOTOR5_B1*%
X207010000Y-97790000D03*
%TO.P,J7,3*%
%TO.N,/AllDrivers/MOTOR5_B2*%
X207010000Y-102870000D03*
%TO.P,J7,2*%
%TO.N,/AllDrivers/MOTOR5_A2*%
X207010000Y-107950000D03*
%TO.P,J7,1*%
%TO.N,/AllDrivers/MOTOR5_A1*%
%TA.AperFunction,ComponentPad*%
G36*
G01*
X208560001Y-114070000D02*
X205459999Y-114070000D01*
G75*
G02*
X205210000Y-113820001I0J249999D01*
G01*
X205210000Y-112239999D01*
G75*
G02*
X205459999Y-111990000I249999J0D01*
G01*
X208560001Y-111990000D01*
G75*
G02*
X208810000Y-112239999I0J-249999D01*
G01*
X208810000Y-113820001D01*
G75*
G02*
X208560001Y-114070000I-249999J0D01*
G01*
G37*
%TD.AperFunction*%
%TD*%
%TO.P,J8,4*%
%TO.N,/AllDrivers/MOTOR6_B1*%
X207010000Y-121285000D03*
%TO.P,J8,3*%
%TO.N,/AllDrivers/MOTOR6_B2*%
X207010000Y-126365000D03*
%TO.P,J8,2*%
%TO.N,/AllDrivers/MOTOR6_A2*%
X207010000Y-131445000D03*
%TO.P,J8,1*%
%TO.N,/AllDrivers/MOTOR6_A1*%
%TA.AperFunction,ComponentPad*%
G36*
G01*
X208560001Y-137565000D02*
X205459999Y-137565000D01*
G75*
G02*
X205210000Y-137315001I0J249999D01*
G01*
X205210000Y-135734999D01*
G75*
G02*
X205459999Y-135485000I249999J0D01*
G01*
X208560001Y-135485000D01*
G75*
G02*
X208810000Y-135734999I0J-249999D01*
G01*
X208810000Y-137315001D01*
G75*
G02*
X208560001Y-137565000I-249999J0D01*
G01*
G37*
%TD.AperFunction*%
%TD*%
D10*
%TO.P,U11,25*%
%TO.N,GND*%
X118870000Y-76470000D03*
X117770000Y-76470000D03*
X116670000Y-76470000D03*
X115570000Y-76470000D03*
X114470000Y-76470000D03*
X113370000Y-76470000D03*
X112270000Y-76470000D03*
X118870000Y-77470000D03*
X117770000Y-77470000D03*
X112270000Y-77470000D03*
X113370000Y-77470000D03*
X114470000Y-77470000D03*
X116670000Y-77470000D03*
X115570000Y-77470000D03*
X115570000Y-78470000D03*
X116670000Y-78470000D03*
X112270000Y-78470000D03*
X118870000Y-78470000D03*
X113370000Y-78470000D03*
X114470000Y-78470000D03*
X117770000Y-78470000D03*
%TD*%
%TO.P,U12,25*%
%TO.N,GND*%
X190230000Y-105535000D03*
X190230000Y-104435000D03*
X190230000Y-103335000D03*
X190230000Y-102235000D03*
X190230000Y-101135000D03*
X190230000Y-100035000D03*
X190230000Y-98935000D03*
X189230000Y-105535000D03*
X189230000Y-104435000D03*
X189230000Y-98935000D03*
X189230000Y-100035000D03*
X189230000Y-101135000D03*
X189230000Y-103335000D03*
X189230000Y-102235000D03*
X188230000Y-102235000D03*
X188230000Y-103335000D03*
X188230000Y-98935000D03*
X188230000Y-105535000D03*
X188230000Y-100035000D03*
X188230000Y-101135000D03*
X188230000Y-104435000D03*
%TD*%
%TO.P,U13,25*%
%TO.N,GND*%
X190230000Y-129030000D03*
X190230000Y-127930000D03*
X190230000Y-126830000D03*
X190230000Y-125730000D03*
X190230000Y-124630000D03*
X190230000Y-123530000D03*
X190230000Y-122430000D03*
X189230000Y-129030000D03*
X189230000Y-127930000D03*
X189230000Y-122430000D03*
X189230000Y-123530000D03*
X189230000Y-124630000D03*
X189230000Y-126830000D03*
X189230000Y-125730000D03*
X188230000Y-125730000D03*
X188230000Y-126830000D03*
X188230000Y-122430000D03*
X188230000Y-129030000D03*
X188230000Y-123530000D03*
X188230000Y-124630000D03*
X188230000Y-127930000D03*
%TD*%
D15*
%TO.N,GND*%
X156464000Y-127762000D03*
X155194000Y-127762000D03*
X155194000Y-125730000D03*
X152146000Y-124460000D03*
X152146000Y-123190000D03*
X152146000Y-122174000D03*
X153162000Y-122174000D03*
X146558000Y-129032000D03*
X146558000Y-139192000D03*
X146304000Y-140970000D03*
X153670000Y-136398000D03*
X153670000Y-135128000D03*
X153670000Y-133858000D03*
X153670000Y-132588000D03*
X153670000Y-131318000D03*
%TO.N,Net-(R40-Pad2)*%
X184531000Y-124079000D03*
%TO.N,GND*%
X178054000Y-131318000D03*
X178054000Y-133096000D03*
X189230000Y-136398000D03*
X189230000Y-135382000D03*
X189230000Y-137414000D03*
X193548000Y-141478000D03*
X193294000Y-118110000D03*
X194818000Y-119888000D03*
X186182000Y-117094000D03*
X184150000Y-117094000D03*
X189230000Y-114046000D03*
X189230000Y-113030000D03*
X189230000Y-112014000D03*
X126492000Y-109220000D03*
X128016000Y-109220000D03*
X129540000Y-109220000D03*
X131064000Y-109220000D03*
X132588000Y-109220000D03*
X134112000Y-109220000D03*
X135636000Y-109220000D03*
X137160000Y-109220000D03*
X138684000Y-111252000D03*
X138684000Y-112776000D03*
X138684000Y-114300000D03*
X138684000Y-115824000D03*
X138684000Y-117348000D03*
X138684000Y-118872000D03*
X124460000Y-111252000D03*
X124460000Y-112776000D03*
X124460000Y-114300000D03*
X124460000Y-115824000D03*
X124460000Y-117348000D03*
X124460000Y-118872000D03*
X125726000Y-85340000D03*
X178054000Y-100838000D03*
X178054000Y-102870000D03*
X144526000Y-88138000D03*
X146304000Y-88138000D03*
X161290000Y-88138000D03*
X163068000Y-88138000D03*
X114300000Y-88138000D03*
X116078000Y-88138000D03*
X100330000Y-124460000D03*
X100330000Y-122936000D03*
X100330000Y-125984000D03*
X107950000Y-124460000D03*
X107950000Y-122936000D03*
X107950000Y-125984000D03*
X111760000Y-127000000D03*
X111760000Y-125730000D03*
X111760000Y-128270000D03*
X104140000Y-121158000D03*
X100330000Y-121158000D03*
X102362000Y-121158000D03*
X105918000Y-121158000D03*
X107950000Y-121158000D03*
X121920000Y-124206000D03*
X120142000Y-124206000D03*
X120142000Y-126238000D03*
X134845000Y-123727000D03*
X131445000Y-123825000D03*
X155448000Y-101092000D03*
X153162000Y-107442000D03*
X147066000Y-101092000D03*
X191516000Y-88138000D03*
X193421000Y-88011000D03*
X168402000Y-91829000D03*
X178816000Y-86614000D03*
X126365000Y-77343000D03*
X125095000Y-77343000D03*
X127635000Y-77343000D03*
X149860000Y-77343000D03*
X148590000Y-77343000D03*
X151130000Y-77343000D03*
X173355000Y-77343000D03*
X172085000Y-77343000D03*
X174752000Y-77343000D03*
X196850000Y-77470000D03*
X195326000Y-77470000D03*
X198501000Y-77470000D03*
X131445000Y-73152000D03*
X154940000Y-73279000D03*
X156871500Y-73305500D03*
X158036000Y-74470000D03*
X133503500Y-73559500D03*
X134414000Y-74470000D03*
X178435000Y-73279000D03*
X181404000Y-74470000D03*
X180239500Y-73305500D03*
X102235000Y-93091000D03*
X102235000Y-94615000D03*
X102235000Y-95631000D03*
X102362000Y-98552000D03*
X102362000Y-102616000D03*
X102235000Y-107569000D03*
X102235000Y-108712000D03*
X102362000Y-99695000D03*
X102235000Y-106553000D03*
X201930000Y-73152000D03*
X106807000Y-80645000D03*
X106807000Y-82677000D03*
X130175000Y-80645000D03*
X130175000Y-82550000D03*
X153797000Y-80645000D03*
X153797000Y-82550000D03*
X177165000Y-80645000D03*
X177165000Y-82550000D03*
X184150000Y-93599000D03*
X186055000Y-93599000D03*
X196088000Y-95123000D03*
X192230000Y-97584000D03*
X173355000Y-110744000D03*
X122428000Y-92075000D03*
%TO.N,+BATT*%
X200660000Y-138938000D03*
X200660000Y-134112000D03*
X200660000Y-110744000D03*
X200660000Y-115316000D03*
X101600000Y-138430000D03*
X100330000Y-138430000D03*
X100330000Y-137160000D03*
X100330000Y-135890000D03*
X100330000Y-134620000D03*
X100330000Y-133350000D03*
X100330000Y-132080000D03*
X102870000Y-138430000D03*
X104140000Y-138430000D03*
X105410000Y-138430000D03*
X106680000Y-138430000D03*
X107950000Y-138430000D03*
X107950000Y-137160000D03*
X107950000Y-135890000D03*
X107950000Y-134620000D03*
X107950000Y-133350000D03*
X107950000Y-132080000D03*
X196850000Y-138938000D03*
X198120000Y-138938000D03*
X199390000Y-138938000D03*
X199390000Y-134112000D03*
X198120000Y-134112000D03*
X196850000Y-134112000D03*
X196850000Y-115316000D03*
X198120000Y-115316000D03*
X199390000Y-115316000D03*
X199390000Y-110744000D03*
X198120000Y-110744000D03*
X196850000Y-110744000D03*
X128016000Y-123444000D03*
X125984000Y-125984000D03*
X125984000Y-124714000D03*
X125984000Y-123444000D03*
X111887000Y-70993000D03*
X135228500Y-70892500D03*
X158596500Y-71019500D03*
X181964500Y-70765500D03*
X124079000Y-68072000D03*
X124079000Y-69215000D03*
X124079000Y-67056000D03*
X124079000Y-65913000D03*
X128778000Y-68072000D03*
X128778000Y-67056000D03*
X128778000Y-65913000D03*
X128778000Y-69342000D03*
X147574000Y-68072000D03*
X147574000Y-66802000D03*
X147574000Y-65532000D03*
X147574000Y-69342000D03*
X152273000Y-69469000D03*
X152273000Y-68072000D03*
X152273000Y-66802000D03*
X152273000Y-65532000D03*
X171069000Y-68072000D03*
X171069000Y-66802000D03*
X171069000Y-65532000D03*
X171069000Y-69469000D03*
X175768000Y-69469000D03*
X175768000Y-68072000D03*
X175768000Y-66802000D03*
X175768000Y-65532000D03*
X194564000Y-68072000D03*
X194564000Y-66802000D03*
X194564000Y-65532000D03*
X194564000Y-69469000D03*
X199263000Y-69469000D03*
X199263000Y-68072000D03*
X199263000Y-66802000D03*
X199263000Y-65532000D03*
X197612000Y-98171000D03*
X197866000Y-121793000D03*
X196215000Y-127762000D03*
%TO.N,Net-(C9-Pad1)*%
X185928000Y-89916000D03*
X182372000Y-83820000D03*
%TO.N,Net-(C25-Pad1)*%
X138176000Y-90678000D03*
X135382000Y-84074000D03*
%TO.N,Net-(C41-Pad1)*%
X180721000Y-98044000D03*
X181356000Y-96393000D03*
%TO.N,+12V*%
X159612500Y-129894500D03*
X143002000Y-126365000D03*
%TO.N,VCC*%
X162814000Y-117094000D03*
X162814000Y-115824000D03*
X121158000Y-95504000D03*
X121158000Y-93980000D03*
X132588000Y-93980000D03*
X132588000Y-95504000D03*
X168148000Y-93472000D03*
X168148000Y-94996000D03*
X179578000Y-93472000D03*
X179578000Y-94996000D03*
X172085000Y-108077000D03*
X170561000Y-108077000D03*
X170561000Y-119253000D03*
X172085000Y-119253000D03*
X162814000Y-118618000D03*
X162814000Y-120142000D03*
X162814000Y-114300000D03*
X156362000Y-105816000D03*
X152400000Y-103632000D03*
X132080000Y-84582000D03*
X132080000Y-86614000D03*
X169164000Y-85090000D03*
X178708000Y-84690000D03*
X179578000Y-118618000D03*
X181610000Y-118618000D03*
X180721000Y-108839000D03*
%TO.N,Net-(C49-Pad1)*%
X178054000Y-127127000D03*
X183134000Y-122047000D03*
%TO.N,/I2C_SDA*%
X165354000Y-112014000D03*
X163195000Y-109093000D03*
%TO.N,/I2C_SCL*%
X130810000Y-99314000D03*
X130302000Y-97790000D03*
X155829000Y-102616000D03*
X152908000Y-102616000D03*
%TO.N,/AllDrivers/~INT1*%
X116078000Y-97282000D03*
X119380000Y-96520000D03*
%TO.N,/AllDrivers/~RESET1*%
X116840000Y-98044000D03*
X119634000Y-92964000D03*
%TO.N,/AllDrivers/~INT2*%
X142494000Y-100330000D03*
X171704000Y-96266000D03*
%TO.N,/AllDrivers/~RESET2*%
X143256000Y-101092000D03*
X170688000Y-98298000D03*
%TO.N,/AllDrivers/~INT3*%
X145034000Y-105410000D03*
X168910000Y-111252000D03*
%TO.N,/AllDrivers/~RESET3*%
X145034000Y-106426000D03*
X157734000Y-110236000D03*
%TO.N,/FAN_PWM*%
X150368000Y-107696000D03*
X160274000Y-137668000D03*
%TO.N,/AllDrivers/RRef4*%
X196850000Y-91694000D03*
X153670000Y-92964000D03*
%TO.N,Net-(R20-Pad2)*%
X188976000Y-87122000D03*
X184407000Y-82550000D03*
%TO.N,/AllDrivers/Motor4/~FAULT*%
X187706000Y-88138000D03*
X184404000Y-83820000D03*
%TO.N,/AllDrivers/RRef3*%
X152146000Y-91440000D03*
X166624000Y-90170000D03*
%TO.N,/AllDrivers/Motor3/~FAULT*%
X167640000Y-90932000D03*
X158496000Y-87122000D03*
%TO.N,Net-(R28-Pad2)*%
X137414000Y-83058000D03*
X142494000Y-88138000D03*
%TO.N,/AllDrivers/Motor2/~FAULT*%
X140716000Y-88138000D03*
X136779000Y-84709000D03*
%TO.N,/AllDrivers/RRef1*%
X145796000Y-97028000D03*
X120396000Y-91186000D03*
%TO.N,/AllDrivers/Motor1/~FAULT*%
X121924000Y-91190000D03*
X111252000Y-86868000D03*
%TO.N,/AllDrivers/RRef5*%
X151384000Y-114300000D03*
X176276000Y-105918000D03*
%TO.N,/AllDrivers/Motor5/~FAULT*%
X174625000Y-106172000D03*
X178816000Y-96266000D03*
%TO.N,/AllDrivers/RRef6*%
X168910000Y-125222000D03*
X151384000Y-116840000D03*
%TO.N,Net-(R40-Pad2)*%
X179070000Y-128778000D03*
%TO.N,/AllDrivers/Motor6/~FAULT*%
X175260000Y-124460000D03*
X179578000Y-119634000D03*
%TO.N,/AllDrivers/STEP6*%
X175768000Y-125984000D03*
X183642000Y-126032000D03*
X151384000Y-118364000D03*
%TO.N,/AllDrivers/STEP5*%
X151384000Y-115570000D03*
X184150000Y-102583000D03*
%TO.N,/AllDrivers/STEP4*%
X155194000Y-86614000D03*
X186403000Y-82804000D03*
%TO.N,/AllDrivers/STEP3*%
X155194000Y-85090000D03*
X162862000Y-83058000D03*
%TO.N,/AllDrivers/STEP2*%
X139446000Y-83058000D03*
X144526000Y-95504000D03*
%TO.N,/AllDrivers/STEP1*%
X115895000Y-82550000D03*
X145034000Y-96266000D03*
%TD*%
D16*
%TO.N,Net-(C25-Pad1)*%
X138176000Y-90678000D02*
X135382000Y-87884000D01*
X135382000Y-87884000D02*
X135382000Y-84074000D01*
%TO.N,Net-(C41-Pad1)*%
X180721000Y-98044000D02*
X180721000Y-97028000D01*
X180721000Y-97028000D02*
X181356000Y-96393000D01*
%TO.N,Net-(C49-Pad1)*%
X178054000Y-127127000D02*
X183134000Y-122047000D01*
%TO.N,/I2C_SCL*%
X130810000Y-99314000D02*
X130556000Y-99060000D01*
X130556000Y-99060000D02*
X130302000Y-98806000D01*
X130302000Y-98806000D02*
X130302000Y-97790000D01*
X155829000Y-102616000D02*
X152908000Y-102616000D01*
%TO.N,/AllDrivers/~INT1*%
X116078000Y-97282000D02*
X116840000Y-96520000D01*
X116840000Y-96520000D02*
X119380000Y-96520000D01*
%TO.N,/AllDrivers/~INT2*%
X142494000Y-100330000D02*
X144780000Y-98044000D01*
X144780000Y-98044000D02*
X169926000Y-98044000D01*
X169926000Y-98044000D02*
X171704000Y-96266000D01*
%TO.N,/AllDrivers/~RESET2*%
X143256000Y-101092000D02*
X145542000Y-98806000D01*
X170180000Y-98806000D02*
X170688000Y-98298000D01*
X145542000Y-98806000D02*
X170180000Y-98806000D01*
%TO.N,/AllDrivers/~INT3*%
X145034000Y-105410000D02*
X154432000Y-105410000D01*
X154432000Y-105410000D02*
X160274000Y-111252000D01*
X160274000Y-111252000D02*
X168910000Y-111252000D01*
%TO.N,/AllDrivers/~RESET3*%
X145034000Y-106426000D02*
X153924000Y-106426000D01*
X153924000Y-106426000D02*
X157734000Y-110236000D01*
%TO.N,/FAN_PWM*%
X150368000Y-107696000D02*
X150368000Y-136906000D01*
X150368000Y-136906000D02*
X151130000Y-137668000D01*
X151130000Y-137668000D02*
X160274000Y-137668000D01*
%TO.N,/AllDrivers/RRef4*%
X171958000Y-92710000D02*
X153924000Y-92710000D01*
X196342000Y-92456000D02*
X171958000Y-92710000D01*
X153924000Y-92710000D02*
X153670000Y-92964000D01*
X196850000Y-91948000D02*
X196342000Y-92456000D01*
X196850000Y-91694000D02*
X196850000Y-91948000D01*
%TO.N,/AllDrivers/RRef3*%
X152146000Y-91440000D02*
X166116000Y-91440000D01*
X166116000Y-91440000D02*
X166624000Y-90932000D01*
X166624000Y-90932000D02*
X166624000Y-90424000D01*
X166624000Y-90424000D02*
X166624000Y-90170000D01*
%TO.N,/AllDrivers/Motor3/~FAULT*%
X167640000Y-90932000D02*
X167640000Y-89916000D01*
X167640000Y-89916000D02*
X164846000Y-87122000D01*
X164846000Y-87122000D02*
X158496000Y-87122000D01*
D17*
%TO.N,Net-(R28-Pad2)*%
X137414000Y-83058000D02*
X142494000Y-88138000D01*
X142494000Y-88138000D02*
X142494000Y-88138000D01*
%TO.N,/AllDrivers/Motor2/~FAULT*%
X137287000Y-84709000D02*
X140716000Y-88138000D01*
X136779000Y-84709000D02*
X137287000Y-84709000D01*
D16*
%TO.N,/AllDrivers/RRef1*%
X120650000Y-91440000D02*
X120396000Y-91186000D01*
X122682000Y-93472000D02*
X120650000Y-91440000D01*
X122682000Y-96520000D02*
X122682000Y-93472000D01*
X123190000Y-97028000D02*
X122682000Y-96520000D01*
X145796000Y-97028000D02*
X123190000Y-97028000D01*
%TO.N,/AllDrivers/Motor1/~FAULT*%
X121924000Y-91190000D02*
X117602000Y-86868000D01*
X117602000Y-86868000D02*
X111252000Y-86868000D01*
%TO.N,/AllDrivers/RRef5*%
X151384000Y-114300000D02*
X152146000Y-115062000D01*
X152146000Y-115062000D02*
X172974000Y-115062000D01*
X172974000Y-115062000D02*
X175514000Y-112522000D01*
X175514000Y-112522000D02*
X175514000Y-106680000D01*
X175514000Y-106680000D02*
X176276000Y-105918000D01*
%TO.N,/AllDrivers/Motor5/~FAULT*%
X174625000Y-106172000D02*
X174625000Y-96647000D01*
X174625000Y-96647000D02*
X175006000Y-96266000D01*
X175006000Y-96266000D02*
X178816000Y-96266000D01*
%TO.N,/AllDrivers/RRef6*%
X159766000Y-125222000D02*
X168910000Y-125222000D01*
X151384000Y-116840000D02*
X159766000Y-125222000D01*
%TO.N,Net-(R40-Pad2)*%
X179070000Y-128778000D02*
X183642000Y-124206000D01*
X183642000Y-124206000D02*
X183769000Y-124079000D01*
X184531000Y-124079000D02*
X183769000Y-124079000D01*
%TO.N,/AllDrivers/Motor6/~FAULT*%
X179578000Y-120142000D02*
X179578000Y-119634000D01*
X175260000Y-124460000D02*
X179578000Y-120142000D01*
%TO.N,/AllDrivers/STEP6*%
X160528000Y-125984000D02*
X175768000Y-125984000D01*
X159004000Y-125984000D02*
X160528000Y-125984000D01*
X151384000Y-118364000D02*
X159004000Y-125984000D01*
%TO.N,/AllDrivers/STEP5*%
X152280999Y-116466999D02*
X173093001Y-116466999D01*
X151384000Y-115570000D02*
X152280999Y-116466999D01*
X173093001Y-116466999D02*
X176530000Y-113030000D01*
X176530000Y-113030000D02*
X176530000Y-108458000D01*
X176530000Y-108458000D02*
X182372000Y-102616000D01*
X184117000Y-102616000D02*
X184150000Y-102583000D01*
X182372000Y-102616000D02*
X184117000Y-102616000D01*
%TO.N,/AllDrivers/STEP4*%
X186436000Y-84074000D02*
X186436000Y-82837000D01*
X184658000Y-85852000D02*
X186436000Y-84074000D01*
X155956000Y-85852000D02*
X184658000Y-85852000D01*
X186436000Y-82837000D02*
X186403000Y-82804000D01*
X155194000Y-86614000D02*
X155956000Y-85852000D01*
%TO.N,/AllDrivers/STEP3*%
X155194000Y-85090000D02*
X162052000Y-85090000D01*
X162052000Y-85090000D02*
X162814000Y-84328000D01*
X162814000Y-83106000D02*
X162862000Y-83058000D01*
X162814000Y-84328000D02*
X162814000Y-83106000D01*
%TO.N,/AllDrivers/STEP2*%
X144526000Y-95504000D02*
X144018000Y-95504000D01*
X144018000Y-95504000D02*
X143510000Y-94996000D01*
X143510000Y-87122000D02*
X139446000Y-83058000D01*
X143510000Y-94996000D02*
X143510000Y-87122000D01*
%TO.N,/AllDrivers/STEP1*%
X145034000Y-96266000D02*
X123698000Y-96266000D01*
X123698000Y-96266000D02*
X123444000Y-96012000D01*
X123444000Y-96012000D02*
X123444000Y-91186000D01*
X115895000Y-83637000D02*
X115895000Y-82550000D01*
X123444000Y-91186000D02*
X115895000Y-83637000D01*
%TD*%
M02*
